<svg width="226" height="139" viewBox="0 0 226 139" fill="none" xmlns="http://www.w3.org/2000/svg">
<path opacity="0.1" d="M57.6395 138.28C46.6195 138.28 36.8028 135.557 28.1895 130.11C19.5762 124.663 12.7995 116.81 7.85949 106.55C3.04616 96.1633 0.639492 83.8133 0.639492 69.5C0.639492 55.1867 3.04616 42.9 7.85949 32.64C12.7995 22.2533 19.5762 14.3367 28.1895 8.88999C36.8028 3.44333 46.6195 0.719998 57.6395 0.719998C68.6595 0.719998 78.4762 3.44333 87.0895 8.88999C95.7028 14.3367 102.416 22.2533 107.229 32.64C112.17 42.9 114.64 55.1867 114.64 69.5C114.64 83.8133 112.17 96.1633 107.229 106.55C102.416 116.81 95.7028 124.663 87.0895 130.11C78.4762 135.557 68.6595 138.28 57.6395 138.28ZM57.6395 112.25C65.7462 112.25 72.0795 108.767 76.6395 101.8C81.3262 94.8333 83.6695 84.0667 83.6695 69.5C83.6695 54.9333 81.3262 44.1667 76.6395 37.2C72.0795 30.2333 65.7462 26.75 57.6395 26.75C49.6595 26.75 43.3262 30.2333 38.6395 37.2C34.0795 44.1667 31.7995 54.9333 31.7995 69.5C31.7995 84.0667 34.0795 94.8333 38.6395 101.8C43.3262 108.767 49.6595 112.25 57.6395 112.25ZM189.869 57.15C201.522 59.05 210.452 63.42 216.659 70.26C222.866 76.9733 225.969 85.3333 225.969 95.34C225.969 103.067 223.942 110.223 219.889 116.81C215.836 123.27 209.629 128.463 201.269 132.39C193.036 136.317 182.902 138.28 170.869 138.28C161.496 138.28 152.249 137.077 143.129 134.67C134.136 132.137 126.472 128.59 120.139 124.03L132.109 100.47C137.176 104.27 143.002 107.247 149.589 109.4C156.302 111.427 163.142 112.44 170.109 112.44C177.836 112.44 183.916 110.983 188.349 108.07C192.782 105.03 194.999 100.787 194.999 95.34C194.999 84.4467 186.702 79 170.109 79H156.049V58.67L183.409 27.7H126.789V2.99999H219.889V22.95L189.869 57.15Z" fill="white"/>
</svg>
