<svg width="134" height="97" viewBox="0 0 134 97" fill="none" xmlns="http://www.w3.org/2000/svg">
<g filter="url(#filter0_d)">
<path d="M35.3993 86.416C28.5553 86.416 22.4586 84.7247 17.1093 81.342C11.7599 77.9593 7.55126 73.082 4.48326 66.71C1.49393 60.2593 -0.000737332 52.5893 -0.000737332 43.7C-0.000737332 34.8107 1.49393 27.18 4.48326 20.808C7.55126 14.3573 11.7599 9.44066 17.1093 6.058C22.4586 2.67533 28.5553 0.983999 35.3993 0.983999C42.2433 0.983999 48.3399 2.67533 53.6893 6.058C59.0386 9.44066 63.2079 14.3573 66.1973 20.808C69.2653 27.18 70.7993 34.8107 70.7993 43.7C70.7993 52.5893 69.2653 60.2593 66.1973 66.71C63.2079 73.082 59.0386 77.9593 53.6893 81.342C48.3399 84.7247 42.2433 86.416 35.3993 86.416ZM35.3993 70.25C40.4339 70.25 44.3673 68.0867 47.1993 63.76C50.1099 59.4333 51.5653 52.7467 51.5653 43.7C51.5653 34.6533 50.1099 27.9667 47.1993 23.64C44.3673 19.3133 40.4339 17.15 35.3993 17.15C30.4433 17.15 26.5099 19.3133 23.5993 23.64C20.7673 27.9667 19.3513 34.6533 19.3513 43.7C19.3513 52.7467 20.7673 59.4333 23.5993 63.76C26.5099 68.0867 30.4433 70.25 35.3993 70.25ZM123.056 2.39999V85H103.94V17.74H87.4198V2.39999H123.056Z" fill="#EF8B54"/>
</g>
<defs>
<filter id="filter0_d" x="-0.000732422" y="0.983887" width="133.056" height="95.432" filterUnits="userSpaceOnUse" color-interpolation-filters="sRGB">
<feFlood flood-opacity="0" result="BackgroundImageFix"/>
<feColorMatrix in="SourceAlpha" type="matrix" values="0 0 0 0 0 0 0 0 0 0 0 0 0 0 0 0 0 0 127 0"/>
<feOffset dx="5" dy="5"/>
<feGaussianBlur stdDeviation="2.5"/>
<feColorMatrix type="matrix" values="0 0 0 0 0.937255 0 0 0 0 0.545098 0 0 0 0 0.329412 0 0 0 0.15 0"/>
<feBlend mode="normal" in2="BackgroundImageFix" result="effect1_dropShadow"/>
<feBlend mode="normal" in="SourceGraphic" in2="effect1_dropShadow" result="shape"/>
</filter>
</defs>
</svg>
