<svg width="142" height="87" viewBox="0 0 142 87" fill="none" xmlns="http://www.w3.org/2000/svg">
<path opacity="0.1" d="M36.003 86.416C29.159 86.416 23.0623 84.7247 17.713 81.342C12.3636 77.9593 8.15498 73.082 5.08698 66.71C2.09764 60.2593 0.602977 52.5893 0.602977 43.7C0.602977 34.8107 2.09764 27.18 5.08698 20.808C8.15498 14.3573 12.3636 9.44066 17.713 6.058C23.0623 2.67533 29.159 0.983999 36.003 0.983999C42.847 0.983999 48.9436 2.67533 54.293 6.058C59.6423 9.44066 63.8116 14.3573 66.801 20.808C69.869 27.18 71.403 34.8107 71.403 43.7C71.403 52.5893 69.869 60.2593 66.801 66.71C63.8116 73.082 59.6423 77.9593 54.293 81.342C48.9436 84.7247 42.847 86.416 36.003 86.416ZM36.003 70.25C41.0376 70.25 44.971 68.0867 47.803 63.76C50.7136 59.4333 52.169 52.7467 52.169 43.7C52.169 34.6533 50.7136 27.9667 47.803 23.64C44.971 19.3133 41.0376 17.15 36.003 17.15C31.047 17.15 27.1136 19.3133 24.203 23.64C21.371 27.9667 19.955 34.6533 19.955 43.7C19.955 52.7467 21.371 59.4333 24.203 63.76C27.1136 68.0867 31.047 70.25 36.003 70.25ZM141.713 69.424V85H79.2915V72.61L111.151 42.52C114.534 39.2947 116.815 36.5413 117.995 34.26C119.175 31.9 119.765 29.5793 119.765 27.298C119.765 23.994 118.625 21.4767 116.343 19.746C114.141 17.9367 110.876 17.032 106.549 17.032C102.931 17.032 99.6661 17.74 96.7555 19.156C93.8448 20.4933 91.4061 22.5387 89.4395 25.292L75.5155 16.324C78.7408 11.5253 83.1855 7.78866 88.8495 5.11399C94.5135 2.36066 101.003 0.983999 108.319 0.983999C114.455 0.983999 119.805 2.00666 124.367 4.05199C129.009 6.01866 132.588 8.85066 135.105 12.548C137.701 16.1667 138.999 20.454 138.999 25.41C138.999 29.894 138.055 34.1027 136.167 38.036C134.279 41.9693 130.621 46.4533 125.193 51.488L106.195 69.424H141.713Z" fill="white"/>
</svg>
