<svg width="141" height="87" viewBox="0 0 141 87" fill="none" xmlns="http://www.w3.org/2000/svg">
<path opacity="0.1" d="M36.1182 86.416C29.2742 86.416 23.1775 84.7247 17.8282 81.342C12.4789 77.9593 8.27021 73.082 5.20221 66.71C2.21288 60.2593 0.718211 52.5893 0.718211 43.7C0.718211 34.8107 2.21288 27.18 5.20221 20.808C8.27021 14.3573 12.4789 9.44066 17.8282 6.058C23.1775 2.67533 29.2742 0.983999 36.1182 0.983999C42.9622 0.983999 49.0589 2.67533 54.4082 6.058C59.7575 9.44066 63.9269 14.3573 66.9162 20.808C69.9842 27.18 71.5182 34.8107 71.5182 43.7C71.5182 52.5893 69.9842 60.2593 66.9162 66.71C63.9269 73.082 59.7575 77.9593 54.4082 81.342C49.0589 84.7247 42.9622 86.416 36.1182 86.416ZM36.1182 70.25C41.1529 70.25 45.0862 68.0867 47.9182 63.76C50.8289 59.4333 52.2842 52.7467 52.2842 43.7C52.2842 34.6533 50.8289 27.9667 47.9182 23.64C45.0862 19.3133 41.1529 17.15 36.1182 17.15C31.1622 17.15 27.2289 19.3133 24.3182 23.64C21.4862 27.9667 20.0702 34.6533 20.0702 43.7C20.0702 52.7467 21.4862 59.4333 24.3182 63.76C27.2289 68.0867 31.1622 70.25 36.1182 70.25ZM118.24 36.03C125.477 37.21 131.023 39.924 134.878 44.172C138.732 48.3413 140.66 53.5333 140.66 59.748C140.66 64.5467 139.401 68.9913 136.884 73.082C134.366 77.094 130.512 80.3193 125.32 82.758C120.206 85.1967 113.913 86.416 106.44 86.416C100.618 86.416 94.8758 85.6687 89.2118 84.174C83.6264 82.6007 78.8671 80.398 74.9338 77.566L82.3678 62.934C85.5144 65.294 89.1331 67.1427 93.2238 68.48C97.3931 69.7387 101.641 70.368 105.968 70.368C110.766 70.368 114.542 69.4633 117.296 67.654C120.049 65.766 121.426 63.1307 121.426 59.748C121.426 52.9827 116.273 49.6 105.968 49.6H97.2358V36.974L114.228 17.74H79.0638V2.39999H136.884V14.79L118.24 36.03Z" fill="white"/>
</svg>
