<svg width="157" height="87" viewBox="0 0 157 87" fill="none" xmlns="http://www.w3.org/2000/svg">
<path opacity="0.1" d="M36.2803 86.416C29.4363 86.416 23.3397 84.7247 17.9903 81.342C12.641 77.9593 8.43232 73.082 5.36432 66.71C2.37499 60.2593 0.88032 52.5893 0.88032 43.7C0.88032 34.8107 2.37499 27.18 5.36432 20.808C8.43232 14.3573 12.641 9.44066 17.9903 6.058C23.3397 2.67533 29.4363 0.983999 36.2803 0.983999C43.1243 0.983999 49.221 2.67533 54.5703 6.058C59.9197 9.44066 64.089 14.3573 67.0783 20.808C70.1463 27.18 71.6803 34.8107 71.6803 43.7C71.6803 52.5893 70.1463 60.2593 67.0783 66.71C64.089 73.082 59.9197 77.9593 54.5703 81.342C49.221 84.7247 43.1243 86.416 36.2803 86.416ZM36.2803 70.25C41.315 70.25 45.2483 68.0867 48.0803 63.76C50.991 59.4333 52.4463 52.7467 52.4463 43.7C52.4463 34.6533 50.991 27.9667 48.0803 23.64C45.2483 19.3133 41.315 17.15 36.2803 17.15C31.3243 17.15 27.391 19.3133 24.4803 23.64C21.6483 27.9667 20.2323 34.6533 20.2323 43.7C20.2323 52.7467 21.6483 59.4333 24.4803 63.76C27.391 68.0867 31.3243 70.25 36.2803 70.25ZM156.606 67.654H143.154V85H124.51V67.654H80.0242V54.792L118.964 2.39999H139.024L102.916 52.078H125.1V36.62H143.154V52.078H156.606V67.654Z" fill="white"/>
</svg>
