<svg width="150" height="87" viewBox="0 0 150 87" fill="none" xmlns="http://www.w3.org/2000/svg">
<path opacity="0.1" d="M36.3917 86.416C29.5476 86.416 23.451 84.7247 18.1017 81.342C12.7523 77.9593 8.54365 73.082 5.47565 66.71C2.48632 60.2593 0.991649 52.5893 0.991649 43.7C0.991649 34.8107 2.48632 27.18 5.47565 20.808C8.54365 14.3573 12.7523 9.44066 18.1017 6.058C23.451 2.67533 29.5476 0.983999 36.3917 0.983999C43.2357 0.983999 49.3323 2.67533 54.6817 6.058C60.031 9.44066 64.2003 14.3573 67.1897 20.808C70.2577 27.18 71.7917 34.8107 71.7917 43.7C71.7917 52.5893 70.2577 60.2593 67.1897 66.71C64.2003 73.082 60.031 77.9593 54.6817 81.342C49.3323 84.7247 43.2357 86.416 36.3917 86.416ZM36.3917 70.25C41.4263 70.25 45.3597 68.0867 48.1916 63.76C51.1023 59.4333 52.5576 52.7467 52.5576 43.7C52.5576 34.6533 51.1023 27.9667 48.1916 23.64C45.3597 19.3133 41.4263 17.15 36.3917 17.15C31.4357 17.15 27.5023 19.3133 24.5916 23.64C21.7596 27.9667 20.3436 34.6533 20.3436 43.7C20.3436 52.7467 21.7596 59.4333 24.5916 63.76C27.5023 68.0867 31.4357 70.25 36.3917 70.25ZM120.846 33.198C126.116 33.198 130.915 34.26 135.242 36.384C139.568 38.508 142.99 41.5367 145.508 45.47C148.025 49.3247 149.284 53.8087 149.284 58.922C149.284 64.4287 147.907 69.2667 145.154 73.436C142.4 77.6053 138.624 80.8307 133.826 83.112C129.106 85.3147 123.835 86.416 118.014 86.416C106.45 86.416 97.4029 82.876 90.8735 75.796C84.3442 68.716 81.0795 58.6073 81.0795 45.47C81.0795 36.1087 82.8495 28.0847 86.3895 21.398C89.9295 14.7113 94.8462 9.63733 101.14 6.17599C107.512 2.71466 114.867 0.983999 123.206 0.983999C127.611 0.983999 131.82 1.49533 135.832 2.51799C139.922 3.46199 143.384 4.83866 146.216 6.648L139.136 20.69C135.045 17.9367 129.892 16.56 123.678 16.56C116.676 16.56 111.13 18.6053 107.04 22.696C102.949 26.7867 100.746 32.726 100.432 40.514C105.309 35.6367 112.114 33.198 120.846 33.198ZM116.952 72.138C121.042 72.138 124.346 71.0367 126.864 68.834C129.46 66.6313 130.758 63.642 130.758 59.866C130.758 56.09 129.46 53.1007 126.864 50.898C124.346 48.6167 120.964 47.476 116.716 47.476C112.546 47.476 109.124 48.656 106.45 51.016C103.775 53.2973 102.438 56.2473 102.438 59.866C102.438 63.4847 103.736 66.4347 106.332 68.716C108.928 70.9973 112.468 72.138 116.952 72.138Z" fill="white"/>
</svg>
