<svg width="220" height="220" viewBox="0 0 220 220" fill="none" xmlns="http://www.w3.org/2000/svg">
<g filter="url(#filter0_d)">
<circle cx="108" cy="105" r="90" fill="#1D1D1D"/>
</g>
<path d="M142.522 99.2425C139.493 97.7285 133.815 97.7109 133.575 97.7109C132.855 97.7109 132.271 98.2947 132.271 99.0146C132.271 99.7346 132.855 100.318 133.575 100.318C135.04 100.319 139.294 100.544 141.356 101.575C141.543 101.668 141.742 101.713 141.938 101.713C142.416 101.713 142.876 101.448 143.105 100.992C143.427 100.348 143.166 99.5646 142.522 99.2425Z" fill="#EF8B54"/>
<path d="M149.021 117.804L143.637 116.266C143.405 116.199 143.242 115.984 143.242 115.742V113.945C143.68 113.642 144.098 113.302 144.489 112.923C146.382 111.086 147.424 108.622 147.424 105.984V103.504L147.945 102.463C148.516 101.32 148.818 100.041 148.818 98.7632V92.0448C148.818 91.3248 148.234 90.741 147.515 90.741H134.969C130.407 90.741 126.695 94.4526 126.695 99.0146V99.0923C126.695 100.155 126.946 101.219 127.422 102.169L128.089 103.504V105.634C128.089 109.008 129.752 112.036 132.271 113.858L132.272 115.742C132.272 116.032 132.272 116.153 131.195 116.46L128.568 117.211L120.968 114.447C120.995 114.089 120.874 113.724 120.613 113.449L118.184 110.898V106.615C118.441 106.403 118.694 106.186 118.939 105.956C122.003 103.084 123.76 99.03 123.76 94.8326V91.412C124.685 89.3989 125.154 87.2687 125.154 85.0748V71.1355C125.154 70.4155 124.57 69.8318 123.85 69.8318H104.335C97.4666 69.8318 91.8792 75.4193 91.8792 82.2871V85.0751C91.8792 87.269 92.3481 89.3993 93.2732 91.4124V94.3555C93.2732 99.2289 95.4401 103.619 98.8491 106.514V110.898L96.4205 113.449C96.1589 113.724 96.0379 114.089 96.0652 114.448L88.0439 117.364C87.4626 117.576 86.9225 117.862 86.4322 118.209L85.1726 117.579C88.9221 115.947 90.1099 113.651 90.1669 113.537C90.3504 113.17 90.3504 112.738 90.1669 112.371C89.227 110.492 89.1131 107.046 89.0217 104.278C88.9913 103.356 88.9624 102.485 88.9073 101.71C88.4628 95.4568 83.709 90.741 77.8492 90.741C71.9895 90.741 67.2355 95.4567 66.7912 101.71C66.7361 102.486 66.7072 103.356 66.6768 104.278C66.5853 107.046 66.4713 110.491 65.5316 112.371C65.348 112.738 65.348 113.17 65.5316 113.537C65.5886 113.651 66.7739 115.942 70.5309 117.576L67.0323 119.325C65.1619 120.261 64 122.141 64 124.232V133.864C64 134.584 64.5837 135.167 65.3037 135.167C66.0237 135.167 66.6074 134.584 66.6074 133.864V124.232C66.6074 123.135 67.217 122.148 68.1983 121.658L72.555 119.479L74.0704 120.92C75.13 121.927 76.4894 122.43 77.8492 122.43C79.2087 122.43 80.5688 121.926 81.6281 120.92L83.1433 119.48L84.5639 120.19C83.895 121.26 83.5153 122.515 83.5153 123.83V133.864C83.5153 134.584 84.0991 135.168 84.819 135.168C85.539 135.168 86.1228 134.584 86.1228 133.864V123.83C86.1228 122.04 87.2528 120.427 88.9349 119.815L97.392 116.74L100.913 122.021C101.363 122.696 102.084 123.129 102.891 123.209C102.981 123.218 103.071 123.222 103.16 123.222C103.873 123.222 104.555 122.942 105.065 122.432L107.213 120.284V133.864C107.213 134.584 107.796 135.168 108.516 135.168C109.236 135.168 109.82 134.584 109.82 133.864V120.284L111.968 122.432C112.478 122.942 113.16 123.222 113.873 123.222C113.962 123.222 114.051 123.218 114.141 123.209C114.949 123.129 115.67 122.696 116.12 122.021L119.641 116.74L128.098 119.815C129.78 120.427 130.91 122.04 130.91 123.83V133.864C130.91 134.584 131.494 135.168 132.214 135.168C132.934 135.168 133.517 134.584 133.517 133.864V123.83C133.517 122.017 132.797 120.317 131.589 119.06L131.911 118.968C132.236 118.875 132.679 118.748 133.124 118.53L136.453 121.859V133.864C136.453 134.584 137.037 135.168 137.757 135.168C138.477 135.168 139.06 134.584 139.06 133.864V121.859L142.366 118.553C142.542 118.643 142.726 118.718 142.921 118.773L148.305 120.312C149.534 120.663 150.393 121.801 150.393 123.079V133.864C150.393 134.584 150.976 135.168 151.696 135.168C152.416 135.168 153 134.584 153 133.864V123.079C153 120.643 151.364 118.473 149.021 117.804ZM72.3637 115.501C69.9251 114.624 68.7019 113.454 68.1797 112.815C68.5357 111.884 68.7665 110.819 68.9228 109.693C69.6418 111.417 70.8459 112.889 72.3637 113.939V115.501ZM79.8323 119.03C78.7203 120.086 76.9784 120.086 75.8667 119.029L74.6543 117.877C74.8589 117.494 74.9713 117.059 74.9713 116.604V115.215C75.8808 115.499 76.8476 115.652 77.8496 115.652C78.8503 115.652 79.8166 115.498 80.7277 115.216L80.7275 116.604C80.7275 117.059 80.8398 117.494 81.0445 117.878L79.8323 119.03ZM77.8499 113.045C73.9569 113.045 70.7899 109.878 70.7899 105.985C70.7899 105.265 70.2062 104.681 69.4862 104.681C69.4132 104.681 69.3419 104.688 69.2722 104.7C69.276 104.588 69.2797 104.476 69.2835 104.365C69.3125 103.468 69.3405 102.622 69.3921 101.895C69.5587 99.5527 70.4947 97.3941 72.0279 95.8168C73.5748 94.2253 75.6423 93.3488 77.8496 93.3488C80.0569 93.3488 82.1242 94.2253 83.6713 95.8168C85.2044 97.3941 86.1405 99.5527 86.307 101.895C86.3585 102.621 86.3866 103.468 86.4162 104.364C86.4188 104.441 86.4214 104.519 86.424 104.597C85.0056 102.411 82.815 100.801 79.9845 99.8914C77.3696 99.0513 75.1207 99.1032 75.0257 99.1057C74.6843 99.1152 74.3603 99.2581 74.1234 99.5039L71.7712 101.943C71.2714 102.462 71.2864 103.287 71.8047 103.787C72.3231 104.287 73.1484 104.271 73.6482 103.753L75.6055 101.724C77.2911 101.806 82.714 102.437 84.823 107.081C84.2923 110.503 81.3508 113.045 77.8499 113.045ZM83.3347 115.506L83.3349 113.951C84.8516 112.907 86.0574 111.438 86.7769 109.701C86.9331 110.823 87.1638 111.887 87.5191 112.815C86.9999 113.448 85.7709 114.629 83.3347 115.506ZM95.8806 94.3553V91.1207C95.8806 90.9244 95.8363 90.7306 95.7509 90.5538C94.912 88.8166 94.4867 86.9733 94.4867 85.0751V82.2873C94.4867 76.857 98.9045 72.4394 104.335 72.4394H122.546V85.0753C122.546 86.9735 122.121 88.8168 121.282 90.554C121.197 90.7308 121.152 90.9246 121.152 91.1209V94.833C121.152 98.3636 119.733 101.638 117.156 104.054C116.834 104.355 116.5 104.638 116.155 104.901C116.147 104.907 116.14 104.912 116.133 104.918C113.718 106.751 110.761 107.642 107.673 107.442C101.06 107.013 95.8806 101.265 95.8806 94.3553ZM103.221 120.588C103.212 120.597 103.191 120.618 103.149 120.614C103.106 120.61 103.089 120.585 103.082 120.574L99.0278 114.492L100.333 113.121L106.483 117.325L103.221 120.588ZM108.517 115.557L101.456 110.731V108.297C103.283 109.285 105.329 109.902 107.504 110.043C107.848 110.066 108.189 110.076 108.53 110.076C111.023 110.076 113.422 109.481 115.577 108.349V110.731L108.517 115.557ZM113.951 120.574C113.944 120.585 113.927 120.61 113.885 120.614C113.842 120.619 113.821 120.597 113.812 120.588L110.55 117.326L116.701 113.121L118.005 114.492L113.951 120.574ZM137.757 119.474L134.798 116.516C134.85 116.281 134.879 116.025 134.879 115.742L134.879 115.191C135.7 115.461 136.565 115.621 137.46 115.647C137.561 115.651 137.66 115.652 137.76 115.652C138.75 115.652 139.716 115.503 140.635 115.217V115.742C140.635 116.002 140.668 116.257 140.729 116.502L137.757 119.474ZM142.673 111.052C141.291 112.393 139.466 113.101 137.539 113.041C133.766 112.928 130.697 109.605 130.697 105.634V103.197C130.697 102.994 130.65 102.795 130.559 102.614L129.754 101.003C129.459 100.413 129.303 99.7523 129.303 99.0924V99.0147C129.303 95.8904 131.845 93.3486 134.969 93.3486H146.211V98.7634C146.211 99.6384 146.004 100.515 145.613 101.297L144.955 102.614C144.864 102.795 144.817 102.994 144.817 103.197V105.985C144.817 107.911 144.056 109.71 142.673 111.052Z" fill="#EF8B54"/>
<path d="M146.121 124.196C145.401 124.196 144.817 124.78 144.817 125.5V133.864C144.817 134.584 145.401 135.167 146.121 135.167C146.841 135.167 147.424 134.584 147.424 133.864V125.5C147.424 124.78 146.841 124.196 146.121 124.196Z" fill="#EF8B54"/>
<path d="M70.8795 125.919C70.1596 125.919 69.5758 126.503 69.5758 127.223V133.864C69.5758 134.584 70.1596 135.167 70.8795 135.167C71.5995 135.167 72.1833 134.584 72.1833 133.864V127.223C72.1833 126.503 71.5995 125.919 70.8795 125.919Z" fill="#EF8B54"/>
<path d="M119.196 85.5474C114.265 80.6165 103.949 81.5592 99.7417 82.1933C98.4166 82.3931 97.455 83.5144 97.455 84.8597V87.8631C97.455 88.5831 98.0387 89.1668 98.7587 89.1668C99.4787 89.1668 100.062 88.5831 100.062 87.8631V84.8595C100.062 84.8152 100.092 84.7773 100.131 84.7714C101.811 84.5181 105.145 84.1274 108.6 84.3577C112.666 84.6283 115.61 85.6489 117.352 87.391C117.862 87.9001 118.687 87.9001 119.196 87.391C119.705 86.8818 119.705 86.0563 119.196 85.5474Z" fill="#EF8B54"/>
<path d="M93.1828 126.984C92.4628 126.984 91.8791 127.568 91.8791 128.288V133.864C91.8791 134.584 92.4628 135.167 93.1828 135.167C93.9028 135.167 94.4866 134.584 94.4866 133.864V128.288C94.4866 127.568 93.9028 126.984 93.1828 126.984Z" fill="#EF8B54"/>
<path d="M123.85 126.984C123.13 126.984 122.546 127.568 122.546 128.288V133.864C122.546 134.584 123.13 135.167 123.85 135.167C124.57 135.167 125.154 134.584 125.154 133.864V128.288C125.154 127.568 124.57 126.984 123.85 126.984Z" fill="#EF8B54"/>
<defs>
<filter id="filter0_d" x="0" y="0" width="220" height="220" filterUnits="userSpaceOnUse" color-interpolation-filters="sRGB">
<feFlood flood-opacity="0" result="BackgroundImageFix"/>
<feColorMatrix in="SourceAlpha" type="matrix" values="0 0 0 0 0 0 0 0 0 0 0 0 0 0 0 0 0 0 127 0"/>
<feOffset dx="2" dy="5"/>
<feGaussianBlur stdDeviation="10"/>
<feColorMatrix type="matrix" values="0 0 0 0 0 0 0 0 0 0 0 0 0 0 0 0 0 0 0.2 0"/>
<feBlend mode="normal" in2="BackgroundImageFix" result="effect1_dropShadow"/>
<feBlend mode="normal" in="SourceGraphic" in2="effect1_dropShadow" result="shape"/>
</filter>
</defs>
</svg>
