<svg width="150" height="17" viewBox="0 0 150 17" fill="none" xmlns="http://www.w3.org/2000/svg">
<path d="M13.1667 13.0533V16H0.881333V0.133333H12.872V3.08H4.53067V6.52533H11.8973V9.38133H4.53067V13.0533H13.1667ZM14.943 8.20267H21.3577V11.036H14.943V8.20267ZM30.2545 16.1813C28.9549 16.1813 27.7838 15.9169 26.7412 15.388C25.7136 14.844 24.9052 14.096 24.3158 13.144C23.7416 12.192 23.4545 11.1116 23.4545 9.90267C23.4545 8.69378 23.7416 7.61333 24.3158 6.66133C24.9052 5.70933 25.7136 4.96889 26.7412 4.44C27.7838 3.896 28.9549 3.624 30.2545 3.624C31.5389 3.624 32.6572 3.896 33.6092 4.44C34.5763 4.96889 35.2789 5.732 35.7172 6.72933L32.9745 8.20267C32.3398 7.08444 31.4256 6.52533 30.2318 6.52533C29.3101 6.52533 28.5469 6.82756 27.9425 7.432C27.3381 8.03644 27.0358 8.86 27.0358 9.90267C27.0358 10.9453 27.3381 11.7689 27.9425 12.3733C28.5469 12.9778 29.3101 13.28 30.2318 13.28C31.4407 13.28 32.3549 12.7209 32.9745 11.6027L35.7172 13.0987C35.2789 14.0658 34.5763 14.8213 33.6092 15.3653C32.6572 15.9093 31.5389 16.1813 30.2545 16.1813ZM43.4008 16.1813C42.1164 16.1813 40.9604 15.9169 39.9328 15.388C38.9204 14.844 38.127 14.096 37.5528 13.144C36.9786 12.192 36.6915 11.1116 36.6915 9.90267C36.6915 8.69378 36.9786 7.61333 37.5528 6.66133C38.127 5.70933 38.9204 4.96889 39.9328 4.44C40.9604 3.896 42.1164 3.624 43.4008 3.624C44.6853 3.624 45.8337 3.896 46.8461 4.44C47.8586 4.96889 48.6519 5.70933 49.2261 6.66133C49.8004 7.61333 50.0875 8.69378 50.0875 9.90267C50.0875 11.1116 49.8004 12.192 49.2261 13.144C48.6519 14.096 47.8586 14.844 46.8461 15.388C45.8337 15.9169 44.6853 16.1813 43.4008 16.1813ZM43.4008 13.28C44.3075 13.28 45.0479 12.9778 45.6221 12.3733C46.2115 11.7538 46.5061 10.9302 46.5061 9.90267C46.5061 8.87511 46.2115 8.05911 45.6221 7.45467C45.0479 6.83511 44.3075 6.52533 43.4008 6.52533C42.4941 6.52533 41.7461 6.83511 41.1568 7.45467C40.5675 8.05911 40.2728 8.87511 40.2728 9.90267C40.2728 10.9302 40.5675 11.7538 41.1568 12.3733C41.7461 12.9778 42.4941 13.28 43.4008 13.28ZM68.0683 3.624C69.5946 3.624 70.8035 4.07733 71.695 4.984C72.6017 5.87556 73.055 7.22044 73.055 9.01867V16H69.519V9.56267C69.519 8.59556 69.315 7.87778 68.907 7.40933C68.5141 6.92578 67.9475 6.684 67.207 6.684C66.3759 6.684 65.7186 6.956 65.235 7.5C64.7515 8.02889 64.5097 8.82222 64.5097 9.88V16H60.9737V9.56267C60.9737 7.64356 60.203 6.684 58.6617 6.684C57.8457 6.684 57.1959 6.956 56.7123 7.5C56.2288 8.02889 55.987 8.82222 55.987 9.88V16H52.451V3.80533H55.8283V5.21067C56.2817 4.69689 56.8332 4.304 57.483 4.032C58.1479 3.76 58.8732 3.624 59.659 3.624C60.5203 3.624 61.2986 3.79778 61.9937 4.14533C62.6888 4.47778 63.2479 4.96889 63.671 5.61867C64.1697 4.984 64.7968 4.49289 65.5523 4.14533C66.323 3.79778 67.1617 3.624 68.0683 3.624ZM91.8418 3.624C93.368 3.624 94.5769 4.07733 95.4684 4.984C96.3751 5.87556 96.8284 7.22044 96.8284 9.01867V16H93.2924V9.56267C93.2924 8.59556 93.0884 7.87778 92.6804 7.40933C92.2876 6.92578 91.7209 6.684 90.9804 6.684C90.1493 6.684 89.492 6.956 89.0084 7.5C88.5249 8.02889 88.2831 8.82222 88.2831 9.88V16H84.7471V9.56267C84.7471 7.64356 83.9764 6.684 82.4351 6.684C81.6191 6.684 80.9693 6.956 80.4858 7.5C80.0022 8.02889 79.7604 8.82222 79.7604 9.88V16H76.2244V3.80533H79.6018V5.21067C80.0551 4.69689 80.6067 4.304 81.2564 4.032C81.9213 3.76 82.6467 3.624 83.4324 3.624C84.2938 3.624 85.072 3.79778 85.7671 4.14533C86.4622 4.47778 87.0213 4.96889 87.4444 5.61867C87.9431 4.984 88.5702 4.49289 89.3258 4.14533C90.0964 3.79778 90.9351 3.624 91.8418 3.624ZM112.076 9.948C112.076 9.99333 112.053 10.3107 112.008 10.9H102.783C102.949 11.6556 103.342 12.2524 103.961 12.6907C104.581 13.1289 105.352 13.348 106.273 13.348C106.908 13.348 107.467 13.2573 107.951 13.076C108.449 12.8796 108.91 12.5773 109.333 12.1693L111.215 14.2093C110.066 15.524 108.389 16.1813 106.183 16.1813C104.808 16.1813 103.591 15.9169 102.533 15.388C101.476 14.844 100.66 14.096 100.085 13.144C99.5111 12.192 99.224 11.1116 99.224 9.90267C99.224 8.70889 99.5036 7.636 100.063 6.684C100.637 5.71689 101.415 4.96889 102.397 4.44C103.395 3.896 104.505 3.624 105.729 3.624C106.923 3.624 108.004 3.88089 108.971 4.39467C109.938 4.90844 110.693 5.64889 111.237 6.616C111.796 7.568 112.076 8.67867 112.076 9.948ZM105.752 6.29867C104.951 6.29867 104.279 6.52533 103.735 6.97867C103.191 7.432 102.858 8.05156 102.737 8.83733H108.744C108.623 8.06667 108.291 7.45467 107.747 7.00133C107.203 6.53289 106.538 6.29867 105.752 6.29867ZM117.808 5.41467C118.231 4.82533 118.797 4.37956 119.508 4.07733C120.233 3.77511 121.064 3.624 122.001 3.624V6.888C121.608 6.85778 121.344 6.84267 121.208 6.84267C120.195 6.84267 119.402 7.12978 118.828 7.704C118.253 8.26311 117.966 9.10933 117.966 10.2427V16H114.43V3.80533H117.808V5.41467ZM129.886 16.1813C128.586 16.1813 127.415 15.9169 126.373 15.388C125.345 14.844 124.537 14.096 123.947 13.144C123.373 12.192 123.086 11.1116 123.086 9.90267C123.086 8.69378 123.373 7.61333 123.947 6.66133C124.537 5.70933 125.345 4.96889 126.373 4.44C127.415 3.896 128.586 3.624 129.886 3.624C131.17 3.624 132.289 3.896 133.241 4.44C134.208 4.96889 134.91 5.732 135.349 6.72933L132.606 8.20267C131.971 7.08444 131.057 6.52533 129.863 6.52533C128.942 6.52533 128.178 6.82756 127.574 7.432C126.97 8.03644 126.667 8.86 126.667 9.90267C126.667 10.9453 126.97 11.7689 127.574 12.3733C128.178 12.9778 128.942 13.28 129.863 13.28C131.072 13.28 131.986 12.7209 132.606 11.6027L135.349 13.0987C134.91 14.0658 134.208 14.8213 133.241 15.3653C132.289 15.9093 131.17 16.1813 129.886 16.1813ZM149.175 9.948C149.175 9.99333 149.152 10.3107 149.107 10.9H139.882C140.048 11.6556 140.441 12.2524 141.06 12.6907C141.68 13.1289 142.451 13.348 143.372 13.348C144.007 13.348 144.566 13.2573 145.05 13.076C145.548 12.8796 146.009 12.5773 146.432 12.1693L148.314 14.2093C147.165 15.524 145.488 16.1813 143.282 16.1813C141.907 16.1813 140.69 15.9169 139.632 15.388C138.575 14.844 137.759 14.096 137.184 13.144C136.61 12.192 136.323 11.1116 136.323 9.90267C136.323 8.70889 136.603 7.636 137.162 6.684C137.736 5.71689 138.514 4.96889 139.496 4.44C140.494 3.896 141.604 3.624 142.828 3.624C144.022 3.624 145.103 3.88089 146.07 4.39467C147.037 4.90844 147.792 5.64889 148.336 6.616C148.895 7.568 149.175 8.67867 149.175 9.948ZM142.851 6.29867C142.05 6.29867 141.378 6.52533 140.834 6.97867C140.29 7.432 139.957 8.05156 139.836 8.83733H145.843C145.722 8.06667 145.39 7.45467 144.846 7.00133C144.302 6.53289 143.637 6.29867 142.851 6.29867Z" fill="#FF834E"/>
</svg>
