<svg width="220" height="220" viewBox="0 0 220 220" fill="none" xmlns="http://www.w3.org/2000/svg">
<g filter="url(#filter0_d)">
<circle cx="108" cy="105" r="90" fill="#1D1D1D"/>
</g>
<g clip-path="url(#clip0)">
<path d="M155.862 84.7848C155.604 83.8248 154.974 83.0065 154.113 82.5104C153.25 82.0118 152.225 81.8769 151.263 82.1351C150.303 82.3938 149.484 83.023 148.988 83.8846L148.363 84.9721C147.77 84.631 147.011 84.8317 146.664 85.4225L143.489 90.8335L142.402 90.2086C142.114 90.042 141.771 89.9969 141.45 90.0835C141.128 90.1708 140.855 90.3819 140.69 90.6712C140.351 91.2686 140.557 92.0278 141.152 92.3707L142.24 92.9956L131.616 111.405L128.992 118.417L127.742 120.753C127.01 122.026 127.088 123.609 127.942 124.803L125.13 128.252L124.343 126.278C123.988 125.398 123.166 124.795 122.22 124.721C121.275 124.647 120.368 125.114 119.881 125.928L119.431 126.69L119.006 121.691C118.909 120.508 117.993 119.557 116.815 119.414C115.637 119.272 114.521 119.978 114.144 121.104L111.07 130.327C110.855 130.979 111.207 131.682 111.857 131.902C111.979 131.959 112.11 131.993 112.245 132.001C112.782 132.003 113.26 131.661 113.432 131.152L116.494 121.929L116.931 127.002C117.022 128.085 117.8 128.985 118.858 129.23C119.916 129.476 121.011 129.009 121.568 128.078L122.031 127.315L122.806 129.277C123.135 130.104 123.879 130.694 124.759 130.825C125.64 130.957 126.523 130.609 127.08 129.914L129.992 126.228C130.314 126.312 130.646 126.354 130.979 126.353C132.319 126.363 133.563 125.658 134.241 124.503L135.491 122.416L140.253 116.629L150.988 97.9948L152.076 98.6197C152.365 98.7857 152.577 99.0597 152.663 99.3825C152.749 99.7029 152.704 100.045 152.538 100.332L147.539 108.993C147.35 109.278 147.286 109.627 147.362 109.96C147.438 110.292 147.646 110.58 147.939 110.755C148.227 110.922 148.57 110.967 148.891 110.881C149.212 110.794 149.486 110.582 149.651 110.293L154.65 101.632C155.149 100.77 155.284 99.7444 155.025 98.7826C154.766 97.8221 154.137 97.0037 153.275 96.5076L152.188 95.8827L155.312 90.471C155.653 89.8773 155.453 89.1193 154.863 88.7715L155.487 87.684C156 86.8083 156.135 85.7624 155.862 84.7848ZM151.15 85.1344C151.316 84.8452 151.59 84.6334 151.913 84.5474C152.234 84.468 152.574 84.5126 152.863 84.6725C153.153 84.8378 153.364 85.1125 153.45 85.4347C153.53 85.7557 153.485 86.095 153.325 86.3842L152.701 87.4717L150.526 86.2219L151.15 85.1344ZM134.116 120.029L133.491 119.667L131.641 118.591L133.416 113.842L137.353 116.117L134.116 120.029ZM130.367 123.64C129.839 123.272 129.676 122.565 129.992 122.003L130.617 120.916L132.791 122.166L132.166 123.241C131.991 123.545 131.697 123.761 131.355 123.837C131.012 123.913 130.654 123.842 130.367 123.64ZM138.778 114.067L134.453 111.568L144.452 94.2454L148.776 96.745L138.778 114.067ZM150.026 94.5829L145.702 92.0833L148.201 87.7591L152.525 90.2587L150.026 94.5829Z" fill="#EF8B54"/>
<path d="M100.721 123.016L96.2977 127.428L93.648 124.778C93.1604 124.293 92.3732 124.293 91.8856 124.778C91.6488 125.013 91.5158 125.332 91.5158 125.665C91.5158 125.998 91.6488 126.318 91.8856 126.553L94.5353 129.202C95.004 129.667 95.6374 129.928 96.2977 129.927C96.9617 129.931 97.6006 129.67 98.0723 129.202L102.484 124.778C102.909 124.282 102.88 123.543 102.418 123.081C101.957 122.62 101.218 122.591 100.721 123.016Z" fill="#EF8B54"/>
<path d="M85.9991 126.377C85.9991 132.245 90.7554 137.001 96.6223 137.001C102.489 137.001 107.245 132.245 107.245 126.377C107.245 125.687 106.686 125.128 105.996 125.128C105.305 125.128 104.746 125.687 104.746 126.377C104.746 130.864 101.109 134.501 96.6223 134.501C92.1357 134.501 88.4987 130.864 88.4987 126.377C88.4987 121.891 92.1357 118.254 96.6223 118.254C98.381 118.249 100.093 118.82 101.496 119.879C102.049 120.293 102.832 120.181 103.246 119.629C103.66 119.076 103.549 118.294 102.996 117.879C99.7773 115.465 95.4701 115.077 91.8715 116.876C88.2723 118.676 85.9991 122.354 85.9991 126.377Z" fill="#EF8B54"/>
<path d="M125.992 77.0108C126.682 77.0108 127.242 76.4518 127.242 75.761C127.242 75.0708 126.682 74.5112 125.992 74.5112H93.4978C92.8076 74.5112 92.248 75.0708 92.248 75.761V80.7602C92.248 81.451 92.8076 82.01 93.4978 82.01H125.992C126.682 82.01 127.242 81.451 127.242 80.7602C127.242 80.07 126.682 79.5104 125.992 79.5104H94.7476V77.0108H125.992Z" fill="#EF8B54"/>
<path d="M97.2472 84.5095C96.557 84.5095 95.9974 85.0691 95.9974 85.7593C95.9974 86.4501 96.557 87.0091 97.2472 87.0091H122.243C122.933 87.0091 123.493 86.4501 123.493 85.7593C123.493 85.0691 122.933 84.5095 122.243 84.5095H97.2472Z" fill="#EF8B54"/>
<path d="M129.742 93.2581H102.246C101.556 93.2581 100.997 93.8177 100.997 94.5078C100.997 95.1987 101.556 95.7576 102.246 95.7576H129.742C130.432 95.7576 130.991 95.1987 130.991 94.5078C130.991 93.8177 130.432 93.2581 129.742 93.2581Z" fill="#EF8B54"/>
<path d="M117.244 102.007C117.244 101.316 116.684 100.757 115.994 100.757H90.9983C90.3081 100.757 89.7485 101.316 89.7485 102.007C89.7485 102.697 90.3081 103.256 90.9983 103.256H115.994C116.684 103.256 117.244 102.697 117.244 102.007Z" fill="#EF8B54"/>
<path d="M129.742 100.757H120.993C120.303 100.757 119.743 101.316 119.743 102.007C119.743 102.697 120.303 103.256 120.993 103.256H129.742C130.432 103.256 130.991 102.697 130.991 102.007C130.991 101.316 130.432 100.757 129.742 100.757Z" fill="#EF8B54"/>
<path d="M103.496 109.505C104.186 109.505 104.746 108.946 104.746 108.255C104.746 107.565 104.186 107.006 103.496 107.006H90.9983C90.3081 107.006 89.7485 107.565 89.7485 108.255C89.7485 108.946 90.3081 109.505 90.9983 109.505H103.496Z" fill="#EF8B54"/>
<path d="M108.495 109.505H117.244C117.934 109.505 118.494 108.946 118.494 108.255C118.494 107.565 117.934 107.006 117.244 107.006H108.495C107.805 107.006 107.245 107.565 107.245 108.255C107.245 108.946 107.805 109.505 108.495 109.505Z" fill="#EF8B54"/>
<path d="M137.24 124.503C136.55 124.503 135.991 125.062 135.991 125.752V138.25C135.991 138.941 135.431 139.5 134.741 139.5H84.7494C84.0592 139.5 83.4996 138.941 83.4996 138.25V70.7618C83.4996 70.0716 84.0592 69.512 84.7494 69.512H134.741C135.431 69.512 135.991 70.0716 135.991 70.7618V94.2332C135.991 94.9233 136.55 95.4829 137.24 95.4829C137.931 95.4829 138.49 94.9233 138.49 94.2332V70.7618C138.49 68.6912 136.811 67.0125 134.741 67.0125H84.7494C82.6788 67.0125 81 68.6912 81 70.7618V138.25C81 140.321 82.6788 142 84.7494 142H134.741C136.811 142 138.49 140.321 138.49 138.25V125.752C138.49 125.062 137.931 124.503 137.24 124.503Z" fill="#EF8B54"/>
</g>
<defs>
<filter id="filter0_d" x="0" y="0" width="220" height="220" filterUnits="userSpaceOnUse" color-interpolation-filters="sRGB">
<feFlood flood-opacity="0" result="BackgroundImageFix"/>
<feColorMatrix in="SourceAlpha" type="matrix" values="0 0 0 0 0 0 0 0 0 0 0 0 0 0 0 0 0 0 127 0"/>
<feOffset dx="2" dy="5"/>
<feGaussianBlur stdDeviation="10"/>
<feColorMatrix type="matrix" values="0 0 0 0 0 0 0 0 0 0 0 0 0 0 0 0 0 0 0.2 0"/>
<feBlend mode="normal" in2="BackgroundImageFix" result="effect1_dropShadow"/>
<feBlend mode="normal" in="SourceGraphic" in2="effect1_dropShadow" result="shape"/>
</filter>
<clipPath id="clip0">
<rect width="75" height="75" fill="white" transform="translate(81 67)"/>
</clipPath>
</defs>
</svg>
