<svg width="220" height="220" viewBox="0 0 220 220" fill="none" xmlns="http://www.w3.org/2000/svg">
<g filter="url(#filter0_d)">
<circle cx="108" cy="105" r="90" fill="#1D1D1D"/>
</g>
<g clip-path="url(#clip0)">
<path d="M79.0229 72.2178C77.2445 72.2178 75.7979 73.6643 75.7979 75.4427C75.7979 77.2206 77.2445 78.6671 79.0229 78.6671C80.8007 78.6671 82.2473 77.2206 82.2473 75.4427C82.2473 73.6643 80.8007 72.2178 79.0229 72.2178ZM79.0229 76.4693C78.4564 76.4693 77.9958 76.0086 77.9958 75.4427C77.9958 74.8762 78.4564 74.4156 79.0229 74.4156C79.5888 74.4156 80.05 74.8762 80.05 75.4427C80.05 76.0086 79.5888 76.4693 79.0229 76.4693Z" fill="#EF8B54"/>
<path d="M87.2329 72.2178C85.4545 72.2178 84.0079 73.6643 84.0079 75.4427C84.0079 77.2206 85.455 78.6671 87.2329 78.6671C89.0107 78.6671 90.4572 77.2206 90.4572 75.4427C90.4572 73.6643 89.0107 72.2178 87.2329 72.2178ZM87.2329 76.4693C86.6664 76.4693 86.2058 76.0086 86.2058 75.4427C86.2058 74.8762 86.6664 74.4156 87.2329 74.4156C87.7988 74.4156 88.26 74.8762 88.26 75.4427C88.26 76.0086 87.7988 76.4693 87.2329 76.4693Z" fill="#EF8B54"/>
<path d="M95.4429 72.2178C93.6645 72.2178 92.2179 73.6643 92.2179 75.4427C92.2179 77.2206 93.6645 78.6671 95.4429 78.6671C97.2207 78.6671 98.6672 77.2206 98.6672 75.4427C98.6672 73.6643 97.2207 72.2178 95.4429 72.2178ZM95.4429 76.4693C94.8764 76.4693 94.4158 76.0086 94.4158 75.4427C94.4158 74.8762 94.8764 74.4156 95.4429 74.4156C96.0088 74.4156 96.47 74.8762 96.47 75.4427C96.47 76.0086 96.0093 76.4693 95.4429 76.4693Z" fill="#EF8B54"/>
<path d="M141.164 68H75.8357C73.1692 68 71 70.1692 71 72.8357V138.164C71 140.83 73.1692 143 75.8357 143H141.164C143.83 143 146 140.83 146 138.164V121.518C146 120.911 145.508 120.419 144.901 120.419C144.294 120.419 143.802 120.911 143.802 121.518V138.164C143.802 139.619 142.619 140.802 141.164 140.802H75.8357C74.3812 140.802 73.1978 139.619 73.1978 138.164V82.9471H143.802V114.731C143.802 115.337 144.294 115.829 144.901 115.829C145.508 115.829 146 115.337 146 114.731V72.8357C146 70.1692 143.831 68 141.164 68V68ZM143.802 80.7493H73.1978V72.8357C73.1978 71.3812 74.3812 70.1978 75.8357 70.1978H141.164C142.619 70.1978 143.802 71.3812 143.802 72.8357V80.7493Z" fill="#EF8B54"/>
<path d="M138.599 90.6947C138.599 88.7784 137.04 87.2197 135.125 87.2197H81.7111C79.7954 87.2197 78.2367 88.7784 78.2367 90.6947V97.1492C78.2367 97.7563 78.7288 98.2478 79.3353 98.2478C79.9424 98.2478 80.4345 97.7563 80.4345 97.1492V90.6947C80.4345 89.9903 81.0073 89.4176 81.7111 89.4176H135.125C135.828 89.4176 136.401 89.9903 136.401 90.6947V110.81C136.401 111.514 135.828 112.087 135.125 112.087H131.666L120.402 99.3922C120.073 99.022 119.601 98.8011 119.105 98.7863C118.61 98.7697 118.126 98.9637 117.775 99.3138L111.809 105.277L103.772 96.2199C103.443 95.8491 102.971 95.6283 102.476 95.6134C101.981 95.6008 101.496 95.7908 101.145 96.141L85.1924 112.087H81.7111C81.0073 112.087 80.4345 111.514 80.4345 110.81V104.083C80.4345 103.476 79.9424 102.984 79.3353 102.984C78.7288 102.984 78.2367 103.476 78.2367 104.083V110.81C78.2367 112.726 79.7954 114.284 81.7111 114.284H135.125C137.04 114.284 138.599 112.726 138.599 110.81V90.6947ZM88.3012 112.087L102.405 97.9898L113.098 110.04C113.5 110.495 114.195 110.536 114.649 110.133C115.103 109.73 115.144 109.036 114.742 108.582L113.27 106.924L119.035 101.163L128.728 112.087H88.3012Z" fill="#EF8B54"/>
<path d="M81.7105 117.361C79.7948 117.361 78.2367 118.919 78.2367 120.835V131.615C78.2367 133.531 79.7948 135.089 81.7105 135.089H102.966C104.881 135.089 106.44 133.531 106.44 131.615V120.835C106.44 118.919 104.881 117.361 102.966 117.361H81.7105ZM104.242 120.835V131.615C104.242 132.319 103.669 132.891 102.966 132.891H81.7105C81.0067 132.891 80.4345 132.319 80.4345 131.615V120.835C80.4345 120.131 81.0067 119.559 81.7105 119.559H102.966C103.669 119.559 104.242 120.131 104.242 120.835Z" fill="#EF8B54"/>
<path d="M113.87 117.361C111.954 117.361 110.396 118.919 110.396 120.835V131.615C110.396 133.531 111.954 135.089 113.87 135.089H135.125C137.04 135.089 138.599 133.531 138.599 131.615V120.835C138.599 118.919 137.04 117.361 135.125 117.361H113.87ZM136.401 120.835V131.615C136.401 132.319 135.828 132.891 135.125 132.891H113.87C113.166 132.891 112.594 132.319 112.594 131.615V120.835C112.594 120.131 113.166 119.559 113.87 119.559H135.125C135.828 119.559 136.401 120.131 136.401 120.835Z" fill="#EF8B54"/>
<path d="M83.8408 123.704H86.8117C87.4188 123.704 87.9104 123.213 87.9104 122.606C87.9104 121.998 87.4188 121.506 86.8117 121.506H83.8408C83.2337 121.506 82.7416 121.998 82.7416 122.606C82.7416 123.213 83.2337 123.704 83.8408 123.704Z" fill="#EF8B54"/>
<path d="M83.8408 127.427H85.3858C85.9923 127.427 86.4844 126.935 86.4844 126.328C86.4844 125.721 85.9923 125.229 85.3858 125.229H83.8408C83.2337 125.229 82.7416 125.721 82.7416 126.328C82.7416 126.935 83.2337 127.427 83.8408 127.427Z" fill="#EF8B54"/>
<path d="M100.836 125.229H96.7338C96.1266 125.229 95.6346 125.721 95.6346 126.328C95.6346 126.935 96.1266 127.427 96.7338 127.427H100.836C101.443 127.427 101.935 126.935 101.935 126.328C101.935 125.721 101.443 125.229 100.836 125.229Z" fill="#EF8B54"/>
<path d="M90.5803 123.704H100.543C101.149 123.704 101.642 123.213 101.642 122.606C101.642 121.998 101.149 121.506 100.543 121.506H90.5803C89.9732 121.506 89.4816 121.998 89.4816 122.606C89.4816 123.213 89.9732 123.704 90.5803 123.704Z" fill="#EF8B54"/>
<path d="M100.543 128.746H97.5715C96.9649 128.746 96.4728 129.237 96.4728 129.844C96.4728 130.452 96.9649 130.944 97.5715 130.944H100.543C101.149 130.944 101.642 130.452 101.642 129.844C101.642 129.237 101.149 128.746 100.543 128.746Z" fill="#EF8B54"/>
<path d="M93.8035 128.746H83.8408C83.2337 128.746 82.7416 129.237 82.7416 129.844C82.7416 130.452 83.2337 130.944 83.8408 130.944H93.8035C94.41 130.944 94.9021 130.452 94.9021 129.844C94.9021 129.237 94.41 128.746 93.8035 128.746Z" fill="#EF8B54"/>
<path d="M88.7921 127.427H93.0711C93.6776 127.427 94.1697 126.935 94.1697 126.328C94.1697 125.721 93.6776 125.229 93.0711 125.229H88.7921C88.1856 125.229 87.6935 125.721 87.6935 126.328C87.6935 126.935 88.1856 127.427 88.7921 127.427Z" fill="#EF8B54"/>
<path d="M116 123.704H118.971C119.578 123.704 120.069 123.213 120.069 122.606C120.069 121.998 119.578 121.506 118.971 121.506H116C115.393 121.506 114.901 121.998 114.901 122.606C114.901 123.213 115.393 123.704 116 123.704Z" fill="#EF8B54"/>
<path d="M116 127.427H117.545C118.151 127.427 118.643 126.935 118.643 126.328C118.643 125.721 118.151 125.229 117.545 125.229H116C115.393 125.229 114.901 125.721 114.901 126.328C114.901 126.935 115.393 127.427 116 127.427Z" fill="#EF8B54"/>
<path d="M132.995 125.229H128.893C128.286 125.229 127.794 125.721 127.794 126.328C127.794 126.935 128.286 127.427 128.893 127.427H132.995C133.601 127.427 134.094 126.935 134.094 126.328C134.094 125.721 133.601 125.229 132.995 125.229Z" fill="#EF8B54"/>
<path d="M122.739 123.704H132.702C133.309 123.704 133.801 123.213 133.801 122.606C133.801 121.998 133.309 121.506 132.702 121.506H122.739C122.132 121.506 121.64 121.998 121.64 122.606C121.64 123.213 122.132 123.704 122.739 123.704Z" fill="#EF8B54"/>
<path d="M132.702 128.746H129.731C129.124 128.746 128.632 129.237 128.632 129.844C128.632 130.452 129.124 130.944 129.731 130.944H132.702C133.309 130.944 133.801 130.452 133.801 129.844C133.801 129.237 133.309 128.746 132.702 128.746Z" fill="#EF8B54"/>
<path d="M125.963 128.746H116C115.393 128.746 114.901 129.237 114.901 129.844C114.901 130.452 115.393 130.944 116 130.944H125.963C126.569 130.944 127.061 130.452 127.061 129.844C127.061 129.237 126.569 128.746 125.963 128.746Z" fill="#EF8B54"/>
<path d="M120.951 127.427H125.23C125.837 127.427 126.329 126.935 126.329 126.328C126.329 125.721 125.837 125.229 125.23 125.229H120.951C120.345 125.229 119.853 125.721 119.853 126.328C119.853 126.935 120.345 127.427 120.951 127.427Z" fill="#EF8B54"/>
<path d="M130.96 95.3606C130.96 93.0534 129.083 91.176 126.775 91.176C124.468 91.176 122.591 93.0534 122.591 95.3606C122.591 97.6683 124.468 99.5457 126.775 99.5457C129.083 99.5457 130.96 97.6683 130.96 95.3606ZM124.788 95.3606C124.788 94.2648 125.679 93.3739 126.775 93.3739C127.871 93.3739 128.762 94.2648 128.762 95.3606C128.762 96.4563 127.871 97.3478 126.775 97.3478C125.679 97.3478 124.788 96.4563 124.788 95.3606Z" fill="#EF8B54"/>
</g>
<defs>
<filter id="filter0_d" x="0" y="0" width="220" height="220" filterUnits="userSpaceOnUse" color-interpolation-filters="sRGB">
<feFlood flood-opacity="0" result="BackgroundImageFix"/>
<feColorMatrix in="SourceAlpha" type="matrix" values="0 0 0 0 0 0 0 0 0 0 0 0 0 0 0 0 0 0 127 0"/>
<feOffset dx="2" dy="5"/>
<feGaussianBlur stdDeviation="10"/>
<feColorMatrix type="matrix" values="0 0 0 0 0 0 0 0 0 0 0 0 0 0 0 0 0 0 0.2 0"/>
<feBlend mode="normal" in2="BackgroundImageFix" result="effect1_dropShadow"/>
<feBlend mode="normal" in="SourceGraphic" in2="effect1_dropShadow" result="shape"/>
</filter>
<clipPath id="clip0">
<rect width="75" height="75" fill="white" transform="translate(71 68)"/>
</clipPath>
</defs>
</svg>
