<svg width="220" height="220" viewBox="0 0 220 220" fill="none" xmlns="http://www.w3.org/2000/svg">
<g filter="url(#filter0_d)">
<circle cx="108" cy="105" r="90" fill="#1D1D1D"/>
</g>
<path d="M95.9778 80.2114H109.038C109.692 80.2114 110.222 79.6814 110.222 79.0272C110.222 78.373 109.692 77.843 109.038 77.843H95.9778C95.3237 77.843 94.7936 78.373 94.7936 79.0272C94.7935 79.6814 95.3237 80.2114 95.9778 80.2114Z" fill="#EF8B54"/>
<path d="M95.9778 85.4377H122.098C122.752 85.4377 123.282 84.9076 123.282 84.2535C123.282 83.5995 122.752 83.0693 122.098 83.0693H95.9778C95.3237 83.0693 94.7936 83.5995 94.7936 84.2535C94.7936 84.9076 95.3237 85.4377 95.9778 85.4377Z" fill="#EF8B54"/>
<path d="M95.9778 101.719H109.038C109.692 101.719 110.222 101.189 110.222 100.535C110.222 99.8811 109.692 99.3511 109.038 99.3511H95.9778C95.3237 99.3511 94.7936 99.8811 94.7936 100.535C94.7935 101.189 95.3237 101.719 95.9778 101.719Z" fill="#EF8B54"/>
<path d="M95.9778 106.946H121.81C122.464 106.946 122.994 106.416 122.994 105.762C122.994 105.108 122.464 104.578 121.81 104.578H95.9778C95.3237 104.578 94.7936 105.108 94.7936 105.762C94.7935 106.416 95.3237 106.946 95.9778 106.946Z" fill="#EF8B54"/>
<path d="M95.9778 123.228H109.038C109.692 123.228 110.222 122.698 110.222 122.044C110.222 121.389 109.692 120.859 109.038 120.859H95.9778C95.3237 120.859 94.7936 121.389 94.7936 122.044C94.7935 122.698 95.3237 123.228 95.9778 123.228Z" fill="#EF8B54"/>
<path d="M121.625 126.086H95.9778C95.3237 126.086 94.7936 126.616 94.7936 127.27C94.7936 127.924 95.3239 128.454 95.9778 128.454H121.625C122.279 128.454 122.809 127.924 122.809 127.27C122.809 126.616 122.279 126.086 121.625 126.086Z" fill="#EF8B54"/>
<path d="M145.386 131.3L138.507 128.541V127.03C140.402 126 141.839 124.233 142.439 122.118C144.738 122.106 146.605 120.232 146.605 117.93C146.605 116.547 145.93 115.318 144.893 114.555V111.411C144.893 105.558 140.131 100.796 134.279 100.796H133.493C132.615 100.796 131.763 100.905 130.947 101.107V94.6927C130.947 94.0385 130.417 93.5085 129.763 93.5085H126.246C125.592 93.5085 125.062 94.0387 125.062 94.6927C125.062 95.3468 125.592 95.8769 126.246 95.8769H128.579V102.007C125.471 103.638 123.267 106.762 122.926 110.421H78.3684V95.8769H122.282C122.936 95.8769 123.466 95.3468 123.466 94.6927C123.466 94.0387 122.936 93.5085 122.282 93.5085H77.1842C76.5301 93.5085 76 94.0387 76 94.6927V111.605C76 112.259 76.5303 112.789 77.1842 112.789H122.879V114.543C122.683 114.685 122.501 114.844 122.333 115.017H77.1842C76.5301 115.017 76 115.547 76 116.201V133.113C76 133.767 76.5303 134.297 77.1842 134.297H118.374C117.373 135.673 116.625 137.527 116.625 139.926V145.814C116.625 146.468 117.155 147 117.809 147H122.282C122.937 147 123.467 146.47 123.467 145.815C123.467 145.161 122.937 144.631 122.282 144.631H118.993V139.926C118.993 135.001 122.869 133.588 123.027 133.533C123.045 133.527 123.063 133.52 123.081 133.513L129.564 130.974C129.593 131.011 129.624 131.046 129.659 131.08L133.059 134.392C133.281 134.607 133.577 134.728 133.885 134.728C133.892 134.728 133.898 134.728 133.904 134.727C134.219 134.723 134.519 134.592 134.738 134.365L138.064 130.915L144.534 133.51C144.551 133.516 144.574 133.525 144.591 133.531C144.756 133.588 148.631 135.002 148.631 139.926V144.632H138.892H130.485H128.732H127.261H126.071C125.417 144.632 124.887 145.162 124.887 145.816C124.887 146.47 125.417 147 126.071 147H127.261H128.732H130.485H138.892H149.816C150.47 147 151 146.458 151 145.804V139.926C151 134.626 147.349 131.975 145.386 131.3ZM142.746 116.142C143.593 116.298 144.237 117.04 144.237 117.93C144.237 118.821 143.593 119.563 142.746 119.719V116.142ZM125.247 111.411C125.247 106.864 128.946 103.165 133.493 103.165H134.279C138.826 103.165 142.525 106.864 142.525 111.411V113.345C142.523 113.343 142.521 113.341 142.52 113.338C142.509 113.323 142.498 113.308 142.486 113.294C142.475 113.28 142.464 113.266 142.452 113.253C142.438 113.237 142.424 113.222 142.41 113.207C142.399 113.195 142.387 113.184 142.375 113.173C142.359 113.158 142.343 113.143 142.326 113.128C142.314 113.118 142.302 113.109 142.289 113.099C142.272 113.085 142.254 113.072 142.235 113.059C142.222 113.049 142.208 113.041 142.194 113.032C142.176 113.021 142.158 113.009 142.139 112.999C142.123 112.989 142.105 112.981 142.089 112.973C142.072 112.964 142.055 112.956 142.038 112.948C142.017 112.939 141.996 112.931 141.975 112.923C141.96 112.918 141.945 112.912 141.93 112.907C141.906 112.899 141.881 112.893 141.857 112.887C141.846 112.884 141.835 112.88 141.824 112.877C139.247 112.291 138.441 108.959 138.434 108.93C138.331 108.476 137.972 108.124 137.516 108.031C137.06 107.937 136.592 108.12 136.319 108.497C133.203 112.805 126.346 112.848 126.251 112.848C126.251 112.848 126.25 112.848 126.25 112.848C126.249 112.848 126.247 112.848 126.246 112.848C126.205 112.848 126.165 112.85 126.125 112.854C126.113 112.855 126.101 112.858 126.088 112.86C126.061 112.863 126.034 112.866 126.008 112.872C125.991 112.875 125.974 112.881 125.958 112.885C125.937 112.89 125.915 112.894 125.894 112.901C125.875 112.907 125.857 112.915 125.838 112.922C125.821 112.928 125.803 112.933 125.786 112.94C125.764 112.95 125.744 112.96 125.723 112.971C125.71 112.977 125.696 112.983 125.683 112.99C125.661 113.002 125.642 113.015 125.621 113.027C125.609 113.035 125.597 113.041 125.585 113.049C125.566 113.062 125.548 113.076 125.53 113.09C125.518 113.099 125.505 113.108 125.494 113.117C125.477 113.131 125.462 113.146 125.446 113.16C125.434 113.171 125.421 113.182 125.41 113.193C125.395 113.208 125.382 113.223 125.368 113.239C125.356 113.252 125.344 113.264 125.333 113.277C125.321 113.292 125.31 113.308 125.298 113.324C125.287 113.339 125.275 113.353 125.265 113.368C125.258 113.378 125.253 113.388 125.247 113.398V111.411H125.247ZM125.062 116.134V119.727C124.189 119.593 123.518 118.84 123.518 117.931C123.518 117.021 124.189 116.268 125.062 116.134ZM129.301 128.534L122.243 131.298C121.85 131.433 121.389 131.649 120.903 131.947C120.838 131.936 120.772 131.929 120.704 131.929H78.3684V117.385H121.186C121.163 117.564 121.149 117.746 121.149 117.93C121.149 120.24 123.028 122.118 125.338 122.118C125.348 122.118 125.358 122.117 125.369 122.117C125.968 124.232 127.405 126 129.301 127.03V128.534ZM136.138 129.361C136.138 129.362 136.138 129.364 136.138 129.365V129.499L133.859 131.865L131.669 129.732V127.869C132.151 127.959 132.647 128.008 133.155 128.008H134.653C135.161 128.008 135.657 127.959 136.138 127.869V129.361ZM134.654 125.64H133.155C129.998 125.64 127.43 123.072 127.43 119.915V115.156C129.497 114.978 133.801 114.268 136.869 111.428C137.496 112.667 138.587 114.16 140.377 114.893V119.916C140.377 123.072 137.81 125.64 134.654 125.64Z" fill="#EF8B54"/>
<path d="M88.098 78.9003C88.752 78.9003 89.2822 78.3704 89.2822 77.7162C89.2822 77.062 88.7519 76.532 88.098 76.532H82.1249C81.4709 76.532 80.9408 77.062 80.9408 77.7162V85.5649C80.9408 86.2191 81.471 86.7491 82.1249 86.7491H90.359C91.013 86.7491 91.5432 86.219 91.5432 85.5649V83.4472C91.5432 82.793 91.0129 82.263 90.359 82.263C89.7049 82.263 89.1748 82.7932 89.1748 83.4472V84.3805H83.3091V78.9003H88.098Z" fill="#EF8B54"/>
<path d="M92.6737 76.8544C92.1976 76.4058 91.4482 76.4281 90.9996 76.904L87.0661 81.0776L85.8501 79.7531C85.4079 79.2711 84.6586 79.2394 84.177 79.6815C83.6952 80.1239 83.6633 80.873 84.1054 81.3546L86.1822 83.6171C86.4047 83.8595 86.7179 83.9984 87.0469 84.0006C87.0495 84.0006 87.0522 84.0006 87.0547 84.0006C87.3807 84.0006 87.6926 83.8661 87.9164 83.6287L92.723 78.5284C93.1717 78.0524 93.1494 77.3027 92.6737 76.8544Z" fill="#EF8B54"/>
<path d="M88.098 100.408C88.752 100.408 89.2822 99.8784 89.2822 99.2242C89.2822 98.57 88.7519 98.04 88.098 98.04H82.1249C81.4709 98.04 80.9408 98.57 80.9408 99.2242V107.073C80.9408 107.727 81.471 108.257 82.1249 108.257H90.359C91.013 108.257 91.5432 107.727 91.5432 107.073V104.955C91.5432 104.301 91.0129 103.771 90.359 103.771C89.7049 103.771 89.1748 104.301 89.1748 104.955V105.889H83.3091V100.408H88.098V100.408Z" fill="#EF8B54"/>
<path d="M92.6737 98.3624C92.1976 97.9139 91.4482 97.9361 90.9996 98.4122L87.0661 102.586L85.8501 101.261C85.4079 100.779 84.6586 100.748 84.177 101.19C83.6952 101.632 83.6633 102.381 84.1054 102.863L86.1824 105.125C86.4049 105.368 86.718 105.507 87.0471 105.509C87.0497 105.509 87.0523 105.509 87.0548 105.509C87.3809 105.509 87.6928 105.374 87.9166 105.137L92.7232 100.037C93.1717 99.5606 93.1494 98.8111 92.6737 98.3624Z" fill="#EF8B54"/>
<path d="M90.359 125.28C89.7049 125.28 89.1748 125.81 89.1748 126.464V127.397H83.3091V121.917H88.0981C88.7522 121.917 89.2823 121.386 89.2823 120.733C89.2823 120.078 88.752 119.548 88.0981 119.548H82.1249C81.4709 119.548 80.9408 120.078 80.9408 120.733V128.581C80.9408 129.236 81.471 129.765 82.1249 129.765H90.359C91.013 129.765 91.5432 129.236 91.5432 128.581V126.464C91.5432 125.81 91.0129 125.28 90.359 125.28Z" fill="#EF8B54"/>
<path d="M90.9996 119.921L87.0661 124.094L85.8501 122.77C85.4079 122.288 84.6586 122.256 84.177 122.698C83.6952 123.141 83.6633 123.89 84.1054 124.371L86.1824 126.634C86.4049 126.876 86.718 127.015 87.0471 127.017C87.0497 127.017 87.0523 127.017 87.0548 127.017C87.3809 127.017 87.6928 126.883 87.9166 126.645L92.7232 121.545C93.1717 121.069 93.1494 120.32 92.6737 119.871C92.1976 119.422 91.4482 119.445 90.9996 119.921Z" fill="#EF8B54"/>
<path d="M77.1842 91.281H129.763C130.417 91.281 130.947 90.751 130.947 90.0968V73.1842C130.947 72.53 130.417 72 129.763 72H126.246C125.592 72 125.062 72.5301 125.062 73.1842C125.062 73.8382 125.592 74.3684 126.246 74.3684H128.579V88.9124H78.3684V74.3684H122.282C122.936 74.3684 123.466 73.8382 123.466 73.1842C123.466 72.5301 122.936 72 122.282 72H77.1842C76.5303 72 76 72.5303 76 73.1842V90.0967C76 90.7507 76.5303 91.281 77.1842 91.281Z" fill="#EF8B54"/>
<defs>
<filter id="filter0_d" x="0" y="0" width="220" height="220" filterUnits="userSpaceOnUse" color-interpolation-filters="sRGB">
<feFlood flood-opacity="0" result="BackgroundImageFix"/>
<feColorMatrix in="SourceAlpha" type="matrix" values="0 0 0 0 0 0 0 0 0 0 0 0 0 0 0 0 0 0 127 0"/>
<feOffset dx="2" dy="5"/>
<feGaussianBlur stdDeviation="10"/>
<feColorMatrix type="matrix" values="0 0 0 0 0 0 0 0 0 0 0 0 0 0 0 0 0 0 0.2 0"/>
<feBlend mode="normal" in2="BackgroundImageFix" result="effect1_dropShadow"/>
<feBlend mode="normal" in="SourceGraphic" in2="effect1_dropShadow" result="shape"/>
</filter>
</defs>
</svg>
