<svg width="107" height="107" viewBox="0 0 107 107" fill="none" xmlns="http://www.w3.org/2000/svg">
<path fill-rule="evenodd" clip-rule="evenodd" d="M57.6906 66.9401L86.9983 82.6972C92.0386 85.4054 98.3193 83.5184 101.028 78.4781C103.737 73.4418 101.85 67.161 96.81 64.4527L67.5008 48.6949L83.1065 19.6711C85.8161 14.6348 83.9291 8.354 78.8875 5.6418C73.8473 2.93351 67.5678 4.82441 64.8582 9.86074L49.2527 38.884L20.4977 23.4241C15.4575 20.7158 9.17666 22.6028 6.46838 27.643C3.75878 32.6793 5.64577 38.9601 10.686 41.6684L39.4426 57.1291L23.8281 86.1691C21.1185 91.2054 23.0108 97.4888 28.0471 100.198C33.0873 102.907 39.3668 101.016 42.0764 95.9794L57.6906 66.9401Z" fill="#1E1E1F"/>
</svg>
