<svg width="154" height="9" viewBox="0 0 154 9" fill="none" xmlns="http://www.w3.org/2000/svg">
<path d="M7.30423 0.737171L9.19912 6.70497L11.094 0.737171H12.3736L9.80897 8.54541H8.58383L6.68894 2.6375L4.79405 8.54541H3.56347L0.998837 0.737171H2.28387L4.17876 6.70497L6.07365 0.737171H7.30423ZM18.398 7.42917H22.8031V8.54541H17.1729V0.737171H22.6942V1.85341H18.398V3.9171H21.8012V5.03334H18.398V7.42917ZM31.1689 8.54541H27.8256V0.737171H31.0001C31.6317 0.737171 32.1708 0.945899 32.6173 1.36335C33.0638 1.78081 33.287 2.25998 33.287 2.80085C33.287 3.11304 33.2217 3.39981 33.091 3.66118C32.964 3.92254 32.8369 4.10404 32.7099 4.20568L32.5084 4.36359C32.5374 4.37811 32.5774 4.40352 32.6282 4.43982C32.6826 4.47249 32.7788 4.54691 32.9168 4.66307C33.0547 4.7756 33.1727 4.90084 33.2707 5.03878C33.3724 5.17672 33.4649 5.35641 33.5484 5.57784C33.6355 5.79565 33.6791 6.02252 33.6791 6.25848C33.6791 6.88285 33.4395 7.42009 32.9603 7.87022C32.4812 8.32035 31.884 8.54541 31.1689 8.54541ZM29.0508 7.48362H31.1689C31.5319 7.48362 31.8368 7.36201 32.0837 7.1188C32.3305 6.87196 32.454 6.56703 32.454 6.20403C32.454 5.84102 32.3305 5.5361 32.0837 5.28925C31.8405 5.04241 31.5355 4.91899 31.1689 4.91899H29.0508V7.48362ZM31.0001 1.79896H29.0508V3.9171H31.0001C31.305 3.9171 31.5573 3.81727 31.757 3.61762C31.9603 3.41433 32.0619 3.16204 32.0619 2.86075C32.0619 2.55583 31.9603 2.30354 31.757 2.10389C31.5573 1.9006 31.305 1.79896 31.0001 1.79896ZM43.49 8.54541L46.7244 0.737171H47.9496L51.1839 8.54541H49.9043L49.0658 6.48173H45.6082L44.7696 8.54541H43.49ZM47.3397 2.13111L46.0547 5.36549H48.6193L47.3397 2.13111ZM60.8892 8.54541H55.8743V0.737171H57.0995V7.42917H60.8892V8.54541ZM64.1203 0.737171H70.0282V1.85341H67.6869V8.54541H66.4617V1.85341H64.1203V0.737171ZM75.9438 7.42917H80.3488V8.54541H74.7186V0.737171H80.2399V1.85341H75.9438V3.9171H79.3469V5.03334H75.9438V7.42917ZM85.3714 8.54541V0.737171H88.6602C89.3826 0.737171 89.9815 0.967679 90.4571 1.4287C90.9326 1.88971 91.1704 2.45963 91.1704 3.13845C91.1704 3.45789 91.1159 3.75737 91.007 4.03689C90.8981 4.31277 90.7675 4.53057 90.615 4.6903C90.4625 4.85002 90.3101 4.98978 90.1576 5.10957C90.0051 5.22936 89.8745 5.31103 89.7656 5.3546L89.6077 5.42538L91.3936 8.54541H90.0541L88.3825 5.53428H86.5965V8.54541H85.3714ZM89.5695 4.05322C89.8164 3.80638 89.9398 3.50145 89.9398 3.13845C89.9398 2.77181 89.8164 2.46689 89.5695 2.22368C89.3263 1.97683 89.0232 1.85341 88.6602 1.85341H86.5965V4.41804H88.6602C89.0232 4.41804 89.3263 4.29644 89.5695 4.05322ZM101.932 0.737171H103.157V8.54541H102.101L97.7502 2.9152V8.54541H96.5251V0.737171H97.5814L101.932 6.37282V0.737171ZM107.842 8.54541L111.076 0.737171H112.302L115.536 8.54541H114.256L113.418 6.48173H109.96L109.122 8.54541H107.842ZM111.692 2.13111L110.407 5.36549H112.971L111.692 2.13111ZM118.658 0.737171H124.566V1.85341H122.225V8.54541H121V1.85341H118.658V0.737171ZM129.257 8.54541V0.737171H130.482V8.54541H129.257ZM138.341 8.54541L135.27 0.737171H136.555L138.951 6.98267L141.352 0.737171H142.632L139.566 8.54541H138.341ZM148.651 7.42917H153.056V8.54541H147.426V0.737171H152.947V1.85341H148.651V3.9171H152.054V5.03334H148.651V7.42917Z" fill="white"/>
<path d="M7.30423 0.737171L7.37066 0.716079L7.35523 0.667474H7.30423V0.737171ZM9.19912 6.70497L9.13269 6.72607L9.19912 6.93528L9.26555 6.72607L9.19912 6.70497ZM11.094 0.737171V0.667474H11.043L11.0276 0.716079L11.094 0.737171ZM12.3736 0.737171L12.4398 0.75892L12.4699 0.667474H12.3736V0.737171ZM9.80897 8.54541V8.61511H9.85944L9.87519 8.56716L9.80897 8.54541ZM8.58383 8.54541L8.51746 8.5667L8.53299 8.61511H8.58383V8.54541ZM6.68894 2.6375L6.75531 2.61622L6.68894 2.4093L6.62257 2.61622L6.68894 2.6375ZM4.79405 8.54541V8.61511H4.84489L4.86042 8.5667L4.79405 8.54541ZM3.56347 8.54541L3.49725 8.56716L3.513 8.61511H3.56347V8.54541ZM0.998837 0.737171V0.667474H0.902584L0.93262 0.75892L0.998837 0.737171ZM2.28387 0.737171L2.3503 0.716079L2.33487 0.667474H2.28387V0.737171ZM4.17876 6.70497L4.11233 6.72607L4.17876 6.93528L4.24519 6.72607L4.17876 6.70497ZM6.07365 0.737171V0.667474H6.02265L6.00722 0.716079L6.07365 0.737171ZM7.23781 0.758263L9.13269 6.72607L9.26555 6.68388L7.37066 0.716079L7.23781 0.758263ZM9.26555 6.72607L11.1604 0.758263L11.0276 0.716079L9.13269 6.68388L9.26555 6.72607ZM11.094 0.806868H12.3736V0.667474H11.094V0.806868ZM12.3074 0.715422L9.74275 8.52366L9.87519 8.56716L12.4398 0.75892L12.3074 0.715422ZM9.80897 8.47571H8.58383V8.61511H9.80897V8.47571ZM8.65019 8.52412L6.75531 2.61622L6.62257 2.65879L8.51746 8.5667L8.65019 8.52412ZM6.62257 2.61622L4.72769 8.52412L4.86042 8.5667L6.75531 2.65879L6.62257 2.61622ZM4.79405 8.47571H3.56347V8.61511H4.79405V8.47571ZM3.62968 8.52366L1.06505 0.715422L0.93262 0.75892L3.49725 8.56716L3.62968 8.52366ZM0.998837 0.806868H2.28387V0.667474H0.998837V0.806868ZM2.21745 0.758263L4.11233 6.72607L4.24519 6.68388L2.3503 0.716079L2.21745 0.758263ZM4.24519 6.72607L6.14008 0.758263L6.00722 0.716079L4.11233 6.68388L4.24519 6.72607ZM6.07365 0.806868H7.30423V0.667474H6.07365V0.806868ZM18.398 7.42917H18.3283V7.49887H18.398V7.42917ZM22.8031 7.42917H22.8728V7.35947H22.8031V7.42917ZM22.8031 8.54541V8.61511H22.8728V8.54541H22.8031ZM17.1729 8.54541H17.1032V8.61511H17.1729V8.54541ZM17.1729 0.737171V0.667474H17.1032V0.737171H17.1729ZM22.6942 0.737171H22.7639V0.667474H22.6942V0.737171ZM22.6942 1.85341V1.92311H22.7639V1.85341H22.6942ZM18.398 1.85341V1.78371H18.3283V1.85341H18.398ZM18.398 3.9171H18.3283V3.98679H18.398V3.9171ZM21.8012 3.9171H21.8709V3.8474H21.8012V3.9171ZM21.8012 5.03334V5.10303H21.8709V5.03334H21.8012ZM18.398 5.03334V4.96364H18.3283V5.03334H18.398ZM18.398 7.49887H22.8031V7.35947H18.398V7.49887ZM22.7334 7.42917V8.54541H22.8728V7.42917H22.7334ZM22.8031 8.47571H17.1729V8.61511H22.8031V8.47571ZM17.2426 8.54541V0.737171H17.1032V8.54541H17.2426ZM17.1729 0.806868H22.6942V0.667474H17.1729V0.806868ZM22.6245 0.737171V1.85341H22.7639V0.737171H22.6245ZM22.6942 1.78371H18.398V1.92311H22.6942V1.78371ZM18.3283 1.85341V3.9171H18.4677V1.85341H18.3283ZM18.398 3.98679H21.8012V3.8474H18.398V3.98679ZM21.7315 3.9171V5.03334H21.8709V3.9171H21.7315ZM21.8012 4.96364H18.398V5.10303H21.8012V4.96364ZM18.3283 5.03334V7.42917H18.4677V5.03334H18.3283ZM27.8256 8.54541H27.7559V8.61511H27.8256V8.54541ZM27.8256 0.737171V0.667474H27.7559V0.737171H27.8256ZM33.091 3.66118L33.0287 3.63001L33.0283 3.63071L33.091 3.66118ZM32.7099 4.20568L32.7529 4.26054L32.7534 4.26011L32.7099 4.20568ZM32.5084 4.36359L32.4654 4.30874L32.3787 4.37668L32.4772 4.42593L32.5084 4.36359ZM32.6282 4.43982L32.5876 4.49672L32.5923 4.49959L32.6282 4.43982ZM32.9168 4.66307L32.8719 4.71639L32.8727 4.71708L32.9168 4.66307ZM33.2707 5.03878L33.2139 5.07916L33.2146 5.08013L33.2707 5.03878ZM33.5484 5.57784L33.4832 5.60244L33.4837 5.60373L33.5484 5.57784ZM29.0508 7.48362H28.9811V7.55332H29.0508V7.48362ZM32.0837 7.1188L32.1326 7.16845L32.133 7.16808L32.0837 7.1188ZM32.0837 5.28925L32.034 5.33817L32.0344 5.33854L32.0837 5.28925ZM29.0508 4.91899V4.84929H28.9811V4.91899H29.0508ZM29.0508 1.79896V1.72926H28.9811V1.79896H29.0508ZM29.0508 3.9171H28.9811V3.98679H29.0508V3.9171ZM31.757 2.10389L31.7072 2.15273L31.7081 2.15361L31.757 2.10389ZM31.1689 8.47571H27.8256V8.61511H31.1689V8.47571ZM27.8953 8.54541V0.737171H27.7559V8.54541H27.8953ZM27.8256 0.806868H31.0001V0.667474H27.8256V0.806868ZM31.0001 0.806868C31.6147 0.806868 32.1366 1.00932 32.5697 1.41427L32.6649 1.31244C32.205 0.882479 31.6488 0.667474 31.0001 0.667474V0.806868ZM32.5697 1.41427C33.0041 1.82043 33.2174 2.28188 33.2174 2.80085H33.3567C33.3567 2.23808 33.1235 1.74119 32.6649 1.31244L32.5697 1.41427ZM33.2174 2.80085C33.2174 3.10298 33.1542 3.37898 33.0287 3.63001L33.1534 3.69235C33.2892 3.42065 33.3567 3.1231 33.3567 2.80085H33.2174ZM33.0283 3.63071C32.9028 3.88897 32.7812 4.05933 32.6663 4.15126L32.7534 4.26011C32.8926 4.14876 33.0252 3.95611 33.1537 3.69165L33.0283 3.63071ZM32.6669 4.15083L32.4654 4.30874L32.5514 4.41845L32.7529 4.26054L32.6669 4.15083ZM32.4772 4.42593C32.5013 4.43795 32.5376 4.4608 32.5877 4.49654L32.6687 4.38311C32.6171 4.34625 32.5736 4.31827 32.5396 4.30125L32.4772 4.42593ZM32.5923 4.49959C32.6413 4.52895 32.7334 4.59976 32.8719 4.71638L32.9617 4.60976C32.8243 4.49406 32.724 4.41603 32.6641 4.38006L32.5923 4.49959ZM32.8727 4.71708C33.0061 4.82586 33.1197 4.94656 33.2139 5.07915L33.3275 4.99841C33.2257 4.85511 33.1034 4.72534 32.9608 4.60907L32.8727 4.71708ZM33.2146 5.08013C33.3113 5.21139 33.4012 5.38488 33.4832 5.60243L33.6136 5.55325C33.5287 5.32794 33.4334 5.14206 33.3268 4.99744L33.2146 5.08013ZM33.4837 5.60373C33.5675 5.81325 33.6094 6.03134 33.6094 6.25848H33.7488C33.7488 6.01371 33.7036 5.77804 33.6131 5.55196L33.4837 5.60373ZM33.6094 6.25848C33.6094 6.86249 33.3786 7.38169 32.9126 7.81942L33.0081 7.92102C33.5004 7.4585 33.7488 6.9032 33.7488 6.25848H33.6094ZM32.9126 7.81942C32.4476 8.25629 31.868 8.47571 31.1689 8.47571V8.61511C31.9001 8.61511 32.5148 8.3844 33.0081 7.92102L32.9126 7.81942ZM29.0508 7.55332H31.1689V7.41392H29.0508V7.55332ZM31.1689 7.55332C31.5493 7.55332 31.872 7.42517 32.1326 7.16845L32.0348 7.06915C31.8016 7.29886 31.5146 7.41392 31.1689 7.41392V7.55332ZM32.133 7.16808C32.3935 6.9076 32.5236 6.58469 32.5236 6.20403H32.3843C32.3843 6.54937 32.2676 6.83631 32.0344 7.06952L32.133 7.16808ZM32.5236 6.20403C32.5236 5.82336 32.3935 5.50046 32.133 5.23997L32.0344 5.33854C32.2676 5.57174 32.3843 5.85868 32.3843 6.20403H32.5236ZM32.1333 5.24034C31.8762 4.97936 31.553 4.84929 31.1689 4.84929V4.98869C31.5181 4.98869 31.8047 5.10546 32.034 5.33817L32.1333 5.24034ZM31.1689 4.84929H29.0508V4.98869H31.1689V4.84929ZM28.9811 4.91899V7.48362H29.1205V4.91899H28.9811ZM31.0001 1.72926H29.0508V1.86866H31.0001V1.72926ZM28.9811 1.79896V3.9171H29.1205V1.79896H28.9811ZM29.0508 3.98679H31.0001V3.8474H29.0508V3.98679ZM31.0001 3.98679C31.3219 3.98679 31.5924 3.88073 31.8063 3.6669L31.7077 3.56833C31.5222 3.7538 31.2882 3.8474 31.0001 3.8474V3.98679ZM31.8063 3.6669C32.0233 3.44986 32.1316 3.17954 32.1316 2.86075H31.9922C31.9922 3.14455 31.8972 3.3788 31.7077 3.56833L31.8063 3.6669ZM32.1316 2.86075C32.1316 2.53858 32.0235 2.2679 31.8058 2.05416L31.7081 2.15361C31.8971 2.33917 31.9922 2.57307 31.9922 2.86075H32.1316ZM31.8067 2.05505C31.593 1.83742 31.3223 1.72926 31.0001 1.72926V1.86866C31.2878 1.86866 31.5217 1.96379 31.7073 2.15272L31.8067 2.05505ZM43.49 8.54541L43.4256 8.51874L43.3857 8.61511H43.49V8.54541ZM46.7244 0.737171V0.667474H46.6778L46.66 0.710498L46.7244 0.737171ZM47.9496 0.737171L48.0139 0.710498L47.9961 0.667474H47.9496V0.737171ZM51.1839 8.54541V8.61511H51.2882L51.2483 8.51874L51.1839 8.54541ZM49.9043 8.54541L49.8398 8.57165L49.8574 8.61511H49.9043V8.54541ZM49.0658 6.48173L49.1304 6.45549L49.1127 6.41203H49.0658V6.48173ZM45.6082 6.48173V6.41203H45.5613L45.5436 6.45549L45.6082 6.48173ZM44.7696 8.54541V8.61511H44.8165L44.8342 8.57165L44.7696 8.54541ZM47.3397 2.13111L47.4045 2.10547L47.3398 1.942L47.2749 2.10538L47.3397 2.13111ZM46.0547 5.36549L45.9899 5.33975L45.952 5.43518H46.0547V5.36549ZM48.6193 5.36549V5.43518H48.7218L48.6841 5.33985L48.6193 5.36549ZM43.5544 8.57208L46.7888 0.763844L46.66 0.710498L43.4256 8.51874L43.5544 8.57208ZM46.7244 0.806868H47.9496V0.667474H46.7244V0.806868ZM47.8852 0.763844L51.1195 8.57208L51.2483 8.51874L48.0139 0.710498L47.8852 0.763844ZM51.1839 8.47571H49.9043V8.61511H51.1839V8.47571ZM49.9689 8.51917L49.1304 6.45549L49.0012 6.50796L49.8398 8.57165L49.9689 8.51917ZM49.0658 6.41203H45.6082V6.55142H49.0658V6.41203ZM45.5436 6.45549L44.7051 8.51917L44.8342 8.57165L45.6727 6.50796L45.5436 6.45549ZM44.7696 8.47571H43.49V8.61511H44.7696V8.47571ZM47.2749 2.10538L45.9899 5.33975L46.1194 5.39122L47.4045 2.15684L47.2749 2.10538ZM46.0547 5.43518H48.6193V5.29579H46.0547V5.43518ZM48.6841 5.33985L47.4045 2.10547L47.2749 2.15675L48.5545 5.39113L48.6841 5.33985ZM60.8892 8.54541V8.61511H60.9589V8.54541H60.8892ZM55.8743 8.54541H55.8046V8.61511H55.8743V8.54541ZM55.8743 0.737171V0.667474H55.8046V0.737171H55.8743ZM57.0995 0.737171H57.1692V0.667474H57.0995V0.737171ZM57.0995 7.42917H57.0298V7.49887H57.0995V7.42917ZM60.8892 7.42917H60.9589V7.35947H60.8892V7.42917ZM60.8892 8.47571H55.8743V8.61511H60.8892V8.47571ZM55.944 8.54541V0.737171H55.8046V8.54541H55.944ZM55.8743 0.806868H57.0995V0.667474H55.8743V0.806868ZM57.0298 0.737171V7.42917H57.1692V0.737171H57.0298ZM57.0995 7.49887H60.8892V7.35947H57.0995V7.49887ZM60.8195 7.42917V8.54541H60.9589V7.42917H60.8195ZM64.1203 0.737171V0.667474H64.0506V0.737171H64.1203ZM70.0282 0.737171H70.0979V0.667474H70.0282V0.737171ZM70.0282 1.85341V1.92311H70.0979V1.85341H70.0282ZM67.6869 1.85341V1.78371H67.6172V1.85341H67.6869ZM67.6869 8.54541V8.61511H67.7566V8.54541H67.6869ZM66.4617 8.54541H66.392V8.61511H66.4617V8.54541ZM66.4617 1.85341H66.5314V1.78371H66.4617V1.85341ZM64.1203 1.85341H64.0506V1.92311H64.1203V1.85341ZM64.1203 0.806868H70.0282V0.667474H64.1203V0.806868ZM69.9585 0.737171V1.85341H70.0979V0.737171H69.9585ZM70.0282 1.78371H67.6869V1.92311H70.0282V1.78371ZM67.6172 1.85341V8.54541H67.7566V1.85341H67.6172ZM67.6869 8.47571H66.4617V8.61511H67.6869V8.47571ZM66.5314 8.54541V1.85341H66.392V8.54541H66.5314ZM66.4617 1.78371H64.1203V1.92311H66.4617V1.78371ZM64.19 1.85341V0.737171H64.0506V1.85341H64.19ZM75.9438 7.42917H75.8741V7.49887H75.9438V7.42917ZM80.3488 7.42917H80.4185V7.35947H80.3488V7.42917ZM80.3488 8.54541V8.61511H80.4185V8.54541H80.3488ZM74.7186 8.54541H74.6489V8.61511H74.7186V8.54541ZM74.7186 0.737171V0.667474H74.6489V0.737171H74.7186ZM80.2399 0.737171H80.3096V0.667474H80.2399V0.737171ZM80.2399 1.85341V1.92311H80.3096V1.85341H80.2399ZM75.9438 1.85341V1.78371H75.8741V1.85341H75.9438ZM75.9438 3.9171H75.8741V3.98679H75.9438V3.9171ZM79.3469 3.9171H79.4166V3.8474H79.3469V3.9171ZM79.3469 5.03334V5.10303H79.4166V5.03334H79.3469ZM75.9438 5.03334V4.96364H75.8741V5.03334H75.9438ZM75.9438 7.49887H80.3488V7.35947H75.9438V7.49887ZM80.2791 7.42917V8.54541H80.4185V7.42917H80.2791ZM80.3488 8.47571H74.7186V8.61511H80.3488V8.47571ZM74.7883 8.54541V0.737171H74.6489V8.54541H74.7883ZM74.7186 0.806868H80.2399V0.667474H74.7186V0.806868ZM80.1702 0.737171V1.85341H80.3096V0.737171H80.1702ZM80.2399 1.78371H75.9438V1.92311H80.2399V1.78371ZM75.8741 1.85341V3.9171H76.0135V1.85341H75.8741ZM75.9438 3.98679H79.3469V3.8474H75.9438V3.98679ZM79.2773 3.9171V5.03334H79.4166V3.9171H79.2773ZM79.3469 4.96364H75.9438V5.10303H79.3469V4.96364ZM75.8741 5.03334V7.42917H76.0135V5.03334H75.8741ZM85.3714 8.54541H85.3017V8.61511H85.3714V8.54541ZM85.3714 0.737171V0.667474H85.3017V0.737171H85.3714ZM91.007 4.03689L91.0719 4.06248L91.072 4.06219L91.007 4.03689ZM89.7656 5.3546L89.7397 5.28983L89.7371 5.291L89.7656 5.3546ZM89.6077 5.42538L89.5791 5.36178L89.5089 5.39325L89.5472 5.46001L89.6077 5.42538ZM91.3936 8.54541V8.61511H91.5138L91.4541 8.51079L91.3936 8.54541ZM90.0541 8.54541L89.9932 8.57924L90.0131 8.61511H90.0541V8.54541ZM88.3825 5.53428L88.4434 5.50045L88.4235 5.46459H88.3825V5.53428ZM86.5965 5.53428V5.46459H86.5268V5.53428H86.5965ZM86.5965 8.54541V8.61511H86.6662V8.54541H86.5965ZM89.5695 2.22368L89.5199 2.2726L89.5206 2.27332L89.5695 2.22368ZM86.5965 1.85341V1.78371H86.5268V1.85341H86.5965ZM86.5965 4.41804H86.5268V4.48774H86.5965V4.41804ZM85.4411 8.54541V0.737171H85.3017V8.54541H85.4411ZM85.3714 0.806868H88.6602V0.667474H85.3714V0.806868ZM88.6602 0.806868C89.3663 0.806868 89.9473 1.03153 90.4086 1.47874L90.5056 1.37865C90.0158 0.903832 89.3989 0.667474 88.6602 0.667474V0.806868ZM90.4086 1.47874C90.8702 1.92626 91.1007 2.47796 91.1007 3.13845H91.2401C91.2401 2.4413 90.995 1.85316 90.5056 1.37865L90.4086 1.47874ZM91.1007 3.13845C91.1007 3.44981 91.0477 3.74065 90.9421 4.01159L91.072 4.06219C91.1842 3.7741 91.2401 3.46598 91.2401 3.13845H91.1007ZM90.9422 4.0113C90.8355 4.28152 90.7091 4.49078 90.5646 4.64217L90.6654 4.73842C90.8258 4.57037 90.9607 4.34403 91.0719 4.06248L90.9422 4.0113ZM90.5646 4.64217C90.4141 4.79982 90.2641 4.93728 90.1145 5.05476L90.2007 5.16437C90.3561 5.04227 90.511 4.90022 90.6654 4.73842L90.5646 4.64217ZM90.1145 5.05476C89.9644 5.17275 89.8397 5.24987 89.7397 5.28988L89.7914 5.41931C89.9092 5.3722 90.0459 5.28596 90.2007 5.16437L90.1145 5.05476ZM89.7371 5.291L89.5791 5.36178L89.6362 5.48898L89.7941 5.41819L89.7371 5.291ZM89.5472 5.46001L91.3332 8.58004L91.4541 8.51079L89.6681 5.39076L89.5472 5.46001ZM91.3936 8.47571H90.0541V8.61511H91.3936V8.47571ZM90.1151 8.51158L88.4434 5.50045L88.3216 5.56811L89.9932 8.57924L90.1151 8.51158ZM88.3825 5.46459H86.5965V5.60398H88.3825V5.46459ZM86.5268 5.53428V8.54541H86.6662V5.53428H86.5268ZM86.5965 8.47571H85.3714V8.61511H86.5965V8.47571ZM89.6188 4.10251C89.8793 3.84202 90.0095 3.51912 90.0095 3.13845H89.8701C89.8701 3.48379 89.7535 3.77074 89.5203 4.00394L89.6188 4.10251ZM90.0095 3.13845C90.0095 2.75436 89.8794 2.43116 89.6185 2.17403L89.5206 2.27332C89.7533 2.50262 89.8701 2.78927 89.8701 3.13845H90.0095ZM89.6192 2.17476C89.3622 1.91393 89.0409 1.78371 88.6602 1.78371V1.92311C89.0055 1.92311 89.2905 2.03973 89.5199 2.27259L89.6192 2.17476ZM88.6602 1.78371H86.5965V1.92311H88.6602V1.78371ZM86.5268 1.85341V4.41804H86.6662V1.85341H86.5268ZM86.5965 4.48774H88.6602V4.34835H86.5965V4.48774ZM88.6602 4.48774C89.0406 4.48774 89.3618 4.35957 89.6188 4.10251L89.5203 4.00394C89.2909 4.2333 89.0059 4.34835 88.6602 4.34835V4.48774ZM101.932 0.737171V0.667474H101.862V0.737171H101.932ZM103.157 0.737171H103.227V0.667474H103.157V0.737171ZM103.157 8.54541V8.61511H103.227V8.54541H103.157ZM102.101 8.54541L102.046 8.58803L102.067 8.61511H102.101V8.54541ZM97.7502 2.9152L97.8054 2.87259L97.6805 2.71102V2.9152H97.7502ZM97.7502 8.54541V8.61511H97.8199V8.54541H97.7502ZM96.5251 8.54541H96.4554V8.61511H96.5251V8.54541ZM96.5251 0.737171V0.667474H96.4554V0.737171H96.5251ZM97.5814 0.737171L97.6366 0.694581L97.6157 0.667474H97.5814V0.737171ZM101.932 6.37282L101.877 6.41541L102.002 6.57716V6.37282H101.932ZM101.932 0.806868H103.157V0.667474H101.932V0.806868ZM103.087 0.737171V8.54541H103.227V0.737171H103.087ZM103.157 8.47571H102.101V8.61511H103.157V8.47571ZM102.156 8.50279L97.8054 2.87259L97.6951 2.95782L102.046 8.58803L102.156 8.50279ZM97.6805 2.9152V8.54541H97.8199V2.9152H97.6805ZM97.7502 8.47571H96.5251V8.61511H97.7502V8.47571ZM96.5948 8.54541V0.737171H96.4554V8.54541H96.5948ZM96.5251 0.806868H97.5814V0.667474H96.5251V0.806868ZM97.5262 0.779761L101.877 6.41541L101.987 6.33023L97.6366 0.694581L97.5262 0.779761ZM102.002 6.37282V0.737171H101.862V6.37282H102.002ZM107.842 8.54541L107.778 8.51874L107.738 8.61511H107.842V8.54541ZM111.076 0.737171V0.667474H111.03L111.012 0.710498L111.076 0.737171ZM112.302 0.737171L112.366 0.710498L112.348 0.667474H112.302V0.737171ZM115.536 8.54541V8.61511H115.64L115.6 8.51874L115.536 8.54541ZM114.256 8.54541L114.192 8.57165L114.21 8.61511H114.256V8.54541ZM113.418 6.48173L113.482 6.45549L113.465 6.41203H113.418V6.48173ZM109.96 6.48173V6.41203H109.913L109.896 6.45549L109.96 6.48173ZM109.122 8.54541V8.61511H109.169L109.186 8.57165L109.122 8.54541ZM111.692 2.13111L111.757 2.10547L111.692 1.942L111.627 2.10538L111.692 2.13111ZM110.407 5.36549L110.342 5.33975L110.304 5.43518H110.407V5.36549ZM112.971 5.36549V5.43518H113.074L113.036 5.33985L112.971 5.36549ZM107.907 8.57208L111.141 0.763844L111.012 0.710498L107.778 8.51874L107.907 8.57208ZM111.076 0.806868H112.302V0.667474H111.076V0.806868ZM112.237 0.763844L115.472 8.57208L115.6 8.51874L112.366 0.710498L112.237 0.763844ZM115.536 8.47571H114.256V8.61511H115.536V8.47571ZM114.321 8.51917L113.482 6.45549L113.353 6.50796L114.192 8.57165L114.321 8.51917ZM113.418 6.41203H109.96V6.55142H113.418V6.41203ZM109.896 6.45549L109.057 8.51917L109.186 8.57165L110.025 6.50796L109.896 6.45549ZM109.122 8.47571H107.842V8.61511H109.122V8.47571ZM111.627 2.10538L110.342 5.33975L110.472 5.39122L111.757 2.15684L111.627 2.10538ZM110.407 5.43518H112.971V5.29579H110.407V5.43518ZM113.036 5.33985L111.757 2.10547L111.627 2.15675L112.907 5.39113L113.036 5.33985ZM118.658 0.737171V0.667474H118.589V0.737171H118.658ZM124.566 0.737171H124.636V0.667474H124.566V0.737171ZM124.566 1.85341V1.92311H124.636V1.85341H124.566ZM122.225 1.85341V1.78371H122.155V1.85341H122.225ZM122.225 8.54541V8.61511H122.294V8.54541H122.225ZM121 8.54541H120.93V8.61511H121V8.54541ZM121 1.85341H121.069V1.78371H121V1.85341ZM118.658 1.85341H118.589V1.92311H118.658V1.85341ZM118.658 0.806868H124.566V0.667474H118.658V0.806868ZM124.496 0.737171V1.85341H124.636V0.737171H124.496ZM124.566 1.78371H122.225V1.92311H124.566V1.78371ZM122.155 1.85341V8.54541H122.294V1.85341H122.155ZM122.225 8.47571H121V8.61511H122.225V8.47571ZM121.069 8.54541V1.85341H120.93V8.54541H121.069ZM121 1.78371H118.658V1.92311H121V1.78371ZM118.728 1.85341V0.737171H118.589V1.85341H118.728ZM129.257 8.54541H129.187V8.61511H129.257V8.54541ZM129.257 0.737171V0.667474H129.187V0.737171H129.257ZM130.482 0.737171H130.551V0.667474H130.482V0.737171ZM130.482 8.54541V8.61511H130.551V8.54541H130.482ZM129.326 8.54541V0.737171H129.187V8.54541H129.326ZM129.257 0.806868H130.482V0.667474H129.257V0.806868ZM130.412 0.737171V8.54541H130.551V0.737171H130.412ZM130.482 8.47571H129.257V8.61511H130.482V8.47571ZM138.341 8.54541L138.276 8.57092L138.294 8.61511H138.341V8.54541ZM135.27 0.737171V0.667474H135.168L135.205 0.762681L135.27 0.737171ZM136.555 0.737171L136.62 0.712208L136.603 0.667474H136.555V0.737171ZM138.951 6.98267L138.886 7.00764L138.951 7.17708L139.016 7.00769L138.951 6.98267ZM141.352 0.737171V0.667474H141.304L141.287 0.712159L141.352 0.737171ZM142.632 0.737171L142.697 0.762642L142.734 0.667474H142.632V0.737171ZM139.566 8.54541V8.61511H139.614L139.631 8.57088L139.566 8.54541ZM138.406 8.5199L135.335 0.711661L135.205 0.762681L138.276 8.57092L138.406 8.5199ZM135.27 0.806868H136.555V0.667474H135.27V0.806868ZM136.49 0.762134L138.886 7.00764L139.016 6.95771L136.62 0.712208L136.49 0.762134ZM139.016 7.00769L141.417 0.762183L141.287 0.712159L138.886 6.95766L139.016 7.00769ZM141.352 0.806868H142.632V0.667474H141.352V0.806868ZM142.567 0.7117L139.501 8.51994L139.631 8.57088L142.697 0.762642L142.567 0.7117ZM139.566 8.47571H138.341V8.61511H139.566V8.47571ZM148.651 7.42917H148.581V7.49887H148.651V7.42917ZM153.056 7.42917H153.126V7.35947H153.056V7.42917ZM153.056 8.54541V8.61511H153.126V8.54541H153.056ZM147.426 8.54541H147.356V8.61511H147.426V8.54541ZM147.426 0.737171V0.667474H147.356V0.737171H147.426ZM152.947 0.737171H153.017V0.667474H152.947V0.737171ZM152.947 1.85341V1.92311H153.017V1.85341H152.947ZM148.651 1.85341V1.78371H148.581V1.85341H148.651ZM148.651 3.9171H148.581V3.98679H148.651V3.9171ZM152.054 3.9171H152.124V3.8474H152.054V3.9171ZM152.054 5.03334V5.10303H152.124V5.03334H152.054ZM148.651 5.03334V4.96364H148.581V5.03334H148.651ZM148.651 7.49887H153.056V7.35947H148.651V7.49887ZM152.986 7.42917V8.54541H153.126V7.42917H152.986ZM153.056 8.47571H147.426V8.61511H153.056V8.47571ZM147.495 8.54541V0.737171H147.356V8.54541H147.495ZM147.426 0.806868H152.947V0.667474H147.426V0.806868ZM152.877 0.737171V1.85341H153.017V0.737171H152.877ZM152.947 1.78371H148.651V1.92311H152.947V1.78371ZM148.581 1.85341V3.9171H148.72V1.85341H148.581ZM148.651 3.98679H152.054V3.8474H148.651V3.98679ZM151.984 3.9171V5.03334H152.124V3.9171H151.984ZM152.054 4.96364H148.651V5.10303H152.054V4.96364ZM148.581 5.03334V7.42917H148.72V5.03334H148.581Z" fill="white"/>
</svg>
