<svg width="61" height="32" viewBox="0 0 61 32" fill="none" xmlns="http://www.w3.org/2000/svg">
<path d="M4.464 11.192C3.664 11.192 2.97067 11.0693 2.384 10.824C1.808 10.568 1.25867 10.1627 0.736 9.608L1.2 9.112C1.456 9.368 1.70133 9.58667 1.936 9.768C2.18133 9.94933 2.432 10.0987 2.688 10.216C2.95467 10.3227 3.232 10.4027 3.52 10.456C3.808 10.4987 4.12267 10.52 4.464 10.52C4.848 10.52 5.21067 10.4667 5.552 10.36C5.904 10.2533 6.208 10.0987 6.464 9.896C6.73067 9.68267 6.93867 9.42667 7.088 9.128C7.248 8.81867 7.328 8.46667 7.328 8.072C7.328 7.26133 7.02933 6.664 6.432 6.28C5.83467 5.896 5.008 5.704 3.952 5.704H2.88V5.096H3.632C4.73067 5.096 5.52533 4.91467 6.016 4.552C6.51733 4.18933 6.768 3.64533 6.768 2.92C6.768 2.6 6.704 2.31733 6.576 2.072C6.45867 1.82667 6.29333 1.61867 6.08 1.448C5.86667 1.27733 5.61067 1.14933 5.312 1.064C5.024 0.978666 4.70933 0.936 4.368 0.936C3.83467 0.936 3.33333 1.03733 2.864 1.24C2.40533 1.432 2.02133 1.688 1.712 2.008L1.296 1.512C1.616 1.17067 2.048 0.877333 2.592 0.632C3.136 0.386667 3.728 0.264 4.368 0.264C4.79467 0.264 5.2 0.322666 5.584 0.44C5.968 0.557333 6.29867 0.727999 6.576 0.952C6.85333 1.176 7.072 1.45333 7.232 1.784C7.40267 2.104 7.488 2.472 7.488 2.888C7.488 3.47467 7.33867 3.98667 7.04 4.424C6.752 4.85067 6.336 5.14933 5.792 5.32V5.384C6.44267 5.50133 6.98133 5.78933 7.408 6.248C7.84533 6.696 8.064 7.304 8.064 8.072C8.064 8.552 7.968 8.98933 7.776 9.384C7.584 9.768 7.32267 10.0933 6.992 10.36C6.672 10.6267 6.29333 10.8347 5.856 10.984C5.41867 11.1227 4.95467 11.192 4.464 11.192ZM11.9176 11.192C11.6083 11.192 11.3203 11.1493 11.0536 11.064C10.787 10.9787 10.5523 10.8507 10.3496 10.68C10.147 10.5093 9.98696 10.2907 9.86963 10.024C9.75229 9.75733 9.69363 9.44267 9.69363 9.08C9.69363 8.22667 10.0883 7.58133 10.8776 7.144C11.6776 6.696 12.9363 6.376 14.6536 6.184C14.6536 5.896 14.6323 5.608 14.5896 5.32C14.547 5.02133 14.4563 4.76 14.3176 4.536C14.179 4.30133 13.9923 4.11467 13.7576 3.976C13.523 3.82667 13.2136 3.752 12.8296 3.752C12.3176 3.752 11.8483 3.85333 11.4216 4.056C10.995 4.25867 10.6483 4.456 10.3816 4.648L10.0616 4.12C10.2003 4.024 10.3656 3.91733 10.5576 3.8C10.7603 3.68267 10.9843 3.576 11.2296 3.48C11.475 3.384 11.7416 3.304 12.0296 3.24C12.3176 3.16533 12.6163 3.128 12.9256 3.128C13.3736 3.128 13.7523 3.208 14.0616 3.368C14.371 3.51733 14.6216 3.72533 14.8136 3.992C15.0056 4.25867 15.1443 4.57333 15.2296 4.936C15.315 5.288 15.3576 5.672 15.3576 6.088V11H14.7496L14.6856 10.008H14.6376C14.243 10.3173 13.8163 10.5947 13.3576 10.84C12.9096 11.0747 12.4296 11.192 11.9176 11.192ZM12.0456 10.584C12.4936 10.584 12.9203 10.4773 13.3256 10.264C13.731 10.0507 14.1736 9.74133 14.6536 9.336V6.728C13.8643 6.824 13.1976 6.94133 12.6536 7.08C12.1096 7.21867 11.6723 7.384 11.3416 7.576C11.011 7.768 10.771 7.98667 10.6216 8.232C10.483 8.47733 10.4136 8.74933 10.4136 9.048C10.4136 9.32533 10.4563 9.56 10.5416 9.752C10.627 9.944 10.7443 10.104 10.8936 10.232C11.043 10.3493 11.2136 10.44 11.4056 10.504C11.6083 10.5573 11.8216 10.584 12.0456 10.584ZM18.097 11V3.32H18.801V6.68H20.721L21.521 4.792C21.6597 4.45067 21.7983 4.17333 21.937 3.96C22.0757 3.736 22.2143 3.56533 22.353 3.448C22.5023 3.32 22.6517 3.23467 22.801 3.192C22.9503 3.14933 23.1103 3.128 23.281 3.128C23.4197 3.128 23.5423 3.14933 23.649 3.192L23.489 3.88C23.4357 3.85867 23.393 3.848 23.361 3.848C23.3397 3.848 23.3023 3.848 23.249 3.848C23.153 3.848 23.057 3.864 22.961 3.896C22.865 3.91733 22.769 3.97067 22.673 4.056C22.577 4.14133 22.4757 4.264 22.369 4.424C22.273 4.584 22.1717 4.79733 22.065 5.064L21.265 6.952L23.889 11H23.089L20.737 7.304H18.801V11H18.097ZM27.1364 11.192C26.827 11.192 26.539 11.1493 26.2724 11.064C26.0057 10.9787 25.771 10.8507 25.5684 10.68C25.3657 10.5093 25.2057 10.2907 25.0884 10.024C24.971 9.75733 24.9124 9.44267 24.9124 9.08C24.9124 8.22667 25.307 7.58133 26.0964 7.144C26.8964 6.696 28.155 6.376 29.8724 6.184C29.8724 5.896 29.851 5.608 29.8084 5.32C29.7657 5.02133 29.675 4.76 29.5364 4.536C29.3977 4.30133 29.211 4.11467 28.9764 3.976C28.7417 3.82667 28.4324 3.752 28.0484 3.752C27.5364 3.752 27.067 3.85333 26.6404 4.056C26.2137 4.25867 25.867 4.456 25.6004 4.648L25.2804 4.12C25.419 4.024 25.5844 3.91733 25.7764 3.8C25.979 3.68267 26.203 3.576 26.4484 3.48C26.6937 3.384 26.9604 3.304 27.2484 3.24C27.5364 3.16533 27.835 3.128 28.1444 3.128C28.5924 3.128 28.971 3.208 29.2804 3.368C29.5897 3.51733 29.8404 3.72533 30.0324 3.992C30.2244 4.25867 30.363 4.57333 30.4484 4.936C30.5337 5.288 30.5764 5.672 30.5764 6.088V11H29.9684L29.9044 10.008H29.8564C29.4617 10.3173 29.035 10.5947 28.5764 10.84C28.1284 11.0747 27.6484 11.192 27.1364 11.192ZM27.2644 10.584C27.7124 10.584 28.139 10.4773 28.5444 10.264C28.9497 10.0507 29.3924 9.74133 29.8724 9.336V6.728C29.083 6.824 28.4164 6.94133 27.8724 7.08C27.3284 7.21867 26.891 7.384 26.5604 7.576C26.2297 7.768 25.9897 7.98667 25.8404 8.232C25.7017 8.47733 25.6324 8.74933 25.6324 9.048C25.6324 9.32533 25.675 9.56 25.7604 9.752C25.8457 9.944 25.963 10.104 26.1124 10.232C26.2617 10.3493 26.4324 10.44 26.6244 10.504C26.827 10.5573 27.0404 10.584 27.2644 10.584ZM35.3798 11.192C34.8358 11.192 34.3291 11.1173 33.8598 10.968C33.3904 10.8187 32.9424 10.5573 32.5158 10.184L32.8838 9.688C33.2571 10.0293 33.6411 10.264 34.0358 10.392C34.4411 10.52 34.8731 10.584 35.3318 10.584C35.6304 10.584 35.9131 10.5467 36.1798 10.472C36.4464 10.3867 36.6811 10.2747 36.8838 10.136C37.0864 9.98667 37.2464 9.80533 37.3638 9.592C37.4811 9.37867 37.5398 9.144 37.5398 8.888C37.5398 8.344 37.3264 7.93867 36.8998 7.672C36.4731 7.39467 35.8758 7.256 35.1078 7.256H34.1478V6.68H34.8998C35.6678 6.68 36.2438 6.54667 36.6278 6.28C37.0118 6.00267 37.2038 5.63467 37.2038 5.176C37.2038 4.67467 37.0224 4.312 36.6598 4.088C36.3078 3.85333 35.8704 3.736 35.3478 3.736C34.8358 3.736 34.4091 3.80533 34.0678 3.944C33.7371 4.08267 33.4118 4.26933 33.0918 4.504L32.7238 4.008C33.0651 3.76267 33.4438 3.55467 33.8598 3.384C34.2758 3.21333 34.7771 3.128 35.3638 3.128C35.7158 3.128 36.0464 3.17067 36.3558 3.256C36.6651 3.34133 36.9318 3.46933 37.1558 3.64C37.3904 3.8 37.5771 4.00267 37.7158 4.248C37.8544 4.49333 37.9238 4.78133 37.9238 5.112C37.9238 5.528 37.8011 5.88533 37.5558 6.184C37.3211 6.48267 37.0064 6.71733 36.6118 6.888V6.952C36.8358 7.00533 37.0438 7.08533 37.2358 7.192C37.4384 7.29867 37.6144 7.432 37.7638 7.592C37.9238 7.752 38.0464 7.944 38.1318 8.168C38.2278 8.38133 38.2758 8.632 38.2758 8.92C38.2758 9.26133 38.2011 9.57067 38.0518 9.848C37.9024 10.1253 37.6944 10.3653 37.4278 10.568C37.1611 10.7707 36.8518 10.9253 36.4998 11.032C36.1478 11.1387 35.7744 11.192 35.3798 11.192ZM42.1051 11.192C41.7958 11.192 41.5078 11.1493 41.2411 11.064C40.9745 10.9787 40.7398 10.8507 40.5371 10.68C40.3345 10.5093 40.1745 10.2907 40.0571 10.024C39.9398 9.75733 39.8811 9.44267 39.8811 9.08C39.8811 8.22667 40.2758 7.58133 41.0651 7.144C41.8651 6.696 43.1238 6.376 44.8411 6.184C44.8411 5.896 44.8198 5.608 44.7771 5.32C44.7345 5.02133 44.6438 4.76 44.5051 4.536C44.3665 4.30133 44.1798 4.11467 43.9451 3.976C43.7105 3.82667 43.4011 3.752 43.0171 3.752C42.5051 3.752 42.0358 3.85333 41.6091 4.056C41.1825 4.25867 40.8358 4.456 40.5691 4.648L40.2491 4.12C40.3878 4.024 40.5531 3.91733 40.7451 3.8C40.9478 3.68267 41.1718 3.576 41.4171 3.48C41.6625 3.384 41.9291 3.304 42.2171 3.24C42.5051 3.16533 42.8038 3.128 43.1131 3.128C43.5611 3.128 43.9398 3.208 44.2491 3.368C44.5585 3.51733 44.8091 3.72533 45.0011 3.992C45.1931 4.25867 45.3318 4.57333 45.4171 4.936C45.5025 5.288 45.5451 5.672 45.5451 6.088V11H44.9371L44.8731 10.008H44.8251C44.4305 10.3173 44.0038 10.5947 43.5451 10.84C43.0971 11.0747 42.6171 11.192 42.1051 11.192ZM42.2331 10.584C42.6811 10.584 43.1078 10.4773 43.5131 10.264C43.9185 10.0507 44.3611 9.74133 44.8411 9.336V6.728C44.0518 6.824 43.3851 6.94133 42.8411 7.08C42.2971 7.21867 41.8598 7.384 41.5291 7.576C41.1985 7.768 40.9585 7.98667 40.8091 8.232C40.6705 8.47733 40.6011 8.74933 40.6011 9.048C40.6011 9.32533 40.6438 9.56 40.7291 9.752C40.8145 9.944 40.9318 10.104 41.0811 10.232C41.2305 10.3493 41.4011 10.44 41.5931 10.504C41.7958 10.5573 42.0091 10.584 42.2331 10.584ZM49.8086 11V3.928H47.0566V3.32H53.2806V3.928H50.5286V11H49.8086ZM55.1751 11V3.32H55.8791V6.376H57.6871C58.5938 6.376 59.3031 6.568 59.8151 6.952C60.3378 7.32533 60.5991 7.896 60.5991 8.664C60.5991 9.44267 60.3378 10.0293 59.8151 10.424C59.3031 10.808 58.5938 11 57.6871 11H55.1751ZM55.8791 10.392H57.5271C58.3271 10.392 58.9191 10.2587 59.3031 9.992C59.6871 9.71467 59.8791 9.272 59.8791 8.664C59.8791 8.06667 59.6871 7.64 59.3031 7.384C58.9191 7.11733 58.3271 6.984 57.5271 6.984H55.8791V10.392ZM3.536 31.192C2.992 31.192 2.48533 31.1173 2.016 30.968C1.54667 30.8187 1.09867 30.5573 0.672 30.184L1.04 29.688C1.41333 30.0293 1.79733 30.264 2.192 30.392C2.59733 30.52 3.02933 30.584 3.488 30.584C3.78667 30.584 4.06933 30.5467 4.336 30.472C4.60267 30.3867 4.83733 30.2747 5.04 30.136C5.24267 29.9867 5.40267 29.8053 5.52 29.592C5.63733 29.3787 5.696 29.144 5.696 28.888C5.696 28.344 5.48267 27.9387 5.056 27.672C4.62933 27.3947 4.032 27.256 3.264 27.256H2.304V26.68H3.056C3.824 26.68 4.4 26.5467 4.784 26.28C5.168 26.0027 5.36 25.6347 5.36 25.176C5.36 24.6747 5.17867 24.312 4.816 24.088C4.464 23.8533 4.02667 23.736 3.504 23.736C2.992 23.736 2.56533 23.8053 2.224 23.944C1.89333 24.0827 1.568 24.2693 1.248 24.504L0.88 24.008C1.22133 23.7627 1.6 23.5547 2.016 23.384C2.432 23.2133 2.93333 23.128 3.52 23.128C3.872 23.128 4.20267 23.1707 4.512 23.256C4.82133 23.3413 5.088 23.4693 5.312 23.64C5.54667 23.8 5.73333 24.0027 5.872 24.248C6.01067 24.4933 6.08 24.7813 6.08 25.112C6.08 25.528 5.95733 25.8853 5.712 26.184C5.47733 26.4827 5.16267 26.7173 4.768 26.888V26.952C4.992 27.0053 5.2 27.0853 5.392 27.192C5.59467 27.2987 5.77067 27.432 5.92 27.592C6.08 27.752 6.20267 27.944 6.288 28.168C6.384 28.3813 6.432 28.632 6.432 28.92C6.432 29.2613 6.35733 29.5707 6.208 29.848C6.05867 30.1253 5.85067 30.3653 5.584 30.568C5.31733 30.7707 5.008 30.9253 4.656 31.032C4.304 31.1387 3.93067 31.192 3.536 31.192ZM8.58138 31V23.32H11.3494C12.1814 23.32 12.832 23.4693 13.3014 23.768C13.7814 24.0667 14.0214 24.5467 14.0214 25.208C14.0214 25.6987 13.8987 26.072 13.6534 26.328C13.408 26.584 13.1094 26.7707 12.7574 26.888V26.936C12.96 26.9893 13.1574 27.064 13.3494 27.16C13.5414 27.2453 13.712 27.368 13.8614 27.528C14.0107 27.6773 14.1334 27.8587 14.2294 28.072C14.3254 28.2747 14.3734 28.52 14.3734 28.808C14.3734 29.5547 14.1067 30.1093 13.5734 30.472C13.0507 30.824 12.336 31 11.4294 31H8.58138ZM9.28538 26.68H11.0774C11.8774 26.68 12.448 26.5573 12.7894 26.312C13.1307 26.056 13.3014 25.7093 13.3014 25.272C13.3014 24.824 13.136 24.4827 12.8054 24.248C12.4854 24.0133 11.9574 23.896 11.2214 23.896H9.28538V26.68ZM9.28538 30.424H11.2854C12.8534 30.424 13.6374 29.8747 13.6374 28.776C13.6374 28.2853 13.424 27.912 12.9974 27.656C12.5814 27.3893 11.968 27.256 11.1574 27.256H9.28538V30.424ZM19.3189 31.192C18.8602 31.192 18.4229 31.1013 18.0069 30.92C17.5909 30.7387 17.2229 30.4773 16.9029 30.136C16.5935 29.7947 16.3429 29.3787 16.1509 28.888C15.9695 28.3867 15.8789 27.816 15.8789 27.176C15.8789 26.536 15.9695 25.9653 16.1509 25.464C16.3429 24.952 16.5935 24.5253 16.9029 24.184C17.2229 23.8427 17.5909 23.5813 18.0069 23.4C18.4229 23.2187 18.8602 23.128 19.3189 23.128C19.7775 23.128 20.2149 23.2187 20.6309 23.4C21.0575 23.5813 21.4255 23.8427 21.7349 24.184C22.0549 24.5253 22.3055 24.952 22.4869 25.464C22.6789 25.9653 22.7749 26.536 22.7749 27.176C22.7749 27.816 22.6789 28.3867 22.4869 28.888C22.3055 29.3787 22.0549 29.7947 21.7349 30.136C21.4255 30.4773 21.0575 30.7387 20.6309 30.92C20.2149 31.1013 19.7775 31.192 19.3189 31.192ZM19.3189 30.568C19.7029 30.568 20.0602 30.488 20.3909 30.328C20.7322 30.1573 21.0202 29.9227 21.2549 29.624C21.5002 29.3253 21.6922 28.968 21.8309 28.552C21.9695 28.136 22.0389 27.6773 22.0389 27.176C22.0389 26.664 21.9695 26.2 21.8309 25.784C21.6922 25.368 21.5002 25.0107 21.2549 24.712C21.0202 24.4027 20.7322 24.168 20.3909 24.008C20.0602 23.8373 19.7029 23.752 19.3189 23.752C18.9349 23.752 18.5775 23.8373 18.2469 24.008C17.9162 24.168 17.6282 24.4027 17.3829 24.712C17.1482 25.0107 16.9615 25.368 16.8229 25.784C16.6842 26.2 16.6149 26.664 16.6149 27.176C16.6149 27.6773 16.6842 28.136 16.8229 28.552C16.9615 28.968 17.1482 29.3253 17.3829 29.624C17.6282 29.9227 17.9162 30.1573 18.2469 30.328C18.5775 30.488 18.9349 30.568 19.3189 30.568ZM25.0814 31V23.32H25.7854V26.648H30.2334V23.32H30.9374V31H30.2334V27.288H25.7854V31H25.0814ZM36.6783 31.192C36.2196 31.192 35.7823 31.1013 35.3663 30.92C34.9503 30.7387 34.5823 30.4773 34.2623 30.136C33.9529 29.7947 33.7023 29.3787 33.5103 28.888C33.3289 28.3867 33.2383 27.816 33.2383 27.176C33.2383 26.536 33.3289 25.9653 33.5103 25.464C33.7023 24.952 33.9529 24.5253 34.2623 24.184C34.5823 23.8427 34.9503 23.5813 35.3663 23.4C35.7823 23.2187 36.2196 23.128 36.6783 23.128C37.1369 23.128 37.5743 23.2187 37.9903 23.4C38.4169 23.5813 38.7849 23.8427 39.0943 24.184C39.4143 24.5253 39.6649 24.952 39.8463 25.464C40.0383 25.9653 40.1343 26.536 40.1343 27.176C40.1343 27.816 40.0383 28.3867 39.8463 28.888C39.6649 29.3787 39.4143 29.7947 39.0943 30.136C38.7849 30.4773 38.4169 30.7387 37.9903 30.92C37.5743 31.1013 37.1369 31.192 36.6783 31.192ZM36.6783 30.568C37.0623 30.568 37.4196 30.488 37.7503 30.328C38.0916 30.1573 38.3796 29.9227 38.6143 29.624C38.8596 29.3253 39.0516 28.968 39.1903 28.552C39.3289 28.136 39.3983 27.6773 39.3983 27.176C39.3983 26.664 39.3289 26.2 39.1903 25.784C39.0516 25.368 38.8596 25.0107 38.6143 24.712C38.3796 24.4027 38.0916 24.168 37.7503 24.008C37.4196 23.8373 37.0623 23.752 36.6783 23.752C36.2943 23.752 35.9369 23.8373 35.6063 24.008C35.2756 24.168 34.9876 24.4027 34.7423 24.712C34.5076 25.0107 34.3209 25.368 34.1823 25.784C34.0436 26.2 33.9743 26.664 33.9743 27.176C33.9743 27.6773 34.0436 28.136 34.1823 28.552C34.3209 28.968 34.5076 29.3253 34.7423 29.624C34.9876 29.9227 35.2756 30.1573 35.6063 30.328C35.9369 30.488 36.2943 30.568 36.6783 30.568ZM42.4408 31V23.32H43.1448V26.68H45.0648L45.8648 24.792C46.0034 24.4507 46.1421 24.1733 46.2808 23.96C46.4194 23.736 46.5581 23.5653 46.6968 23.448C46.8461 23.32 46.9954 23.2347 47.1448 23.192C47.2941 23.1493 47.4541 23.128 47.6248 23.128C47.7634 23.128 47.8861 23.1493 47.9928 23.192L47.8328 23.88C47.7794 23.8587 47.7368 23.848 47.7048 23.848C47.6834 23.848 47.6461 23.848 47.5928 23.848C47.4968 23.848 47.4008 23.864 47.3048 23.896C47.2088 23.9173 47.1128 23.9707 47.0168 24.056C46.9208 24.1413 46.8194 24.264 46.7128 24.424C46.6168 24.584 46.5154 24.7973 46.4088 25.064L45.6088 26.952L48.2328 31H47.4328L45.0807 27.304H43.1448V31H42.4408Z" fill="#FF834E"/>
</svg>
