<svg width="131" height="18" viewBox="0 0 131 18" fill="none" xmlns="http://www.w3.org/2000/svg">
<path d="M3.942 12.02V8.402H0.612V7.718H3.942V4.1H4.68V7.718H8.01V8.402H4.68V12.02H3.942ZM11.9973 14C12.0453 12.836 12.1413 11.774 12.2853 10.814C12.4413 9.842 12.6573 8.93 12.9333 8.078C13.2093 7.214 13.5573 6.392 13.9773 5.612C14.3973 4.82 14.8953 4.016 15.4713 3.2H9.40528V2.498H16.4793V2.966C15.7953 3.878 15.2253 4.754 14.7693 5.594C14.3253 6.434 13.9653 7.292 13.6893 8.168C13.4253 9.032 13.2333 9.938 13.1133 10.886C12.9933 11.834 12.9093 12.872 12.8613 14H11.9973ZM24.7901 17.15C24.0461 15.95 23.4641 14.69 23.0441 13.37C22.6241 12.038 22.4141 10.58 22.4141 8.996C22.4141 7.412 22.6241 5.96 23.0441 4.64C23.4641 3.308 24.0461 2.042 24.7901 0.842L25.2761 1.13C24.5561 2.27 24.0161 3.512 23.6561 4.856C23.2961 6.188 23.1161 7.568 23.1161 8.996C23.1161 10.424 23.2961 11.81 23.6561 13.154C24.0161 14.486 24.5561 15.722 25.2761 16.862L24.7901 17.15ZM31.4374 14V10.562H26.1454V10.094L31.4914 2.498H32.2114V9.878H33.9214V10.562H32.2114V14H31.4374ZM27.1174 9.878H31.4374V5.666C31.4374 5.402 31.4434 5.072 31.4554 4.676C31.4674 4.28 31.4854 3.95 31.5094 3.686H31.4374C31.2934 3.926 31.1434 4.16 30.9874 4.388C30.8314 4.616 30.6694 4.862 30.5014 5.126L27.1174 9.878ZM35.2087 14V13.496C36.1567 12.536 36.9847 11.678 37.6927 10.922C38.4007 10.154 38.9887 9.458 39.4567 8.834C39.9367 8.198 40.2907 7.616 40.5187 7.088C40.7587 6.548 40.8787 6.026 40.8787 5.522C40.8787 4.802 40.6747 4.196 40.2667 3.704C39.8707 3.212 39.2407 2.966 38.3767 2.966C37.8487 2.966 37.3567 3.11 36.9007 3.398C36.4447 3.686 36.0427 4.046 35.6947 4.478L35.1727 3.974C35.6047 3.494 36.0787 3.092 36.5947 2.768C37.1227 2.444 37.7407 2.282 38.4487 2.282C39.4807 2.282 40.2787 2.576 40.8427 3.164C41.4067 3.752 41.6887 4.532 41.6887 5.504C41.6887 6.08 41.5627 6.656 41.3107 7.232C41.0587 7.796 40.7047 8.396 40.2487 9.032C39.7927 9.656 39.2347 10.328 38.5747 11.048C37.9267 11.756 37.2067 12.53 36.4147 13.37C36.7267 13.346 37.0447 13.328 37.3687 13.316C37.7047 13.292 38.0287 13.28 38.3407 13.28H42.2647V14H35.2087ZM44.596 14V13.298H47.296V3.758H45.244V3.218C45.712 3.134 46.126 3.032 46.486 2.912C46.858 2.792 47.182 2.654 47.458 2.498H48.106V13.298H50.608V14H44.596ZM52.4353 14V13.496C53.3833 12.536 54.2113 11.678 54.9193 10.922C55.6273 10.154 56.2153 9.458 56.6833 8.834C57.1633 8.198 57.5173 7.616 57.7453 7.088C57.9853 6.548 58.1053 6.026 58.1053 5.522C58.1053 4.802 57.9013 4.196 57.4933 3.704C57.0973 3.212 56.4673 2.966 55.6033 2.966C55.0753 2.966 54.5833 3.11 54.1273 3.398C53.6713 3.686 53.2693 4.046 52.9213 4.478L52.3993 3.974C52.8313 3.494 53.3053 3.092 53.8213 2.768C54.3493 2.444 54.9673 2.282 55.6753 2.282C56.7073 2.282 57.5053 2.576 58.0693 3.164C58.6333 3.752 58.9153 4.532 58.9153 5.504C58.9153 6.08 58.7893 6.656 58.5373 7.232C58.2853 7.796 57.9313 8.396 57.4753 9.032C57.0193 9.656 56.4613 10.328 55.8013 11.048C55.1533 11.756 54.4333 12.53 53.6413 13.37C53.9533 13.346 54.2713 13.328 54.5953 13.316C54.9313 13.292 55.2553 13.28 55.5673 13.28H59.4913V14H52.4353ZM61.3725 17.15L60.8865 16.862C61.6065 15.722 62.1465 14.486 62.5065 13.154C62.8665 11.81 63.0465 10.424 63.0465 8.996C63.0465 7.568 62.8665 6.188 62.5065 4.856C62.1465 3.512 61.6065 2.27 60.8865 1.13L61.3725 0.842C62.1045 2.042 62.6805 3.308 63.1005 4.64C63.5325 5.96 63.7485 7.412 63.7485 8.996C63.7485 10.58 63.5325 12.038 63.1005 13.37C62.6805 14.69 62.1045 15.95 61.3725 17.15ZM69.6794 14V13.496C70.6274 12.536 71.4554 11.678 72.1634 10.922C72.8714 10.154 73.4594 9.458 73.9274 8.834C74.4074 8.198 74.7614 7.616 74.9894 7.088C75.2294 6.548 75.3494 6.026 75.3494 5.522C75.3494 4.802 75.1454 4.196 74.7374 3.704C74.3414 3.212 73.7114 2.966 72.8474 2.966C72.3194 2.966 71.8274 3.11 71.3714 3.398C70.9154 3.686 70.5134 4.046 70.1654 4.478L69.6434 3.974C70.0754 3.494 70.5494 3.092 71.0654 2.768C71.5934 2.444 72.2114 2.282 72.9194 2.282C73.9514 2.282 74.7494 2.576 75.3134 3.164C75.8774 3.752 76.1594 4.532 76.1594 5.504C76.1594 6.08 76.0334 6.656 75.7814 7.232C75.5294 7.796 75.1754 8.396 74.7194 9.032C74.2634 9.656 73.7054 10.328 73.0454 11.048C72.3974 11.756 71.6774 12.53 70.8854 13.37C71.1974 13.346 71.5154 13.328 71.8394 13.316C72.1754 13.292 72.4994 13.28 72.8114 13.28H76.7354V14H69.6794ZM81.6407 14.216C81.1847 14.216 80.7707 14.168 80.3987 14.072C80.0387 13.988 79.7087 13.874 79.4087 13.73C79.1207 13.574 78.8627 13.406 78.6347 13.226C78.4067 13.034 78.2027 12.848 78.0227 12.668L78.4727 12.11C78.6407 12.29 78.8267 12.464 79.0307 12.632C79.2347 12.8 79.4627 12.95 79.7147 13.082C79.9667 13.214 80.2487 13.322 80.5607 13.406C80.8727 13.478 81.2267 13.514 81.6227 13.514C82.0067 13.514 82.3727 13.442 82.7207 13.298C83.0687 13.142 83.3687 12.932 83.6207 12.668C83.8847 12.392 84.0947 12.068 84.2507 11.696C84.4067 11.312 84.4847 10.886 84.4847 10.418C84.4847 9.482 84.2327 8.756 83.7287 8.24C83.2247 7.712 82.5407 7.448 81.6767 7.448C81.2327 7.448 80.8487 7.52 80.5247 7.664C80.2127 7.796 79.8827 7.982 79.5347 8.222L78.9767 7.88L79.3907 2.498H84.7007V3.2H80.1107L79.7507 7.358C80.0507 7.178 80.3627 7.034 80.6867 6.926C81.0107 6.806 81.3827 6.746 81.8027 6.746C82.2827 6.746 82.7387 6.818 83.1707 6.962C83.6027 7.106 83.9747 7.328 84.2867 7.628C84.5987 7.916 84.8447 8.294 85.0247 8.762C85.2167 9.218 85.3127 9.758 85.3127 10.382C85.3127 10.994 85.2047 11.54 84.9887 12.02C84.7847 12.488 84.5087 12.89 84.1607 13.226C83.8247 13.55 83.4347 13.796 82.9907 13.964C82.5587 14.132 82.1087 14.216 81.6407 14.216ZM86.888 9.86V9.158H90.848V9.86H86.888ZM95.7229 14.216C95.2669 14.216 94.8529 14.168 94.4809 14.072C94.1089 13.976 93.7729 13.85 93.4729 13.694C93.1849 13.538 92.9209 13.364 92.6809 13.172C92.4529 12.98 92.2489 12.788 92.0689 12.596L92.5369 12.038C92.7049 12.23 92.8909 12.416 93.0949 12.596C93.2989 12.764 93.5269 12.92 93.7789 13.064C94.0429 13.196 94.3309 13.304 94.6429 13.388C94.9669 13.472 95.3269 13.514 95.7229 13.514C96.1069 13.514 96.4609 13.454 96.7849 13.334C97.1209 13.214 97.4089 13.046 97.6489 12.83C97.8889 12.602 98.0749 12.332 98.2069 12.02C98.3389 11.708 98.4049 11.36 98.4049 10.976C98.4049 10.58 98.3269 10.22 98.1709 9.896C98.0269 9.572 97.7929 9.296 97.4689 9.068C97.1569 8.828 96.7429 8.642 96.2269 8.51C95.7229 8.378 95.1109 8.312 94.3909 8.312V7.61C95.0509 7.61 95.6089 7.544 96.0649 7.412C96.5329 7.28 96.9049 7.106 97.1809 6.89C97.4689 6.662 97.6729 6.398 97.7929 6.098C97.9249 5.786 97.9909 5.456 97.9909 5.108C97.9909 4.46 97.7809 3.944 97.3609 3.56C96.9409 3.164 96.3769 2.966 95.6689 2.966C95.1289 2.966 94.6369 3.092 94.1929 3.344C93.7489 3.584 93.3589 3.878 93.0229 4.226L92.5549 3.686C92.9509 3.302 93.4009 2.972 93.9049 2.696C94.4089 2.42 94.9969 2.282 95.6689 2.282C96.1129 2.282 96.5269 2.348 96.9109 2.48C97.2949 2.6 97.6249 2.78 97.9009 3.02C98.1889 3.248 98.4109 3.536 98.5669 3.884C98.7349 4.22 98.8189 4.61 98.8189 5.054C98.8189 5.81 98.6089 6.422 98.1889 6.89C97.7809 7.346 97.2589 7.682 96.6229 7.898V7.97C96.9829 8.042 97.3189 8.168 97.6309 8.348C97.9429 8.516 98.2189 8.726 98.4589 8.978C98.6989 9.23 98.8849 9.524 99.0169 9.86C99.1609 10.184 99.2329 10.55 99.2329 10.958C99.2329 11.462 99.1429 11.918 98.9629 12.326C98.7829 12.722 98.5309 13.064 98.2069 13.352C97.8949 13.628 97.5229 13.844 97.0909 14C96.6709 14.144 96.2149 14.216 95.7229 14.216ZM104.462 14.216C103.358 14.216 102.506 13.7 101.906 12.668C101.318 11.624 101.024 10.136 101.024 8.204C101.024 6.284 101.318 4.82 101.906 3.812C102.506 2.792 103.358 2.282 104.462 2.282C105.566 2.282 106.412 2.792 107 3.812C107.6 4.82 107.9 6.284 107.9 8.204C107.9 10.136 107.6 11.624 107 12.668C106.412 13.7 105.566 14.216 104.462 14.216ZM104.462 13.532C105.266 13.532 105.902 13.088 106.37 12.2C106.85 11.3 107.09 9.968 107.09 8.204C107.09 6.44 106.85 5.126 106.37 4.262C105.902 3.398 105.266 2.966 104.462 2.966C103.67 2.966 103.034 3.398 102.554 4.262C102.074 5.126 101.834 6.44 101.834 8.204C101.834 9.968 102.074 11.3 102.554 12.2C103.034 13.088 103.67 13.532 104.462 13.532ZM109.493 9.86V9.158H113.453V9.86H109.493ZM118.526 14.216C117.998 14.216 117.512 14.138 117.068 13.982C116.624 13.814 116.24 13.592 115.916 13.316C115.592 13.028 115.334 12.692 115.142 12.308C114.962 11.924 114.872 11.504 114.872 11.048C114.872 10.664 114.938 10.304 115.07 9.968C115.214 9.632 115.394 9.332 115.61 9.068C115.838 8.792 116.084 8.552 116.348 8.348C116.624 8.132 116.9 7.952 117.176 7.808V7.736C116.96 7.592 116.75 7.436 116.546 7.268C116.354 7.088 116.18 6.89 116.024 6.674C115.88 6.446 115.76 6.206 115.664 5.954C115.568 5.69 115.52 5.402 115.52 5.09C115.52 4.682 115.598 4.304 115.754 3.956C115.91 3.608 116.12 3.314 116.384 3.074C116.66 2.822 116.978 2.63 117.338 2.498C117.71 2.354 118.106 2.282 118.526 2.282C119.018 2.282 119.456 2.36 119.84 2.516C120.224 2.66 120.548 2.87 120.812 3.146C121.088 3.41 121.292 3.728 121.424 4.1C121.568 4.46 121.64 4.856 121.64 5.288C121.64 5.6 121.586 5.906 121.478 6.206C121.37 6.494 121.232 6.764 121.064 7.016C120.908 7.268 120.734 7.496 120.542 7.7C120.35 7.904 120.17 8.072 120.002 8.204V8.276C120.254 8.432 120.5 8.6 120.74 8.78C120.98 8.96 121.19 9.164 121.37 9.392C121.562 9.62 121.718 9.884 121.838 10.184C121.958 10.484 122.018 10.826 122.018 11.21C122.018 11.63 121.934 12.026 121.766 12.398C121.598 12.758 121.358 13.076 121.046 13.352C120.746 13.616 120.38 13.826 119.948 13.982C119.516 14.138 119.042 14.216 118.526 14.216ZM119.372 7.97C119.864 7.574 120.236 7.16 120.488 6.728C120.752 6.284 120.884 5.81 120.884 5.306C120.884 4.982 120.83 4.682 120.722 4.406C120.614 4.118 120.458 3.866 120.254 3.65C120.062 3.434 119.816 3.266 119.516 3.146C119.228 3.014 118.898 2.948 118.526 2.948C118.202 2.948 117.902 3.002 117.626 3.11C117.362 3.218 117.128 3.368 116.924 3.56C116.732 3.74 116.582 3.962 116.474 4.226C116.366 4.49 116.312 4.778 116.312 5.09C116.312 5.498 116.396 5.852 116.564 6.152C116.744 6.44 116.978 6.698 117.266 6.926C117.554 7.142 117.878 7.334 118.238 7.502C118.61 7.67 118.988 7.826 119.372 7.97ZM118.526 13.55C118.934 13.55 119.3 13.49 119.624 13.37C119.96 13.25 120.242 13.082 120.47 12.866C120.71 12.65 120.89 12.398 121.01 12.11C121.142 11.822 121.208 11.516 121.208 11.192C121.208 10.748 121.106 10.376 120.902 10.076C120.71 9.764 120.446 9.494 120.11 9.266C119.786 9.026 119.414 8.822 118.994 8.654C118.574 8.474 118.142 8.294 117.698 8.114C117.11 8.462 116.624 8.876 116.24 9.356C115.856 9.824 115.664 10.376 115.664 11.012C115.664 11.372 115.736 11.708 115.88 12.02C116.024 12.32 116.222 12.584 116.474 12.812C116.726 13.04 117.026 13.22 117.374 13.352C117.722 13.484 118.106 13.55 118.526 13.55ZM126.852 14.216C126.396 14.216 125.982 14.168 125.61 14.072C125.25 13.988 124.92 13.874 124.62 13.73C124.332 13.574 124.074 13.406 123.846 13.226C123.618 13.034 123.414 12.848 123.234 12.668L123.684 12.11C123.852 12.29 124.038 12.464 124.242 12.632C124.446 12.8 124.674 12.95 124.926 13.082C125.178 13.214 125.46 13.322 125.772 13.406C126.084 13.478 126.438 13.514 126.834 13.514C127.218 13.514 127.584 13.442 127.932 13.298C128.28 13.142 128.58 12.932 128.832 12.668C129.096 12.392 129.306 12.068 129.462 11.696C129.618 11.312 129.696 10.886 129.696 10.418C129.696 9.482 129.444 8.756 128.94 8.24C128.436 7.712 127.752 7.448 126.888 7.448C126.444 7.448 126.06 7.52 125.736 7.664C125.424 7.796 125.094 7.982 124.746 8.222L124.188 7.88L124.602 2.498H129.912V3.2H125.322L124.962 7.358C125.262 7.178 125.574 7.034 125.898 6.926C126.222 6.806 126.594 6.746 127.014 6.746C127.494 6.746 127.95 6.818 128.382 6.962C128.814 7.106 129.186 7.328 129.498 7.628C129.81 7.916 130.056 8.294 130.236 8.762C130.428 9.218 130.524 9.758 130.524 10.382C130.524 10.994 130.416 11.54 130.2 12.02C129.996 12.488 129.72 12.89 129.372 13.226C129.036 13.55 128.646 13.796 128.202 13.964C127.77 14.132 127.32 14.216 126.852 14.216Z" fill="white"/>
</svg>
