<svg width="190" height="149" viewBox="0 0 190 149" fill="none" xmlns="http://www.w3.org/2000/svg">
<g filter="url(#filter0_d)">
<path d="M57.787 138.28C46.767 138.28 36.9503 135.557 28.337 130.11C19.7236 124.663 12.947 116.81 8.00695 106.55C3.19362 96.1633 0.786953 83.8133 0.786953 69.5C0.786953 55.1867 3.19362 42.9 8.00695 32.64C12.947 22.2533 19.7236 14.3367 28.337 8.88999C36.9503 3.44333 46.767 0.719998 57.787 0.719998C68.807 0.719998 78.6236 3.44333 87.237 8.88999C95.8503 14.3367 102.564 22.2533 107.377 32.64C112.317 42.9 114.787 55.1867 114.787 69.5C114.787 83.8133 112.317 96.1633 107.377 106.55C102.564 116.81 95.8503 124.663 87.237 130.11C78.6236 135.557 68.807 138.28 57.787 138.28ZM57.787 112.25C65.8936 112.25 72.227 108.767 76.787 101.8C81.4736 94.8333 83.817 84.0667 83.817 69.5C83.817 54.9333 81.4736 44.1667 76.787 37.2C72.227 30.2333 65.8936 26.75 57.787 26.75C49.807 26.75 43.4736 30.2333 38.787 37.2C34.227 44.1667 31.947 54.9333 31.947 69.5C31.947 84.0667 34.227 94.8333 38.787 101.8C43.4736 108.767 49.807 112.25 57.787 112.25ZM179.929 2.99999V136H149.149V27.7H122.549V2.99999H179.929Z" fill="#EF8B54"/>
</g>
<defs>
<filter id="filter0_d" x="0.786926" y="0.720001" width="189.142" height="147.56" filterUnits="userSpaceOnUse" color-interpolation-filters="sRGB">
<feFlood flood-opacity="0" result="BackgroundImageFix"/>
<feColorMatrix in="SourceAlpha" type="matrix" values="0 0 0 0 0 0 0 0 0 0 0 0 0 0 0 0 0 0 127 0"/>
<feOffset dx="5" dy="5"/>
<feGaussianBlur stdDeviation="2.5"/>
<feColorMatrix type="matrix" values="0 0 0 0 0.937255 0 0 0 0 0.545098 0 0 0 0 0.329412 0 0 0 0.15 0"/>
<feBlend mode="normal" in2="BackgroundImageFix" result="effect1_dropShadow"/>
<feBlend mode="normal" in="SourceGraphic" in2="effect1_dropShadow" result="shape"/>
</filter>
</defs>
</svg>
