<svg width="228" height="139" viewBox="0 0 228 139" fill="none" xmlns="http://www.w3.org/2000/svg">
<path opacity="0.1" d="M57.4539 138.28C46.4339 138.28 36.6173 135.557 28.0039 130.11C19.3906 124.663 12.6139 116.81 7.67395 106.55C2.86061 96.1633 0.453945 83.8133 0.453945 69.5C0.453945 55.1867 2.86061 42.9 7.67395 32.64C12.6139 22.2533 19.3906 14.3367 28.0039 8.88999C36.6173 3.44333 46.4339 0.719998 57.4539 0.719998C68.474 0.719998 78.2906 3.44333 86.9039 8.88999C95.5173 14.3367 102.231 22.2533 107.044 32.64C111.984 42.9 114.454 55.1867 114.454 69.5C114.454 83.8133 111.984 96.1633 107.044 106.55C102.231 116.81 95.5173 124.663 86.9039 130.11C78.2906 135.557 68.474 138.28 57.4539 138.28ZM57.4539 112.25C65.5606 112.25 71.8939 108.767 76.4539 101.8C81.1406 94.8333 83.4839 84.0667 83.4839 69.5C83.4839 54.9333 81.1406 44.1667 76.4539 37.2C71.8939 30.2333 65.5606 26.75 57.4539 26.75C49.4739 26.75 43.1406 30.2333 38.4539 37.2C33.8939 44.1667 31.6139 54.9333 31.6139 69.5C31.6139 84.0667 33.8939 94.8333 38.4539 101.8C43.1406 108.767 49.4739 112.25 57.4539 112.25ZM227.666 110.92V136H127.156V116.05L178.456 67.6C183.902 62.4067 187.576 57.9733 189.476 54.3C191.376 50.5 192.326 46.7633 192.326 43.09C192.326 37.77 190.489 33.7167 186.816 30.93C183.269 28.0167 178.012 26.56 171.046 26.56C165.219 26.56 159.962 27.7 155.276 29.98C150.589 32.1333 146.662 35.4267 143.496 39.86L121.076 25.42C126.269 17.6933 133.426 11.6767 142.546 7.36999C151.666 2.93666 162.116 0.719998 173.896 0.719998C183.776 0.719998 192.389 2.36666 199.736 5.65999C207.209 8.82666 212.972 13.3867 217.026 19.34C221.206 25.1667 223.296 32.07 223.296 40.05C223.296 47.27 221.776 54.0467 218.736 60.38C215.696 66.7133 209.806 73.9333 201.066 82.04L170.476 110.92H227.666Z" fill="white"/>
</svg>
