<svg width="252" height="139" viewBox="0 0 252 139" fill="none" xmlns="http://www.w3.org/2000/svg">
<path opacity="0.1" d="M57.4344 138.28C46.4144 138.28 36.5977 135.557 27.9844 130.11C19.3711 124.663 12.5944 116.81 7.65442 106.55C2.84108 96.1633 0.434414 83.8133 0.434414 69.5C0.434414 55.1867 2.84108 42.9 7.65442 32.64C12.5944 22.2533 19.3711 14.3367 27.9844 8.88999C36.5977 3.44333 46.4144 0.719998 57.4344 0.719998C68.4544 0.719998 78.2711 3.44333 86.8844 8.88999C95.4978 14.3367 102.211 22.2533 107.024 32.64C111.964 42.9 114.434 55.1867 114.434 69.5C114.434 83.8133 111.964 96.1633 107.024 106.55C102.211 116.81 95.4978 124.663 86.8844 130.11C78.2711 135.557 68.4544 138.28 57.4344 138.28ZM57.4344 112.25C65.5411 112.25 71.8744 108.767 76.4344 101.8C81.1211 94.8333 83.4644 84.0667 83.4644 69.5C83.4644 54.9333 81.1211 44.1667 76.4344 37.2C71.8744 30.2333 65.5411 26.75 57.4344 26.75C49.4544 26.75 43.1211 30.2333 38.4344 37.2C33.8744 44.1667 31.5944 54.9333 31.5944 69.5C31.5944 84.0667 33.8744 94.8333 38.4344 101.8C43.1211 108.767 49.4544 112.25 57.4344 112.25ZM251.179 108.07H229.52V136H199.499V108.07H127.869V87.36L190.569 2.99999H222.869L164.729 82.99H200.449V58.1H229.52V82.99H251.179V108.07Z" fill="white"/>
</svg>
