<svg width="144" height="87" viewBox="0 0 144 87" fill="none" xmlns="http://www.w3.org/2000/svg">
<path opacity="0.1" d="M36.3692 86.416C29.5252 86.416 23.4285 84.7247 18.0792 81.342C12.7299 77.9593 8.52119 73.082 5.45319 66.71C2.46385 60.2593 0.969188 52.5893 0.969188 43.7C0.969188 34.8107 2.46385 27.18 5.45319 20.808C8.52119 14.3573 12.7299 9.44066 18.0792 6.058C23.4285 2.67533 29.5252 0.983999 36.3692 0.983999C43.2132 0.983999 49.3099 2.67533 54.6592 6.058C60.0085 9.44066 64.1779 14.3573 67.1672 20.808C70.2352 27.18 71.7692 34.8107 71.7692 43.7C71.7692 52.5893 70.2352 60.2593 67.1672 66.71C64.1779 73.082 60.0085 77.9593 54.6592 81.342C49.3099 84.7247 43.2132 86.416 36.3692 86.416ZM36.3692 70.25C41.4039 70.25 45.3372 68.0867 48.1692 63.76C51.0799 59.4333 52.5352 52.7467 52.5352 43.7C52.5352 34.6533 51.0799 27.9667 48.1692 23.64C45.3372 19.3133 41.4039 17.15 36.3692 17.15C31.4132 17.15 27.4799 19.3133 24.5692 23.64C21.7372 27.9667 20.3212 34.6533 20.3212 43.7C20.3212 52.7467 21.7372 59.4333 24.5692 63.76C27.4799 68.0867 31.4132 70.25 36.3692 70.25ZM109.377 33.434C121.02 33.434 129.594 35.7547 135.101 40.396C140.686 45.0373 143.479 51.252 143.479 59.04C143.479 64.0747 142.22 68.6767 139.703 72.846C137.186 76.9367 133.331 80.2407 128.139 82.758C123.026 85.1967 116.693 86.416 109.141 86.416C103.32 86.416 97.5771 85.6687 91.9131 84.174C86.3277 82.6007 81.5684 80.398 77.6351 77.566L85.1871 62.934C88.3337 65.294 91.9524 67.1427 96.0431 68.48C100.134 69.7387 104.342 70.368 108.669 70.368C113.468 70.368 117.244 69.424 119.997 67.536C122.75 65.648 124.127 63.0127 124.127 59.63C124.127 56.09 122.672 53.4153 119.761 51.606C116.929 49.7967 111.973 48.892 104.893 48.892H83.7711L88.0191 2.39999H138.405V17.74H103.949L102.651 33.434H109.377Z" fill="white"/>
</svg>
