<svg width="220" height="220" viewBox="0 0 220 220" fill="none" xmlns="http://www.w3.org/2000/svg">
<g filter="url(#filter0_d)">
<circle cx="108" cy="105" r="90" fill="#1D1D1D"/>
</g>
<g clip-path="url(#clip0)">
<path d="M79.6369 96.4726C79.8509 96.6866 80.1318 96.7942 80.4128 96.7942C80.6937 96.7942 80.9747 96.6872 81.1892 96.4726C81.6178 96.0441 81.6178 95.3488 81.1892 94.9202L78.5239 92.2549L81.1892 89.5901C81.6178 89.161 81.6178 88.4663 81.1892 88.0377C80.7607 87.6092 80.0654 87.6092 79.6369 88.0377L76.1956 91.479C75.9896 91.685 75.874 91.9642 75.874 92.2549C75.874 92.5462 75.9896 92.8254 76.1956 93.0314L79.6369 96.4726Z" fill="#EF8B54"/>
<path d="M90.5294 92.255L87.8641 94.9203C87.4355 95.3489 87.4355 96.0441 87.8647 96.4727C88.0787 96.6867 88.3596 96.7943 88.6406 96.7943C88.9215 96.7943 89.2025 96.6867 89.4165 96.4727L92.8583 93.0309C93.2869 92.6023 93.2869 91.9071 92.8583 91.4791L89.4165 88.0373C88.9879 87.6087 88.2932 87.6087 87.8647 88.0373C87.4355 88.4664 87.4355 89.1611 87.8647 89.5897L90.5294 92.255Z" fill="#EF8B54"/>
<path d="M82.8904 96.7182C83.022 96.7697 83.1582 96.7943 83.2915 96.7943C83.7298 96.7943 84.1436 96.53 84.3135 96.0979L87.0172 89.2149C87.2392 88.6507 86.9611 88.0138 86.3969 87.7918C85.8333 87.5703 85.1958 87.8479 84.9744 88.4121L82.2701 95.2951C82.0487 95.8593 82.3262 96.4968 82.8904 96.7182Z" fill="#EF8B54"/>
<path d="M77.593 103.234H84.9876C85.5936 103.234 86.0851 102.742 86.0851 102.136C86.0851 101.53 85.5936 101.038 84.9876 101.038H77.593C76.9864 101.038 76.4955 101.53 76.4955 102.136C76.4955 102.742 76.9864 103.234 77.593 103.234Z" fill="#EF8B54"/>
<path d="M102.019 101.038H89.0181C88.4122 101.038 87.9207 101.53 87.9207 102.136C87.9207 102.742 88.4122 103.234 89.0181 103.234H102.019C102.625 103.234 103.117 102.742 103.117 102.136C103.117 101.53 102.625 101.038 102.019 101.038Z" fill="#EF8B54"/>
<path d="M77.593 107.863H80.743C81.3489 107.863 81.8405 107.372 81.8405 106.765C81.8405 106.159 81.3489 105.668 80.743 105.668H77.593C76.9864 105.668 76.4955 106.159 76.4955 106.765C76.4955 107.372 76.9864 107.863 77.593 107.863Z" fill="#EF8B54"/>
<path d="M98.0031 105.668C97.3966 105.668 96.9056 106.159 96.9056 106.765C96.9056 107.372 97.3966 107.863 98.0031 107.863H99.9211C100.528 107.863 101.019 107.372 101.019 106.765C101.019 106.159 100.528 105.668 99.9211 105.668H98.0031Z" fill="#EF8B54"/>
<path d="M95.114 106.765C95.114 106.159 94.6225 105.668 94.0166 105.668H84.5946C83.9881 105.668 83.4971 106.159 83.4971 106.765C83.4971 107.372 83.9881 107.863 84.5946 107.863H94.0166C94.6225 107.863 95.114 107.372 95.114 106.765Z" fill="#EF8B54"/>
<path d="M102.304 106.765C102.304 107.372 102.796 107.863 103.402 107.863H106.995C107.601 107.863 108.093 107.372 108.093 106.765C108.093 106.159 107.601 105.668 106.995 105.668H103.402C102.796 105.668 102.304 106.159 102.304 106.765Z" fill="#EF8B54"/>
<path d="M96.3266 93.1355H100.116C100.723 93.1355 101.214 92.644 101.214 92.0374C101.214 91.4315 100.723 90.9399 100.116 90.9399H96.3266C95.72 90.9399 95.2285 91.4315 95.2285 92.0374C95.2285 92.644 95.72 93.1355 96.3266 93.1355Z" fill="#EF8B54"/>
<path d="M104.361 93.1355H127.484C128.091 93.1355 128.582 92.644 128.582 92.0374C128.582 91.4315 128.091 90.9399 127.484 90.9399H104.361C103.754 90.9399 103.263 91.4315 103.263 92.0374C103.263 92.644 103.754 93.1355 104.361 93.1355Z" fill="#EF8B54"/>
<path d="M123.972 95.7693H114.605C113.999 95.7693 113.508 96.2608 113.508 96.8674C113.508 97.4733 113.999 97.9648 114.605 97.9648H123.972C124.578 97.9648 125.07 97.4733 125.07 96.8674C125.07 96.2608 124.578 95.7693 123.972 95.7693Z" fill="#EF8B54"/>
<path d="M111.093 95.7693H107.873C107.266 95.7693 106.775 96.2608 106.775 96.8674C106.775 97.4733 107.266 97.9648 107.873 97.9648H111.093C111.699 97.9648 112.19 97.4733 112.19 96.8674C112.19 96.2608 111.699 95.7693 111.093 95.7693Z" fill="#EF8B54"/>
<path d="M96.3266 97.9648H104.214C104.82 97.9648 105.312 97.4733 105.312 96.8674C105.312 96.2608 104.82 95.7693 104.214 95.7693H96.3266C95.72 95.7693 95.2285 96.2608 95.2285 96.8674C95.2285 97.4733 95.72 97.9648 96.3266 97.9648Z" fill="#EF8B54"/>
<path d="M94.0301 110.259H86.6361C86.0295 110.259 85.538 110.75 85.538 111.356C85.538 111.962 86.0295 112.454 86.6361 112.454H94.0301C94.6361 112.454 95.1276 111.962 95.1276 111.356C95.1276 110.75 94.6361 110.259 94.0301 110.259Z" fill="#EF8B54"/>
<path d="M83.2738 110.259H77.593C76.9864 110.259 76.4955 110.75 76.4955 111.356C76.4955 111.962 76.9864 112.454 77.593 112.454H83.2738C83.8804 112.454 84.3713 111.962 84.3713 111.356C84.3713 110.75 83.8804 110.259 83.2738 110.259Z" fill="#EF8B54"/>
<path d="M107.434 110.259H97.7748C97.1682 110.259 96.6773 110.75 96.6773 111.356C96.6773 111.962 97.1682 112.454 97.7748 112.454H107.434C108.04 112.454 108.532 111.962 108.532 111.356C108.532 110.75 108.04 110.259 107.434 110.259Z" fill="#EF8B54"/>
<path d="M120.497 104.62H115.215C114.609 104.62 114.117 105.112 114.117 105.718C114.117 106.324 114.609 106.816 115.215 106.816H120.497C121.104 106.816 121.595 106.324 121.595 105.718C121.595 105.112 121.104 104.62 120.497 104.62Z" fill="#EF8B54"/>
<path d="M129.663 106.816H137.119C137.726 106.816 138.217 106.324 138.217 105.718C138.217 105.112 137.726 104.62 137.119 104.62H129.663C129.056 104.62 128.565 105.112 128.565 105.718C128.565 106.324 129.057 106.816 129.663 106.816Z" fill="#EF8B54"/>
<path d="M125.934 104.62H124.226C123.619 104.62 123.127 105.112 123.127 105.718C123.127 106.324 123.619 106.816 124.226 106.816H125.934C126.541 106.816 127.032 106.324 127.032 105.718C127.032 105.112 126.541 104.62 125.934 104.62Z" fill="#EF8B54"/>
<path d="M115.215 118.777H120.497C121.104 118.777 121.595 118.286 121.595 117.68C121.595 117.074 121.104 116.582 120.497 116.582H115.215C114.609 116.582 114.117 117.074 114.117 117.68C114.117 118.286 114.609 118.777 115.215 118.777Z" fill="#EF8B54"/>
<path d="M129.663 118.777H137.119C137.726 118.777 138.217 118.286 138.217 117.68C138.217 117.074 137.726 116.582 137.119 116.582H129.663C129.056 116.582 128.565 117.074 128.565 117.68C128.565 118.286 129.057 118.777 129.663 118.777Z" fill="#EF8B54"/>
<path d="M124.226 118.777H125.934C126.541 118.777 127.032 118.286 127.032 117.68C127.032 117.074 126.541 116.582 125.934 116.582H124.226C123.619 116.582 123.128 117.074 123.128 117.68C123.128 118.286 123.619 118.777 124.226 118.777Z" fill="#EF8B54"/>
<path d="M120.497 128.544H115.215C114.609 128.544 114.117 129.036 114.117 129.642C114.117 130.248 114.609 130.739 115.215 130.739H120.497C121.104 130.739 121.595 130.248 121.595 129.642C121.595 129.036 121.104 128.544 120.497 128.544Z" fill="#EF8B54"/>
<path d="M137.119 128.544H129.663C129.056 128.544 128.565 129.036 128.565 129.642C128.565 130.248 129.056 130.739 129.663 130.739H137.119C137.726 130.739 138.217 130.248 138.217 129.642C138.217 129.036 137.726 128.544 137.119 128.544Z" fill="#EF8B54"/>
<path d="M125.934 128.544H124.226C123.619 128.544 123.127 129.036 123.127 129.642C123.127 130.248 123.619 130.739 124.226 130.739H125.934C126.541 130.739 127.032 130.248 127.032 129.642C127.032 129.036 126.541 128.544 125.934 128.544Z" fill="#EF8B54"/>
<path d="M141.17 69.1462H75.8311C73.1675 69.1462 71 71.3132 71 73.9774V127.088C71 129.752 73.1675 131.918 75.8311 131.918H79.9619C80.5679 131.918 81.0594 131.428 81.0594 130.821C81.0594 130.215 80.5679 129.723 79.9619 129.723H75.8311C74.3777 129.723 73.1956 128.541 73.1956 127.088V122.924H113.185V124.816H112.315C111.124 124.816 110.156 125.784 110.156 126.975V129.723H86.6355C86.0296 129.723 85.5381 130.215 85.5381 130.821C85.5381 131.428 86.0296 131.918 86.6355 131.918H97.1893V135.855H93.8751C91.6641 135.855 89.8657 137.654 89.8657 139.865V142.236C89.8657 143.245 90.6862 144.065 91.695 144.065H125.222C126.231 144.065 127.051 143.245 127.051 142.236V139.865C127.051 137.654 125.253 135.855 123.042 135.855H119.727V134.468H140.02C141.21 134.468 142.178 133.499 142.178 132.309V131.792C144.317 131.295 145.917 129.376 145.917 127.088L146 73.9768C146 71.3132 143.833 69.1462 141.17 69.1462ZM112.352 120.311V115.049H139.983V120.311H112.352ZM115.38 112.854V110.544H136.954V112.854H115.38ZM136.954 122.506V124.816H115.38V122.506H136.954ZM99.3843 131.918H110.156V132.309C110.156 133.499 111.124 134.468 112.315 134.468H117.532V135.855H99.3843V131.918ZM123.042 138.051C124.042 138.051 124.856 138.864 124.856 139.865V141.87H92.0606V139.865C92.0606 138.864 92.8749 138.051 93.8751 138.051H123.042ZM139.983 132.272H112.352V127.011H139.983V132.272ZM143.722 127.088C143.722 128.151 143.088 129.067 142.179 129.483V126.974C142.179 125.784 141.21 124.816 140.02 124.816H139.149V122.924H143.722V127.088ZM143.722 120.729H142.142C142.165 120.605 142.179 115.013 142.179 115.013C142.179 113.822 141.21 112.854 140.02 112.854H139.149V110.544H140.02C141.21 110.544 142.179 109.576 142.179 108.385V103.051C142.179 101.86 141.21 100.892 140.02 100.892H133.82C133.213 100.892 132.722 101.383 132.722 101.99C132.722 102.596 133.213 103.087 133.82 103.087H139.983V108.349H112.352V103.087H126.99C127.596 103.087 128.087 102.596 128.087 101.99C128.087 101.383 127.596 100.892 126.99 100.892H112.315C111.124 100.892 110.156 101.86 110.156 103.051V108.385C110.156 109.576 111.124 110.544 112.315 110.544H113.185V112.854H112.315C111.124 112.854 110.156 113.822 110.156 115.013C110.156 115.013 110.17 120.605 110.192 120.729H73.1956V84.0774H143.722V120.729ZM143.722 81.8818H73.2762V73.9768C73.2762 72.524 74.4584 71.3418 75.9118 71.3418H141.086C142.54 71.3418 143.722 72.524 143.722 73.9774V81.8818Z" fill="#EF8B54"/>
<path d="M79.095 73.3594C77.3188 73.3594 75.874 74.8042 75.874 76.5803C75.874 78.3565 77.3188 79.8019 79.095 79.8019C80.8711 79.8019 82.3165 78.3565 82.3165 76.5803C82.3165 74.8042 80.8711 73.3594 79.095 73.3594ZM79.095 77.6063C78.5296 77.6063 78.069 77.1462 78.069 76.5803C78.069 76.015 78.5296 75.5544 79.095 75.5544C79.6609 75.5544 80.1209 76.015 80.1209 76.5803C80.1209 77.1462 79.6609 77.6063 79.095 77.6063Z" fill="#EF8B54"/>
<path d="M87.2965 73.3594C85.5203 73.3594 84.075 74.8042 84.075 76.5803C84.075 78.3565 85.5203 79.8019 87.2965 79.8019C89.0726 79.8019 90.5174 78.3565 90.5174 76.5803C90.5174 74.8042 89.072 73.3594 87.2965 73.3594ZM87.2965 77.6063C86.7306 77.6063 86.2705 77.1462 86.2705 76.5803C86.2705 76.015 86.7306 75.5544 87.2965 75.5544C87.8618 75.5544 88.3224 76.015 88.3224 76.5803C88.3224 77.1462 87.8618 77.6063 87.2965 77.6063Z" fill="#EF8B54"/>
<path d="M95.4972 73.3594C93.7211 73.3594 92.2763 74.8042 92.2763 76.5803C92.2763 78.3565 93.7211 79.8019 95.4972 79.8019C97.2734 79.8019 98.7188 78.3565 98.7188 76.5803C98.7188 74.8042 97.2734 73.3594 95.4972 73.3594ZM95.4972 77.6063C94.9319 77.6063 94.4713 77.1462 94.4713 76.5803C94.4713 76.015 94.9319 75.5544 95.4972 75.5544C96.0631 75.5544 96.5232 76.015 96.5232 76.5803C96.5232 77.1462 96.0631 77.6063 95.4972 77.6063Z" fill="#EF8B54"/>
</g>
<defs>
<filter id="filter0_d" x="0" y="0" width="220" height="220" filterUnits="userSpaceOnUse" color-interpolation-filters="sRGB">
<feFlood flood-opacity="0" result="BackgroundImageFix"/>
<feColorMatrix in="SourceAlpha" type="matrix" values="0 0 0 0 0 0 0 0 0 0 0 0 0 0 0 0 0 0 127 0"/>
<feOffset dx="2" dy="5"/>
<feGaussianBlur stdDeviation="10"/>
<feColorMatrix type="matrix" values="0 0 0 0 0 0 0 0 0 0 0 0 0 0 0 0 0 0 0.2 0"/>
<feBlend mode="normal" in2="BackgroundImageFix" result="effect1_dropShadow"/>
<feBlend mode="normal" in="SourceGraphic" in2="effect1_dropShadow" result="shape"/>
</filter>
<clipPath id="clip0">
<rect width="75" height="75" fill="white" transform="translate(71 69)"/>
</clipPath>
</defs>
</svg>
