<svg width="220" height="220" viewBox="0 0 220 220" fill="none" xmlns="http://www.w3.org/2000/svg">
<g filter="url(#filter0_d)">
<circle cx="103" cy="103" r="89.75" fill="white" stroke="#DBDBDB" stroke-width="0.5"/>
<g clip-path="url(#clip0)">
<path d="M101.5 80.0793L111.118 72.0645H123.71V59H92.3548V72.0645H101.5V80.0793ZM94.9677 69.4516V61.6129H121.097V69.4516H110.172L104.113 74.5014V69.4516H94.9677Z" fill="#1D1D1D"/>
<path d="M97.5807 64.2258H100.194V66.8387H97.5807V64.2258Z" fill="#1D1D1D"/>
<path d="M102.806 64.2258H113.258V66.8387H102.806V64.2258Z" fill="#1D1D1D"/>
<path d="M115.871 64.2258H118.484V66.8387H115.871V64.2258Z" fill="#1D1D1D"/>
<path d="M127.505 137.387L126.448 126.811C130.81 126.121 134.161 122.344 134.161 117.79V100.806H128.935V99.0011C128.935 97.2251 127.959 95.6303 126.39 94.8125C127.951 93.3791 128.935 91.3295 128.935 89.0483V86.4354C128.935 82.1122 125.42 78.5967 121.097 78.5967C116.774 78.5967 113.258 82.1122 113.258 86.4354V89.0483C113.258 92.4305 115.415 95.3101 118.423 96.4073L111.411 103.419H104.084C103.938 101.241 102.442 99.343 100.323 98.737L94.9677 97.2085V94.875C96.567 93.4391 97.5806 91.3633 97.5806 89.0483V86.4354C97.5806 82.1122 94.0651 78.5967 89.7419 78.5967C85.4188 78.5967 81.9032 82.1122 81.9032 86.4354V89.0483C81.9032 91.362 82.9169 93.4378 84.5161 94.875V97.2098L79.1608 98.7382C76.9294 99.3742 75.371 101.441 75.371 103.763V108.645H70.1452V116.484H72.7581V137.387H61V140H142V137.387H127.505ZM115.871 116.484V110.492L125.128 101.235C125.798 100.566 126.196 99.667 126.285 98.7293C126.296 98.8205 126.323 98.9066 126.323 99.0011V115.177C126.323 117.338 124.564 119.097 122.403 119.097H111.952V116.484H115.871ZM111.952 126.935H118.608L119.653 137.387H111.952V126.935ZM121.234 126.935H123.834L124.879 137.387H122.279L121.234 126.935ZM128.935 115.177V103.419H131.548V117.79C131.548 121.392 128.618 124.322 125.016 124.322H111.952V121.71H122.403C126.005 121.71 128.935 118.779 128.935 115.177ZM115.871 89.0483V86.4354C115.871 83.5533 118.215 81.2096 121.097 81.2096C123.979 81.2096 126.323 83.5533 126.323 86.4354V89.0483C126.323 91.9304 123.979 94.2741 121.097 94.2741C118.215 94.2741 115.871 91.9304 115.871 89.0483ZM112.493 106.032L121.209 97.3157C121.482 97.0427 121.86 96.887 122.245 96.887C123.053 96.887 123.71 97.5441 123.71 98.3517C123.71 98.737 123.554 99.1146 123.281 99.3876L114.024 108.645H100.194C99.4727 108.645 98.8871 108.059 98.8871 107.339C98.8871 106.618 99.4727 106.032 100.194 106.032H112.493ZM84.5161 86.4354C84.5161 83.5533 86.8598 81.2096 89.7419 81.2096C92.624 81.2096 94.9677 83.5533 94.9677 86.4354V89.0483C94.9677 91.9304 92.624 94.2741 89.7419 94.2741C86.8598 94.2741 84.5161 91.9304 84.5161 89.0483V86.4354ZM89.7419 96.887C90.6593 96.887 91.5358 96.7199 92.3548 96.4296V97.833C92.0308 98.3332 91.1307 99.4999 89.7419 99.4999C88.3532 99.4999 87.4531 98.3332 87.129 97.833V96.4296C87.9481 96.7199 88.8246 96.887 89.7419 96.887ZM77.9839 103.763C77.9839 102.601 78.764 101.569 79.8785 101.25L85.2606 99.713C86.0184 100.7 87.4933 102.113 89.7419 102.113C91.9906 102.113 93.4655 100.7 94.2233 99.7117L99.6054 101.249C100.606 101.535 101.304 102.406 101.444 103.418H100.194C98.0329 103.418 96.2742 105.177 96.2742 107.337C96.2742 107.797 96.368 108.234 96.5147 108.644H77.9839V103.763ZM72.7581 111.258H113.258V113.871H72.7581V111.258ZM75.371 121.71H79.2903V119.097H75.371V116.484H109.339V119.097H81.9032V121.71H109.339V137.387H106.227L103.614 132.161H81.0956L78.4827 137.387H75.371V121.71ZM103.305 137.387H81.4044L82.7108 134.774H101.999L103.305 137.387Z" fill="#1D1D1D"/>
</g>
</g>
<defs>
<filter id="filter0_d" x="0" y="0" width="220" height="220" filterUnits="userSpaceOnUse" color-interpolation-filters="sRGB">
<feFlood flood-opacity="0" result="BackgroundImageFix"/>
<feColorMatrix in="SourceAlpha" type="matrix" values="0 0 0 0 0 0 0 0 0 0 0 0 0 0 0 0 0 0 127 0"/>
<feOffset dx="7" dy="7"/>
<feGaussianBlur stdDeviation="10"/>
<feColorMatrix type="matrix" values="0 0 0 0 0 0 0 0 0 0 0 0 0 0 0 0 0 0 0.18 0"/>
<feBlend mode="normal" in2="BackgroundImageFix" result="effect1_dropShadow"/>
<feBlend mode="normal" in="SourceGraphic" in2="effect1_dropShadow" result="shape"/>
</filter>
<clipPath id="clip0">
<rect width="81" height="81" fill="white" transform="translate(61 59)"/>
</clipPath>
</defs>
</svg>
