<svg width="1000" height="85" viewBox="0 0 1000 85" fill="none" xmlns="http://www.w3.org/2000/svg">
<rect y="5" width="990" height="65" fill="#50386F"/>
<g filter="url(#filter0_d)">
<path d="M750 5H990V70H750V5Z" fill="url(#paint0_linear)"/>
</g>
<path d="M782.65 44.108C781.402 44.108 780.268 43.832 779.248 43.28C778.24 42.716 777.448 41.948 776.872 40.976C776.308 40.004 776.026 38.912 776.026 37.7C776.026 36.488 776.308 35.396 776.872 34.424C777.448 33.452 778.24 32.69 779.248 32.138C780.268 31.574 781.402 31.292 782.65 31.292C783.898 31.292 785.02 31.568 786.016 32.12C787.024 32.672 787.816 33.44 788.392 34.424C788.968 35.396 789.256 36.488 789.256 37.7C789.256 38.912 788.968 40.01 788.392 40.994C787.816 41.966 787.024 42.728 786.016 43.28C785.02 43.832 783.898 44.108 782.65 44.108ZM782.65 42.92C783.646 42.92 784.546 42.698 785.35 42.254C786.154 41.798 786.784 41.174 787.24 40.382C787.696 39.578 787.924 38.684 787.924 37.7C787.924 36.716 787.696 35.828 787.24 35.036C786.784 34.232 786.154 33.608 785.35 33.164C784.546 32.708 783.646 32.48 782.65 32.48C781.654 32.48 780.748 32.708 779.932 33.164C779.128 33.608 778.492 34.232 778.024 35.036C777.568 35.828 777.34 36.716 777.34 37.7C777.34 38.684 777.568 39.578 778.024 40.382C778.492 41.174 779.128 41.798 779.932 42.254C780.748 42.698 781.654 42.92 782.65 42.92ZM796.089 44.09C795.153 44.09 794.313 43.886 793.569 43.478C792.837 43.07 792.261 42.5 791.841 41.768C791.421 41.024 791.211 40.19 791.211 39.266C791.211 38.342 791.421 37.514 791.841 36.782C792.261 36.05 792.837 35.48 793.569 35.072C794.313 34.664 795.153 34.46 796.089 34.46C796.905 34.46 797.631 34.622 798.267 34.946C798.915 35.258 799.425 35.72 799.797 36.332L798.843 36.98C798.531 36.512 798.135 36.164 797.655 35.936C797.175 35.696 796.653 35.576 796.089 35.576C795.405 35.576 794.787 35.732 794.235 36.044C793.695 36.344 793.269 36.776 792.957 37.34C792.657 37.904 792.507 38.546 792.507 39.266C792.507 39.998 792.657 40.646 792.957 41.21C793.269 41.762 793.695 42.194 794.235 42.506C794.787 42.806 795.405 42.956 796.089 42.956C796.653 42.956 797.175 42.842 797.655 42.614C798.135 42.386 798.531 42.038 798.843 41.57L799.797 42.218C799.425 42.83 798.915 43.298 798.267 43.622C797.619 43.934 796.893 44.09 796.089 44.09ZM808.755 35.666H805.173V44H803.895V35.666H800.313V34.532H808.755V35.666ZM813.861 34.46C815.097 34.46 816.045 34.772 816.705 35.396C817.365 36.008 817.695 36.92 817.695 38.132V44H816.471V42.524C816.183 43.016 815.757 43.4 815.193 43.676C814.641 43.952 813.981 44.09 813.213 44.09C812.157 44.09 811.317 43.838 810.693 43.334C810.069 42.83 809.757 42.164 809.757 41.336C809.757 40.532 810.045 39.884 810.621 39.392C811.209 38.9 812.139 38.654 813.411 38.654H816.417V38.078C816.417 37.262 816.189 36.644 815.733 36.224C815.277 35.792 814.611 35.576 813.735 35.576C813.135 35.576 812.559 35.678 812.007 35.882C811.455 36.074 810.981 36.344 810.585 36.692L810.009 35.738C810.489 35.33 811.065 35.018 811.737 34.802C812.409 34.574 813.117 34.46 813.861 34.46ZM813.411 43.082C814.131 43.082 814.749 42.92 815.265 42.596C815.781 42.26 816.165 41.78 816.417 41.156V39.608H813.447C811.827 39.608 811.017 40.172 811.017 41.3C811.017 41.852 811.227 42.29 811.647 42.614C812.067 42.926 812.655 43.082 813.411 43.082ZM827.127 39.104C828.411 39.404 829.053 40.178 829.053 41.426C829.053 42.254 828.747 42.89 828.135 43.334C827.523 43.778 826.611 44 825.399 44H821.097V34.532H825.273C826.353 34.532 827.199 34.742 827.811 35.162C828.423 35.582 828.729 36.182 828.729 36.962C828.729 37.478 828.585 37.922 828.297 38.294C828.021 38.654 827.631 38.924 827.127 39.104ZM822.339 38.744H825.183C825.915 38.744 826.473 38.606 826.857 38.33C827.253 38.054 827.451 37.652 827.451 37.124C827.451 36.596 827.253 36.2 826.857 35.936C826.473 35.672 825.915 35.54 825.183 35.54H822.339V38.744ZM825.345 42.992C826.161 42.992 826.773 42.86 827.181 42.596C827.589 42.332 827.793 41.918 827.793 41.354C827.793 40.79 827.607 40.376 827.235 40.112C826.863 39.836 826.275 39.698 825.471 39.698H822.339V42.992H825.345ZM832.048 34.532H833.326V42.056L839.644 34.532H840.778V44H839.5V36.476L833.2 44H832.048V34.532ZM851.101 35.666H847.519V44H846.241V35.666H842.659V34.532H851.101V35.666ZM857.017 37.88C858.205 37.892 859.105 38.156 859.717 38.672C860.341 39.188 860.653 39.932 860.653 40.904C860.653 41.912 860.317 42.686 859.645 43.226C858.985 43.766 858.025 44.03 856.765 44.018L852.949 44V34.532H854.227V37.844L857.017 37.88ZM856.693 43.046C857.569 43.058 858.229 42.884 858.673 42.524C859.129 42.152 859.357 41.612 859.357 40.904C859.357 40.208 859.135 39.692 858.691 39.356C858.247 39.02 857.581 38.846 856.693 38.834L854.227 38.798V43.01L856.693 43.046ZM872.41 39.068C873.082 39.224 873.598 39.494 873.958 39.878C874.33 40.262 874.516 40.73 874.516 41.282C874.516 41.834 874.324 42.326 873.94 42.758C873.568 43.19 873.058 43.526 872.41 43.766C871.762 43.994 871.048 44.108 870.268 44.108C869.584 44.108 868.912 44.012 868.252 43.82C867.592 43.616 867.016 43.322 866.524 42.938L866.956 41.984C867.388 42.308 867.892 42.56 868.468 42.74C869.044 42.92 869.626 43.01 870.214 43.01C871.09 43.01 871.804 42.848 872.356 42.524C872.92 42.188 873.202 41.738 873.202 41.174C873.202 40.67 872.974 40.28 872.518 40.004C872.062 39.716 871.438 39.572 870.646 39.572H869.026V38.636H870.574C871.282 38.636 871.852 38.504 872.284 38.24C872.716 37.964 872.932 37.598 872.932 37.142C872.932 36.638 872.686 36.242 872.194 35.954C871.714 35.666 871.084 35.522 870.304 35.522C869.284 35.522 868.276 35.78 867.28 36.296L866.92 35.306C868.048 34.718 869.218 34.424 870.43 34.424C871.15 34.424 871.798 34.532 872.374 34.748C872.962 34.952 873.418 35.246 873.742 35.63C874.078 36.014 874.246 36.458 874.246 36.962C874.246 37.442 874.078 37.868 873.742 38.24C873.418 38.612 872.974 38.888 872.41 39.068ZM880.676 34.46C881.912 34.46 882.86 34.772 883.52 35.396C884.18 36.008 884.51 36.92 884.51 38.132V44H883.286V42.524C882.998 43.016 882.572 43.4 882.008 43.676C881.456 43.952 880.796 44.09 880.028 44.09C878.972 44.09 878.132 43.838 877.508 43.334C876.884 42.83 876.572 42.164 876.572 41.336C876.572 40.532 876.86 39.884 877.436 39.392C878.024 38.9 878.954 38.654 880.226 38.654H883.232V38.078C883.232 37.262 883.004 36.644 882.548 36.224C882.092 35.792 881.426 35.576 880.55 35.576C879.95 35.576 879.374 35.678 878.822 35.882C878.27 36.074 877.796 36.344 877.4 36.692L876.824 35.738C877.304 35.33 877.88 35.018 878.552 34.802C879.224 34.574 879.932 34.46 880.676 34.46ZM880.226 43.082C880.946 43.082 881.564 42.92 882.08 42.596C882.596 42.26 882.98 41.78 883.232 41.156V39.608H880.262C878.642 39.608 877.832 40.172 877.832 41.3C877.832 41.852 878.042 42.29 878.462 42.614C878.882 42.926 879.47 43.082 880.226 43.082ZM895.184 34.532V44H894.014V40.868H891.044H890.684L888.488 44H887.102L889.46 40.688C888.728 40.484 888.164 40.136 887.768 39.644C887.372 39.152 887.174 38.528 887.174 37.772C887.174 36.716 887.534 35.912 888.254 35.36C888.974 34.808 889.958 34.532 891.206 34.532H895.184ZM888.47 37.808C888.47 39.212 889.364 39.914 891.152 39.914H894.014V35.666H891.242C889.394 35.666 888.47 36.38 888.47 37.808ZM904.858 39.104C906.142 39.404 906.784 40.178 906.784 41.426C906.784 42.254 906.478 42.89 905.866 43.334C905.254 43.778 904.342 44 903.13 44H898.828V34.532H903.004C904.084 34.532 904.93 34.742 905.542 35.162C906.154 35.582 906.46 36.182 906.46 36.962C906.46 37.478 906.316 37.922 906.028 38.294C905.752 38.654 905.362 38.924 904.858 39.104ZM900.07 38.744H902.914C903.646 38.744 904.204 38.606 904.588 38.33C904.984 38.054 905.182 37.652 905.182 37.124C905.182 36.596 904.984 36.2 904.588 35.936C904.204 35.672 903.646 35.54 902.914 35.54H900.07V38.744ZM903.076 42.992C903.892 42.992 904.504 42.86 904.912 42.596C905.32 42.332 905.524 41.918 905.524 41.354C905.524 40.79 905.338 40.376 904.966 40.112C904.594 39.836 904.006 39.698 903.202 39.698H900.07V42.992H903.076ZM913.217 39.788H911.057V44H909.779V34.532H911.057V38.69H913.235L916.565 34.532H917.951L914.225 39.122L918.221 44H916.709L913.217 39.788ZM927.739 34.532L923.005 45.134C922.621 46.022 922.177 46.652 921.673 47.024C921.169 47.396 920.563 47.582 919.855 47.582C919.399 47.582 918.973 47.51 918.577 47.366C918.181 47.222 917.839 47.006 917.551 46.718L918.145 45.764C918.625 46.244 919.201 46.484 919.873 46.484C920.305 46.484 920.671 46.364 920.971 46.124C921.283 45.884 921.571 45.476 921.835 44.9L922.249 43.982L918.019 34.532H919.351L922.915 42.578L926.479 34.532H927.739Z" fill="white"/>
<path fill-rule="evenodd" clip-rule="evenodd" d="M953.7 32.3239C953.466 32.3239 953.276 32.134 953.276 31.8997C953.276 31.6655 953.466 31.4756 953.7 31.4756L960.721 31.4756C960.861 31.4756 960.985 31.5431 961.062 31.6473C961.166 31.7246 961.234 31.8485 961.234 31.9882L961.234 39.0091C961.234 39.2434 961.044 39.4333 960.809 39.4333C960.575 39.4333 960.385 39.2434 960.385 39.0091L960.385 32.7638L947.753 45.3957C947.588 45.5614 947.319 45.5614 947.154 45.3957C946.988 45.2301 946.988 44.9616 947.154 44.7959L959.626 32.3239L953.7 32.3239Z" fill="white"/>
<path d="M37.65 44.108C36.402 44.108 35.268 43.832 34.248 43.28C33.24 42.716 32.448 41.948 31.872 40.976C31.308 40.004 31.026 38.912 31.026 37.7C31.026 36.488 31.308 35.396 31.872 34.424C32.448 33.452 33.24 32.69 34.248 32.138C35.268 31.574 36.402 31.292 37.65 31.292C38.898 31.292 40.02 31.568 41.016 32.12C42.024 32.672 42.816 33.44 43.392 34.424C43.968 35.396 44.256 36.488 44.256 37.7C44.256 38.912 43.968 40.01 43.392 40.994C42.816 41.966 42.024 42.728 41.016 43.28C40.02 43.832 38.898 44.108 37.65 44.108ZM37.65 42.92C38.646 42.92 39.546 42.698 40.35 42.254C41.154 41.798 41.784 41.174 42.24 40.382C42.696 39.578 42.924 38.684 42.924 37.7C42.924 36.716 42.696 35.828 42.24 35.036C41.784 34.232 41.154 33.608 40.35 33.164C39.546 32.708 38.646 32.48 37.65 32.48C36.654 32.48 35.748 32.708 34.932 33.164C34.128 33.608 33.492 34.232 33.024 35.036C32.568 35.828 32.34 36.716 32.34 37.7C32.34 38.684 32.568 39.578 33.024 40.382C33.492 41.174 34.128 41.798 34.932 42.254C35.748 42.698 36.654 42.92 37.65 42.92ZM51.0885 44.09C50.1525 44.09 49.3125 43.886 48.5685 43.478C47.8365 43.07 47.2605 42.5 46.8405 41.768C46.4205 41.024 46.2105 40.19 46.2105 39.266C46.2105 38.342 46.4205 37.514 46.8405 36.782C47.2605 36.05 47.8365 35.48 48.5685 35.072C49.3125 34.664 50.1525 34.46 51.0885 34.46C51.9045 34.46 52.6305 34.622 53.2665 34.946C53.9145 35.258 54.4245 35.72 54.7965 36.332L53.8425 36.98C53.5305 36.512 53.1345 36.164 52.6545 35.936C52.1745 35.696 51.6525 35.576 51.0885 35.576C50.4045 35.576 49.7865 35.732 49.2345 36.044C48.6945 36.344 48.2685 36.776 47.9565 37.34C47.6565 37.904 47.5065 38.546 47.5065 39.266C47.5065 39.998 47.6565 40.646 47.9565 41.21C48.2685 41.762 48.6945 42.194 49.2345 42.506C49.7865 42.806 50.4045 42.956 51.0885 42.956C51.6525 42.956 52.1745 42.842 52.6545 42.614C53.1345 42.386 53.5305 42.038 53.8425 41.57L54.7965 42.218C54.4245 42.83 53.9145 43.298 53.2665 43.622C52.6185 43.934 51.8925 44.09 51.0885 44.09ZM63.7553 35.666H60.1733V44H58.8953V35.666H55.3133V34.532H63.7553V35.666ZM68.8612 34.46C70.0972 34.46 71.0452 34.772 71.7052 35.396C72.3652 36.008 72.6952 36.92 72.6952 38.132V44H71.4712V42.524C71.1832 43.016 70.7572 43.4 70.1932 43.676C69.6412 43.952 68.9812 44.09 68.2132 44.09C67.1572 44.09 66.3172 43.838 65.6932 43.334C65.0692 42.83 64.7572 42.164 64.7572 41.336C64.7572 40.532 65.0452 39.884 65.6212 39.392C66.2092 38.9 67.1392 38.654 68.4112 38.654H71.4172V38.078C71.4172 37.262 71.1892 36.644 70.7332 36.224C70.2772 35.792 69.6112 35.576 68.7352 35.576C68.1352 35.576 67.5592 35.678 67.0072 35.882C66.4552 36.074 65.9812 36.344 65.5852 36.692L65.0092 35.738C65.4892 35.33 66.0652 35.018 66.7372 34.802C67.4092 34.574 68.1172 34.46 68.8612 34.46ZM68.4112 43.082C69.1312 43.082 69.7492 42.92 70.2652 42.596C70.7812 42.26 71.1652 41.78 71.4172 41.156V39.608H68.4472C66.8272 39.608 66.0172 40.172 66.0172 41.3C66.0172 41.852 66.2272 42.29 66.6472 42.614C67.0672 42.926 67.6552 43.082 68.4112 43.082ZM82.1273 39.104C83.4113 39.404 84.0533 40.178 84.0533 41.426C84.0533 42.254 83.7473 42.89 83.1353 43.334C82.5233 43.778 81.6113 44 80.3993 44H76.0973V34.532H80.2733C81.3533 34.532 82.1993 34.742 82.8113 35.162C83.4233 35.582 83.7293 36.182 83.7293 36.962C83.7293 37.478 83.5853 37.922 83.2973 38.294C83.0213 38.654 82.6313 38.924 82.1273 39.104ZM77.3393 38.744H80.1833C80.9153 38.744 81.4733 38.606 81.8573 38.33C82.2533 38.054 82.4513 37.652 82.4513 37.124C82.4513 36.596 82.2533 36.2 81.8573 35.936C81.4733 35.672 80.9153 35.54 80.1833 35.54H77.3393V38.744ZM80.3453 42.992C81.1613 42.992 81.7733 42.86 82.1813 42.596C82.5893 42.332 82.7933 41.918 82.7933 41.354C82.7933 40.79 82.6073 40.376 82.2353 40.112C81.8633 39.836 81.2753 39.698 80.4713 39.698H77.3393V42.992H80.3453ZM91.1165 37.88C92.3045 37.892 93.2045 38.156 93.8165 38.672C94.4405 39.188 94.7525 39.932 94.7525 40.904C94.7525 41.912 94.4165 42.686 93.7445 43.226C93.0845 43.766 92.1245 44.03 90.8645 44.018L87.0485 44V34.532H88.3265V37.844L91.1165 37.88ZM90.7925 43.046C91.6685 43.058 92.3285 42.884 92.7725 42.524C93.2285 42.152 93.4565 41.612 93.4565 40.904C93.4565 40.208 93.2345 39.692 92.7905 39.356C92.3465 39.02 91.6805 38.846 90.7925 38.834L88.3265 38.798V43.01L90.7925 43.046ZM102.902 35.666H99.3198V44H98.0418V35.666H94.4598V34.532H102.902V35.666ZM112.59 39.662H104.67C104.742 40.646 105.12 41.444 105.804 42.056C106.488 42.656 107.352 42.956 108.396 42.956C108.984 42.956 109.524 42.854 110.016 42.65C110.508 42.434 110.934 42.122 111.294 41.714L112.014 42.542C111.594 43.046 111.066 43.43 110.43 43.694C109.806 43.958 109.116 44.09 108.36 44.09C107.388 44.09 106.524 43.886 105.768 43.478C105.024 43.058 104.442 42.482 104.022 41.75C103.602 41.018 103.392 40.19 103.392 39.266C103.392 38.342 103.59 37.514 103.986 36.782C104.394 36.05 104.946 35.48 105.642 35.072C106.35 34.664 107.142 34.46 108.018 34.46C108.894 34.46 109.68 34.664 110.376 35.072C111.072 35.48 111.618 36.05 112.014 36.782C112.41 37.502 112.608 38.33 112.608 39.266L112.59 39.662ZM108.018 35.558C107.106 35.558 106.338 35.852 105.714 36.44C105.102 37.016 104.754 37.772 104.67 38.708H111.384C111.3 37.772 110.946 37.016 110.322 36.44C109.71 35.852 108.942 35.558 108.018 35.558ZM128.819 44.09C127.883 44.09 127.043 43.886 126.299 43.478C125.567 43.07 124.991 42.5 124.571 41.768C124.151 41.024 123.941 40.19 123.941 39.266C123.941 38.342 124.151 37.514 124.571 36.782C124.991 36.05 125.567 35.48 126.299 35.072C127.043 34.664 127.883 34.46 128.819 34.46C129.635 34.46 130.361 34.622 130.997 34.946C131.645 35.258 132.155 35.72 132.527 36.332L131.573 36.98C131.261 36.512 130.865 36.164 130.385 35.936C129.905 35.696 129.383 35.576 128.819 35.576C128.135 35.576 127.517 35.732 126.965 36.044C126.425 36.344 125.999 36.776 125.687 37.34C125.387 37.904 125.237 38.546 125.237 39.266C125.237 39.998 125.387 40.646 125.687 41.21C125.999 41.762 126.425 42.194 126.965 42.506C127.517 42.806 128.135 42.956 128.819 42.956C129.383 42.956 129.905 42.842 130.385 42.614C130.865 42.386 131.261 42.038 131.573 41.57L132.527 42.218C132.155 42.83 131.645 43.298 130.997 43.622C130.349 43.934 129.623 44.09 128.819 44.09ZM141.032 39.104C142.316 39.404 142.958 40.178 142.958 41.426C142.958 42.254 142.652 42.89 142.04 43.334C141.428 43.778 140.516 44 139.304 44H135.002V34.532H139.178C140.258 34.532 141.104 34.742 141.716 35.162C142.328 35.582 142.634 36.182 142.634 36.962C142.634 37.478 142.49 37.922 142.202 38.294C141.926 38.654 141.536 38.924 141.032 39.104ZM136.244 38.744H139.088C139.82 38.744 140.378 38.606 140.762 38.33C141.158 38.054 141.356 37.652 141.356 37.124C141.356 36.596 141.158 36.2 140.762 35.936C140.378 35.672 139.82 35.54 139.088 35.54H136.244V38.744ZM139.25 42.992C140.066 42.992 140.678 42.86 141.086 42.596C141.494 42.332 141.698 41.918 141.698 41.354C141.698 40.79 141.512 40.376 141.14 40.112C140.768 39.836 140.18 39.698 139.376 39.698H136.244V42.992H139.25ZM149.859 44.09C148.947 44.09 148.125 43.886 147.393 43.478C146.661 43.058 146.085 42.482 145.665 41.75C145.245 41.018 145.035 40.19 145.035 39.266C145.035 38.342 145.245 37.514 145.665 36.782C146.085 36.05 146.661 35.48 147.393 35.072C148.125 34.664 148.947 34.46 149.859 34.46C150.771 34.46 151.593 34.664 152.325 35.072C153.057 35.48 153.627 36.05 154.035 36.782C154.455 37.514 154.665 38.342 154.665 39.266C154.665 40.19 154.455 41.018 154.035 41.75C153.627 42.482 153.057 43.058 152.325 43.478C151.593 43.886 150.771 44.09 149.859 44.09ZM149.859 42.956C150.531 42.956 151.131 42.806 151.659 42.506C152.199 42.194 152.619 41.756 152.919 41.192C153.219 40.628 153.369 39.986 153.369 39.266C153.369 38.546 153.219 37.904 152.919 37.34C152.619 36.776 152.199 36.344 151.659 36.044C151.131 35.732 150.531 35.576 149.859 35.576C149.187 35.576 148.581 35.732 148.041 36.044C147.513 36.344 147.093 36.776 146.781 37.34C146.481 37.904 146.331 38.546 146.331 39.266C146.331 39.986 146.481 40.628 146.781 41.192C147.093 41.756 147.513 42.194 148.041 42.506C148.581 42.806 149.187 42.956 149.859 42.956ZM165.532 34.46C166.42 34.46 167.218 34.664 167.926 35.072C168.646 35.48 169.21 36.05 169.618 36.782C170.026 37.514 170.23 38.342 170.23 39.266C170.23 40.19 170.026 41.018 169.618 41.75C169.21 42.482 168.646 43.058 167.926 43.478C167.218 43.886 166.42 44.09 165.532 44.09C164.692 44.09 163.93 43.91 163.246 43.55C162.562 43.178 162.004 42.668 161.572 42.02C161.152 41.372 160.906 40.628 160.834 39.788H158.674V44H157.396V34.532H158.674V38.618H160.852C160.948 37.802 161.206 37.082 161.626 36.458C162.058 35.822 162.61 35.33 163.282 34.982C163.954 34.634 164.704 34.46 165.532 34.46ZM165.532 42.974C166.18 42.974 166.762 42.818 167.278 42.506C167.806 42.194 168.22 41.756 168.52 41.192C168.82 40.628 168.97 39.986 168.97 39.266C168.97 38.546 168.82 37.904 168.52 37.34C168.22 36.776 167.806 36.344 167.278 36.044C166.762 35.732 166.18 35.576 165.532 35.576C164.884 35.576 164.296 35.732 163.768 36.044C163.252 36.344 162.844 36.776 162.544 37.34C162.244 37.904 162.094 38.546 162.094 39.266C162.094 39.986 162.244 40.628 162.544 41.192C162.844 41.756 163.252 42.194 163.768 42.506C164.296 42.818 164.884 42.974 165.532 42.974ZM182.289 39.068C182.961 39.224 183.477 39.494 183.837 39.878C184.209 40.262 184.395 40.73 184.395 41.282C184.395 41.834 184.203 42.326 183.819 42.758C183.447 43.19 182.937 43.526 182.289 43.766C181.641 43.994 180.927 44.108 180.147 44.108C179.463 44.108 178.791 44.012 178.131 43.82C177.471 43.616 176.895 43.322 176.403 42.938L176.835 41.984C177.267 42.308 177.771 42.56 178.347 42.74C178.923 42.92 179.505 43.01 180.093 43.01C180.969 43.01 181.683 42.848 182.235 42.524C182.799 42.188 183.081 41.738 183.081 41.174C183.081 40.67 182.853 40.28 182.397 40.004C181.941 39.716 181.317 39.572 180.525 39.572H178.905V38.636H180.453C181.161 38.636 181.731 38.504 182.163 38.24C182.595 37.964 182.811 37.598 182.811 37.142C182.811 36.638 182.565 36.242 182.073 35.954C181.593 35.666 180.963 35.522 180.183 35.522C179.163 35.522 178.155 35.78 177.159 36.296L176.799 35.306C177.927 34.718 179.097 34.424 180.309 34.424C181.029 34.424 181.677 34.532 182.253 34.748C182.841 34.952 183.297 35.246 183.621 35.63C183.957 36.014 184.125 36.458 184.125 36.962C184.125 37.442 183.957 37.868 183.621 38.24C183.297 38.612 182.853 38.888 182.289 39.068ZM190.555 34.46C191.791 34.46 192.739 34.772 193.399 35.396C194.059 36.008 194.389 36.92 194.389 38.132V44H193.165V42.524C192.877 43.016 192.451 43.4 191.887 43.676C191.335 43.952 190.675 44.09 189.907 44.09C188.851 44.09 188.011 43.838 187.387 43.334C186.763 42.83 186.451 42.164 186.451 41.336C186.451 40.532 186.739 39.884 187.315 39.392C187.903 38.9 188.833 38.654 190.105 38.654H193.111V38.078C193.111 37.262 192.883 36.644 192.427 36.224C191.971 35.792 191.305 35.576 190.429 35.576C189.829 35.576 189.253 35.678 188.701 35.882C188.149 36.074 187.675 36.344 187.279 36.692L186.703 35.738C187.183 35.33 187.759 35.018 188.431 34.802C189.103 34.574 189.811 34.46 190.555 34.46ZM190.105 43.082C190.825 43.082 191.443 42.92 191.959 42.596C192.475 42.26 192.859 41.78 193.111 41.156V39.608H190.141C188.521 39.608 187.711 40.172 187.711 41.3C187.711 41.852 187.921 42.29 188.341 42.614C188.761 42.926 189.349 43.082 190.105 43.082ZM205.063 34.532V44H203.893V40.868H200.923H200.563L198.367 44H196.981L199.339 40.688C198.607 40.484 198.043 40.136 197.647 39.644C197.251 39.152 197.053 38.528 197.053 37.772C197.053 36.716 197.413 35.912 198.133 35.36C198.853 34.808 199.837 34.532 201.085 34.532H205.063ZM198.349 37.808C198.349 39.212 199.243 39.914 201.031 39.914H203.893V35.666H201.121C199.273 35.666 198.349 36.38 198.349 37.808ZM214.737 39.104C216.021 39.404 216.663 40.178 216.663 41.426C216.663 42.254 216.357 42.89 215.745 43.334C215.133 43.778 214.221 44 213.009 44H208.707V34.532H212.883C213.963 34.532 214.809 34.742 215.421 35.162C216.033 35.582 216.339 36.182 216.339 36.962C216.339 37.478 216.195 37.922 215.907 38.294C215.631 38.654 215.241 38.924 214.737 39.104ZM209.949 38.744H212.793C213.525 38.744 214.083 38.606 214.467 38.33C214.863 38.054 215.061 37.652 215.061 37.124C215.061 36.596 214.863 36.2 214.467 35.936C214.083 35.672 213.525 35.54 212.793 35.54H209.949V38.744ZM212.955 42.992C213.771 42.992 214.383 42.86 214.791 42.596C215.199 42.332 215.403 41.918 215.403 41.354C215.403 40.79 215.217 40.376 214.845 40.112C214.473 39.836 213.885 39.698 213.081 39.698H209.949V42.992H212.955ZM223.096 39.788H220.936V44H219.658V34.532H220.936V38.69H223.114L226.444 34.532H227.83L224.104 39.122L228.1 44H226.588L223.096 39.788ZM237.618 34.532L232.884 45.134C232.5 46.022 232.056 46.652 231.552 47.024C231.048 47.396 230.442 47.582 229.734 47.582C229.278 47.582 228.852 47.51 228.456 47.366C228.06 47.222 227.718 47.006 227.43 46.718L228.024 45.764C228.504 46.244 229.08 46.484 229.752 46.484C230.184 46.484 230.55 46.364 230.85 46.124C231.162 45.884 231.45 45.476 231.714 44.9L232.128 43.982L227.898 34.532H229.23L232.794 42.578L236.358 34.532H237.618ZM239.102 42.128C239.378 42.128 239.606 42.224 239.786 42.416C239.966 42.596 240.056 42.824 240.056 43.1C240.056 43.244 240.032 43.4 239.984 43.568C239.948 43.736 239.888 43.928 239.804 44.144L239.048 46.628H238.184L238.796 44.018C238.604 43.958 238.448 43.85 238.328 43.694C238.208 43.526 238.148 43.328 238.148 43.1C238.148 42.824 238.238 42.596 238.418 42.416C238.598 42.224 238.826 42.128 239.102 42.128ZM254.665 34.532V44H253.387V40.058C252.295 40.538 251.221 40.778 250.165 40.778C249.025 40.778 248.137 40.52 247.501 40.004C246.865 39.476 246.547 38.69 246.547 37.646V34.532H247.825V37.574C247.825 38.282 248.053 38.822 248.509 39.194C248.965 39.554 249.595 39.734 250.399 39.734C251.287 39.734 252.283 39.5 253.387 39.032V34.532H254.665ZM264.955 35.666H261.373V44H260.095V35.666H256.513V34.532H264.955V35.666ZM270.269 44.09C269.357 44.09 268.535 43.886 267.803 43.478C267.071 43.058 266.495 42.482 266.075 41.75C265.655 41.018 265.445 40.19 265.445 39.266C265.445 38.342 265.655 37.514 266.075 36.782C266.495 36.05 267.071 35.48 267.803 35.072C268.535 34.664 269.357 34.46 270.269 34.46C271.181 34.46 272.003 34.664 272.735 35.072C273.467 35.48 274.037 36.05 274.445 36.782C274.865 37.514 275.075 38.342 275.075 39.266C275.075 40.19 274.865 41.018 274.445 41.75C274.037 42.482 273.467 43.058 272.735 43.478C272.003 43.886 271.181 44.09 270.269 44.09ZM270.269 42.956C270.941 42.956 271.541 42.806 272.069 42.506C272.609 42.194 273.029 41.756 273.329 41.192C273.629 40.628 273.779 39.986 273.779 39.266C273.779 38.546 273.629 37.904 273.329 37.34C273.029 36.776 272.609 36.344 272.069 36.044C271.541 35.732 270.941 35.576 270.269 35.576C269.597 35.576 268.991 35.732 268.451 36.044C267.923 36.344 267.503 36.776 267.191 37.34C266.891 37.904 266.741 38.546 266.741 39.266C266.741 39.986 266.891 40.628 267.191 41.192C267.503 41.756 267.923 42.194 268.451 42.506C268.991 42.806 269.597 42.956 270.269 42.956ZM282.396 34.766C283.272 34.766 284.052 34.964 284.736 35.36C285.432 35.744 285.972 36.29 286.356 36.998C286.74 37.694 286.932 38.492 286.932 39.392C286.932 40.316 286.728 41.138 286.32 41.858C285.924 42.566 285.366 43.118 284.646 43.514C283.926 43.91 283.098 44.108 282.162 44.108C280.59 44.108 279.372 43.556 278.508 42.452C277.644 41.348 277.212 39.824 277.212 37.88C277.212 35.852 277.596 34.298 278.364 33.218C279.144 32.138 280.356 31.406 282 31.022L286.248 30.05L286.464 31.22L282.468 32.138C281.112 32.438 280.116 32.972 279.48 33.74C278.844 34.496 278.496 35.618 278.436 37.106C278.82 36.374 279.354 35.804 280.038 35.396C280.722 34.976 281.508 34.766 282.396 34.766ZM282.198 43.046C282.858 43.046 283.446 42.896 283.962 42.596C284.49 42.284 284.898 41.852 285.186 41.3C285.486 40.748 285.636 40.124 285.636 39.428C285.636 38.732 285.492 38.12 285.204 37.592C284.916 37.064 284.508 36.656 283.98 36.368C283.464 36.068 282.87 35.918 282.198 35.918C281.526 35.918 280.926 36.068 280.398 36.368C279.882 36.656 279.474 37.064 279.174 37.592C278.886 38.12 278.742 38.732 278.742 39.428C278.742 40.124 278.886 40.748 279.174 41.3C279.474 41.852 279.888 42.284 280.416 42.596C280.944 42.896 281.538 43.046 282.198 43.046ZM293.65 37.88C294.838 37.892 295.744 38.156 296.368 38.672C296.992 39.188 297.304 39.932 297.304 40.904C297.304 41.912 296.968 42.686 296.296 43.226C295.624 43.766 294.664 44.03 293.416 44.018L289.672 44V34.532H290.95V37.844L293.65 37.88ZM298.888 34.532H300.166V44H298.888V34.532ZM293.344 43.046C294.22 43.058 294.88 42.884 295.324 42.524C295.78 42.152 296.008 41.612 296.008 40.904C296.008 40.208 295.786 39.692 295.342 39.356C294.898 39.02 294.232 38.846 293.344 38.834L290.95 38.798V43.01L293.344 43.046ZM317.011 34.532V44H315.733V35.666H309.793V44H308.515V34.532H317.011ZM324.55 44.09C323.638 44.09 322.816 43.886 322.084 43.478C321.352 43.058 320.776 42.482 320.356 41.75C319.936 41.018 319.726 40.19 319.726 39.266C319.726 38.342 319.936 37.514 320.356 36.782C320.776 36.05 321.352 35.48 322.084 35.072C322.816 34.664 323.638 34.46 324.55 34.46C325.462 34.46 326.284 34.664 327.016 35.072C327.748 35.48 328.318 36.05 328.726 36.782C329.146 37.514 329.356 38.342 329.356 39.266C329.356 40.19 329.146 41.018 328.726 41.75C328.318 42.482 327.748 43.058 327.016 43.478C326.284 43.886 325.462 44.09 324.55 44.09ZM324.55 42.956C325.222 42.956 325.822 42.806 326.35 42.506C326.89 42.194 327.31 41.756 327.61 41.192C327.91 40.628 328.06 39.986 328.06 39.266C328.06 38.546 327.91 37.904 327.61 37.34C327.31 36.776 326.89 36.344 326.35 36.044C325.822 35.732 325.222 35.576 324.55 35.576C323.878 35.576 323.272 35.732 322.732 36.044C322.204 36.344 321.784 36.776 321.472 37.34C321.172 37.904 321.022 38.546 321.022 39.266C321.022 39.986 321.172 40.628 321.472 41.192C321.784 41.756 322.204 42.194 322.732 42.506C323.272 42.806 323.878 42.956 324.55 42.956ZM339.775 34.532V44H338.497V35.666H333.961L333.835 38.006C333.739 39.974 333.511 41.486 333.151 42.542C332.791 43.598 332.149 44.126 331.225 44.126C330.973 44.126 330.667 44.078 330.307 43.982L330.397 42.884C330.613 42.932 330.763 42.956 330.847 42.956C331.339 42.956 331.711 42.728 331.963 42.272C332.215 41.816 332.383 41.252 332.467 40.58C332.551 39.908 332.623 39.02 332.683 37.916L332.845 34.532H339.775ZM351.454 34.532L346.72 45.134C346.336 46.022 345.892 46.652 345.388 47.024C344.884 47.396 344.278 47.582 343.57 47.582C343.114 47.582 342.688 47.51 342.292 47.366C341.896 47.222 341.554 47.006 341.266 46.718L341.86 45.764C342.34 46.244 342.916 46.484 343.588 46.484C344.02 46.484 344.386 46.364 344.686 46.124C344.998 45.884 345.286 45.476 345.55 44.9L345.964 43.982L341.734 34.532H343.066L346.63 42.578L350.194 34.532H351.454ZM360.591 34.532V44H359.313V40.058C358.221 40.538 357.147 40.778 356.091 40.778C354.951 40.778 354.063 40.52 353.427 40.004C352.791 39.476 352.473 38.69 352.473 37.646V34.532H353.751V37.574C353.751 38.282 353.979 38.822 354.435 39.194C354.891 39.554 355.521 39.734 356.325 39.734C357.213 39.734 358.209 39.5 359.313 39.032V34.532H360.591ZM364.22 34.532H365.498V42.056L371.816 34.532H372.95V44H371.672V36.476L365.372 44H364.22V34.532ZM383.273 35.666H379.691V44H378.413V35.666H374.831V34.532H383.273V35.666ZM389.189 37.88C390.377 37.892 391.277 38.156 391.889 38.672C392.513 39.188 392.825 39.932 392.825 40.904C392.825 41.912 392.489 42.686 391.817 43.226C391.157 43.766 390.197 44.03 388.937 44.018L385.121 44V34.532H386.399V37.844L389.189 37.88ZM388.865 43.046C389.741 43.058 390.401 42.884 390.845 42.524C391.301 42.152 391.529 41.612 391.529 40.904C391.529 40.208 391.307 39.692 390.863 39.356C390.419 39.02 389.753 38.846 388.865 38.834L386.399 38.798V43.01L388.865 43.046ZM399.938 31.4H409.748V33.326H402.242V36.422H405.968C407.48 36.422 408.626 36.74 409.406 37.376C410.198 38 410.594 38.906 410.594 40.094C410.594 41.342 410.162 42.308 409.298 42.992C408.434 43.664 407.204 44 405.608 44H399.938V31.4ZM405.482 42.2C406.382 42.2 407.066 42.026 407.534 41.678C408.002 41.33 408.236 40.826 408.236 40.166C408.236 38.87 407.318 38.222 405.482 38.222H402.242V42.2H405.482ZM422.607 42.038V44H413.157V31.4H422.355V33.362H415.497V36.638H421.581V38.564H415.497V42.038H422.607ZM430.958 44.18C429.686 44.18 428.534 43.904 427.502 43.352C426.482 42.788 425.678 42.014 425.09 41.03C424.514 40.046 424.226 38.936 424.226 37.7C424.226 36.464 424.52 35.354 425.108 34.37C425.696 33.386 426.5 32.618 427.52 32.066C428.552 31.502 429.704 31.22 430.976 31.22C432.008 31.22 432.95 31.4 433.802 31.76C434.654 32.12 435.374 32.642 435.962 33.326L434.45 34.748C433.538 33.764 432.416 33.272 431.084 33.272C430.22 33.272 429.446 33.464 428.762 33.848C428.078 34.22 427.544 34.742 427.16 35.414C426.776 36.086 426.584 36.848 426.584 37.7C426.584 38.552 426.776 39.314 427.16 39.986C427.544 40.658 428.078 41.186 428.762 41.57C429.446 41.942 430.22 42.128 431.084 42.128C432.416 42.128 433.538 41.63 434.45 40.634L435.962 42.074C435.374 42.758 434.648 43.28 433.784 43.64C432.932 44 431.99 44.18 430.958 44.18ZM449.295 31.4V44H446.991V33.38H440.457V44H438.153V31.4H449.295ZM463.489 31.4V44H461.185V33.38H456.217L456.109 36.53C456.049 38.294 455.905 39.728 455.677 40.832C455.449 41.924 455.083 42.758 454.579 43.334C454.075 43.898 453.379 44.18 452.491 44.18C452.179 44.18 451.753 44.12 451.213 44L451.375 41.966C451.531 42.014 451.711 42.038 451.915 42.038C452.647 42.038 453.163 41.606 453.463 40.742C453.775 39.866 453.967 38.492 454.039 36.62L454.219 31.4H463.489ZM475.386 41.084H469.086L467.844 44H465.432L471.102 31.4H473.406L479.094 44H476.646L475.386 41.084ZM474.612 39.248L472.236 33.74L469.878 39.248H474.612ZM489.537 33.38H485.361V44H483.039V33.38H478.881V31.4H489.537V33.38ZM502.751 31.4V44H500.411V38.6H493.895V44H491.555V31.4H493.895V36.602H500.411V31.4H502.751ZM517.103 31.4L511.631 41.57C511.151 42.47 510.575 43.148 509.903 43.604C509.243 44.048 508.523 44.27 507.743 44.27C507.119 44.27 506.501 44.138 505.889 43.874L506.465 42.038C506.957 42.194 507.365 42.272 507.689 42.272C508.445 42.272 509.069 41.882 509.561 41.102L509.759 40.796L504.737 31.4H507.239L510.965 38.798L514.799 31.4H517.103ZM529.513 31.22C530.749 31.22 531.859 31.502 532.843 32.066C533.839 32.618 534.619 33.386 535.183 34.37C535.747 35.354 536.029 36.464 536.029 37.7C536.029 38.936 535.747 40.046 535.183 41.03C534.619 42.014 533.839 42.788 532.843 43.352C531.859 43.904 530.749 44.18 529.513 44.18C528.385 44.18 527.353 43.946 526.417 43.478C525.493 43.01 524.731 42.356 524.131 41.516C523.543 40.676 523.177 39.722 523.033 38.654H521.053V44H518.749V31.4H521.053V36.566H523.069C523.237 35.522 523.615 34.598 524.203 33.794C524.803 32.978 525.559 32.348 526.471 31.904C527.395 31.448 528.409 31.22 529.513 31.22ZM529.513 42.128C530.293 42.128 531.001 41.942 531.637 41.57C532.273 41.198 532.771 40.676 533.131 40.004C533.491 39.332 533.671 38.564 533.671 37.7C533.671 36.836 533.491 36.068 533.131 35.396C532.771 34.724 532.273 34.202 531.637 33.83C531.001 33.458 530.293 33.272 529.513 33.272C528.733 33.272 528.025 33.458 527.389 33.83C526.765 34.202 526.267 34.724 525.895 35.396C525.535 36.068 525.355 36.836 525.355 37.7C525.355 38.564 525.535 39.332 525.895 40.004C526.267 40.676 526.765 41.198 527.389 41.57C528.025 41.942 528.733 42.128 529.513 42.128ZM546.85 39.788H544.69V44H543.412V34.532H544.69V38.69H546.868L550.198 34.532H551.584L547.858 39.122L551.854 44H550.342L546.85 39.788ZM557.443 44.09C556.531 44.09 555.709 43.886 554.977 43.478C554.245 43.058 553.669 42.482 553.249 41.75C552.829 41.018 552.619 40.19 552.619 39.266C552.619 38.342 552.829 37.514 553.249 36.782C553.669 36.05 554.245 35.48 554.977 35.072C555.709 34.664 556.531 34.46 557.443 34.46C558.355 34.46 559.177 34.664 559.909 35.072C560.641 35.48 561.211 36.05 561.619 36.782C562.039 37.514 562.249 38.342 562.249 39.266C562.249 40.19 562.039 41.018 561.619 41.75C561.211 42.482 560.641 43.058 559.909 43.478C559.177 43.886 558.355 44.09 557.443 44.09ZM557.443 42.956C558.115 42.956 558.715 42.806 559.243 42.506C559.783 42.194 560.203 41.756 560.503 41.192C560.803 40.628 560.953 39.986 560.953 39.266C560.953 38.546 560.803 37.904 560.503 37.34C560.203 36.776 559.783 36.344 559.243 36.044C558.715 35.732 558.115 35.576 557.443 35.576C556.771 35.576 556.165 35.732 555.625 36.044C555.097 36.344 554.677 36.776 554.365 37.34C554.065 37.904 553.915 38.546 553.915 39.266C553.915 39.986 554.065 40.628 554.365 41.192C554.677 41.756 555.097 42.194 555.625 42.506C556.165 42.806 556.771 42.956 557.443 42.956ZM564.98 34.532H566.258V38.726H572.216V34.532H573.494V44H572.216V39.824H566.258V44H564.98V34.532ZM581.087 44.09C580.151 44.09 579.311 43.886 578.567 43.478C577.835 43.07 577.259 42.5 576.839 41.768C576.419 41.024 576.209 40.19 576.209 39.266C576.209 38.342 576.419 37.514 576.839 36.782C577.259 36.05 577.835 35.48 578.567 35.072C579.311 34.664 580.151 34.46 581.087 34.46C581.903 34.46 582.629 34.622 583.265 34.946C583.913 35.258 584.423 35.72 584.795 36.332L583.841 36.98C583.529 36.512 583.133 36.164 582.653 35.936C582.173 35.696 581.651 35.576 581.087 35.576C580.403 35.576 579.785 35.732 579.233 36.044C578.693 36.344 578.267 36.776 577.955 37.34C577.655 37.904 577.505 38.546 577.505 39.266C577.505 39.998 577.655 40.646 577.955 41.21C578.267 41.762 578.693 42.194 579.233 42.506C579.785 42.806 580.403 42.956 581.087 42.956C581.651 42.956 582.173 42.842 582.653 42.614C583.133 42.386 583.529 42.038 583.841 41.57L584.795 42.218C584.423 42.83 583.913 43.298 583.265 43.622C582.617 43.934 581.891 44.09 581.087 44.09ZM595.175 34.532L590.441 45.134C590.057 46.022 589.613 46.652 589.109 47.024C588.605 47.396 587.999 47.582 587.291 47.582C586.835 47.582 586.409 47.51 586.013 47.366C585.617 47.222 585.275 47.006 584.987 46.718L585.581 45.764C586.061 46.244 586.637 46.484 587.309 46.484C587.741 46.484 588.107 46.364 588.407 46.124C588.719 45.884 589.007 45.476 589.271 44.9L589.685 43.982L585.455 34.532H586.787L590.351 42.578L593.915 34.532H595.175ZM604.484 34.532V44H603.206V35.666H598.67L598.544 38.006C598.448 39.974 598.22 41.486 597.86 42.542C597.5 43.598 596.858 44.126 595.934 44.126C595.682 44.126 595.376 44.078 595.016 43.982L595.106 42.884C595.322 42.932 595.472 42.956 595.556 42.956C596.048 42.956 596.42 42.728 596.672 42.272C596.924 41.816 597.092 41.252 597.176 40.58C597.26 39.908 597.332 39.02 597.392 37.916L597.554 34.532H604.484ZM614.777 35.666H611.195V44H609.917V35.666H606.335V34.532H614.777V35.666ZM619.883 34.46C621.119 34.46 622.067 34.772 622.727 35.396C623.387 36.008 623.717 36.92 623.717 38.132V44H622.493V42.524C622.205 43.016 621.779 43.4 621.215 43.676C620.663 43.952 620.003 44.09 619.235 44.09C618.179 44.09 617.339 43.838 616.715 43.334C616.091 42.83 615.779 42.164 615.779 41.336C615.779 40.532 616.067 39.884 616.643 39.392C617.231 38.9 618.161 38.654 619.433 38.654H622.439V38.078C622.439 37.262 622.211 36.644 621.755 36.224C621.299 35.792 620.633 35.576 619.757 35.576C619.157 35.576 618.581 35.678 618.029 35.882C617.477 36.074 617.003 36.344 616.607 36.692L616.031 35.738C616.511 35.33 617.087 35.018 617.759 34.802C618.431 34.574 619.139 34.46 619.883 34.46ZM619.433 43.082C620.153 43.082 620.771 42.92 621.287 42.596C621.803 42.26 622.187 41.78 622.439 41.156V39.608H619.469C617.849 39.608 617.039 40.172 617.039 41.3C617.039 41.852 617.249 42.29 617.669 42.614C618.089 42.926 618.677 43.082 619.433 43.082ZM636.983 42.884V46.376H635.777V44H627.119V34.532H628.397V42.884H634.175V34.532H635.453V42.884H636.983ZM639.423 34.532H640.701V42.056L647.019 34.532H648.153V44H646.875V36.476L640.575 44H639.423V34.532ZM659.952 34.46C660.84 34.46 661.638 34.664 662.346 35.072C663.066 35.48 663.63 36.05 664.038 36.782C664.446 37.514 664.65 38.342 664.65 39.266C664.65 40.19 664.446 41.018 664.038 41.75C663.63 42.482 663.066 43.058 662.346 43.478C661.638 43.886 660.84 44.09 659.952 44.09C659.112 44.09 658.35 43.91 657.666 43.55C656.982 43.178 656.424 42.668 655.992 42.02C655.572 41.372 655.326 40.628 655.254 39.788H653.094V44H651.816V34.532H653.094V38.618H655.272C655.368 37.802 655.626 37.082 656.046 36.458C656.478 35.822 657.03 35.33 657.702 34.982C658.374 34.634 659.124 34.46 659.952 34.46ZM659.952 42.974C660.6 42.974 661.182 42.818 661.698 42.506C662.226 42.194 662.64 41.756 662.94 41.192C663.24 40.628 663.39 39.986 663.39 39.266C663.39 38.546 663.24 37.904 662.94 37.34C662.64 36.776 662.226 36.344 661.698 36.044C661.182 35.732 660.6 35.576 659.952 35.576C659.304 35.576 658.716 35.732 658.188 36.044C657.672 36.344 657.264 36.776 656.964 37.34C656.664 37.904 656.514 38.546 656.514 39.266C656.514 39.986 656.664 40.628 656.964 41.192C657.264 41.756 657.672 42.194 658.188 42.506C658.716 42.818 659.304 42.974 659.952 42.974ZM667.156 31.4H668.668L668.398 40.22H667.408L667.156 31.4ZM667.912 44.09C667.648 44.09 667.42 44 667.228 43.82C667.048 43.628 666.958 43.406 666.958 43.154C666.958 42.89 667.048 42.674 667.228 42.506C667.408 42.326 667.636 42.236 667.912 42.236C668.176 42.236 668.398 42.326 668.578 42.506C668.758 42.674 668.848 42.89 668.848 43.154C668.848 43.406 668.758 43.628 668.578 43.82C668.398 44 668.176 44.09 667.912 44.09Z" fill="white"/>
<defs>
<filter id="filter0_d" x="740" y="0" width="260" height="85" filterUnits="userSpaceOnUse" color-interpolation-filters="sRGB">
<feFlood flood-opacity="0" result="BackgroundImageFix"/>
<feColorMatrix in="SourceAlpha" type="matrix" values="0 0 0 0 0 0 0 0 0 0 0 0 0 0 0 0 0 0 127 0"/>
<feOffset dy="5"/>
<feGaussianBlur stdDeviation="5"/>
<feColorMatrix type="matrix" values="0 0 0 0 0.368627 0 0 0 0 0.219608 0 0 0 0 0.619608 0 0 0 0.35 0"/>
<feBlend mode="normal" in2="BackgroundImageFix" result="effect1_dropShadow"/>
<feBlend mode="normal" in="SourceGraphic" in2="effect1_dropShadow" result="shape"/>
</filter>
<linearGradient id="paint0_linear" x1="831.5" y1="-145.5" x2="893.5" y2="215.5" gradientUnits="userSpaceOnUse">
<stop stop-color="#8D5DCC"/>
<stop offset="1" stop-color="#55329E"/>
</linearGradient>
</defs>
</svg>
