<svg width="190" height="164" viewBox="0 0 190 164" fill="none" xmlns="http://www.w3.org/2000/svg">
<path fill-rule="evenodd" clip-rule="evenodd" d="M75.6229 66.8726L75.7371 67.3001L86.0819 106.023L74.3428 117.745L33.9248 158.126L19.1774 102.93L4.42166 47.7276L59.5813 62.563L75.6229 66.8726ZM74.7761 63.7049L60.3171 59.8214L0.407349 43.7048L16.436 103.663L32.4532 163.615L76.3485 119.757L86.9288 109.193L91.118 124.874C91.7742 127.326 93.689 129.241 96.1379 129.9C98.5896 130.559 101.206 129.858 103.002 128.065L145.158 85.9451L187.323 43.8481C189.119 42.0527 189.821 39.439 189.167 36.9872C188.511 34.5355 186.596 32.6208 184.147 31.9617L126.587 16.5012L69.0524 1.02668C66.6035 0.367583 63.9841 1.06642 62.1887 2.85905C60.3932 4.65169 59.6915 7.26821 60.3449 9.71994L74.7761 63.7049ZM101.666 109.318L89.4617 63.6324L77.2486 17.9417L122.9 30.2202L168.579 42.4873L135.121 75.8968L101.666 109.318ZM120.255 75.9182L98.5845 97.5576L97.7379 94.3871L114.767 77.3841L91.5277 71.1454L90.6811 67.975L120.255 75.9182Z" fill="#1E1E1F"/>
</svg>
