<svg width="276" height="40" viewBox="0 0 276 40" fill="none" xmlns="http://www.w3.org/2000/svg">
<path d="M58.732 21.2H54.832L54.088 23H52.096L55.84 14.6H57.76L61.516 23H59.476L58.732 21.2ZM58.12 19.724L56.788 16.508L55.456 19.724H58.12ZM62.4859 16.544H64.3459V19.064H67.1539V16.544H69.0259V23H67.1539V20.588H64.3459V23H62.4859V16.544ZM73.326 16.448C74.326 16.448 75.094 16.688 75.63 17.168C76.166 17.64 76.434 18.356 76.434 19.316V23H74.682V22.196C74.33 22.796 73.674 23.096 72.714 23.096C72.218 23.096 71.786 23.012 71.418 22.844C71.058 22.676 70.782 22.444 70.59 22.148C70.398 21.852 70.302 21.516 70.302 21.14C70.302 20.54 70.526 20.068 70.974 19.724C71.43 19.38 72.13 19.208 73.074 19.208H74.562C74.562 18.8 74.438 18.488 74.19 18.272C73.942 18.048 73.57 17.936 73.074 17.936C72.73 17.936 72.39 17.992 72.054 18.104C71.726 18.208 71.446 18.352 71.214 18.536L70.542 17.228C70.894 16.98 71.314 16.788 71.802 16.652C72.298 16.516 72.806 16.448 73.326 16.448ZM73.182 21.836C73.502 21.836 73.786 21.764 74.034 21.62C74.282 21.468 74.458 21.248 74.562 20.96V20.3H73.278C72.51 20.3 72.126 20.552 72.126 21.056C72.126 21.296 72.218 21.488 72.402 21.632C72.594 21.768 72.854 21.836 73.182 21.836ZM84.2522 16.544V23H82.3802V18.08H80.3402L80.2802 19.22C80.2482 20.068 80.1682 20.772 80.0402 21.332C79.9122 21.892 79.7042 22.332 79.4162 22.652C79.1282 22.972 78.7282 23.132 78.2162 23.132C77.9442 23.132 77.6202 23.084 77.2442 22.988L77.3402 21.452C77.4682 21.468 77.5602 21.476 77.6162 21.476C77.8962 21.476 78.1042 21.376 78.2402 21.176C78.3842 20.968 78.4802 20.708 78.5282 20.396C78.5762 20.076 78.6122 19.656 78.6362 19.136L78.7322 16.544H84.2522ZM86.0523 16.544H87.9123V20.384L91.0563 16.544H92.7723V23H90.9123V19.16L87.7803 23H86.0523V16.544ZM98.7013 19.64C99.0853 19.76 99.3813 19.944 99.5893 20.192C99.8053 20.44 99.9133 20.736 99.9133 21.08C99.9133 21.488 99.7733 21.848 99.4933 22.16C99.2133 22.464 98.8293 22.7 98.3413 22.868C97.8533 23.036 97.3013 23.12 96.6853 23.12C96.1813 23.12 95.6853 23.068 95.1973 22.964C94.7093 22.86 94.2573 22.704 93.8413 22.496L94.3453 21.188C95.0253 21.516 95.7773 21.68 96.6013 21.68C97.0413 21.68 97.3853 21.616 97.6333 21.488C97.8893 21.352 98.0173 21.164 98.0173 20.924C98.0173 20.716 97.9293 20.56 97.7533 20.456C97.5773 20.344 97.3213 20.288 96.9853 20.288H95.6653V19.124H96.8173C97.1453 19.124 97.3973 19.072 97.5733 18.968C97.7493 18.864 97.8373 18.712 97.8373 18.512C97.8373 18.304 97.7253 18.144 97.5013 18.032C97.2853 17.92 96.9733 17.864 96.5653 17.864C95.9413 17.864 95.2613 18.012 94.5253 18.308L94.0693 17.012C94.9653 16.62 95.8373 16.424 96.6853 16.424C97.2693 16.424 97.7893 16.496 98.2453 16.64C98.7093 16.784 99.0733 16.996 99.3373 17.276C99.6013 17.548 99.7333 17.868 99.7333 18.236C99.7333 18.54 99.6413 18.816 99.4573 19.064C99.2733 19.304 99.0213 19.496 98.7013 19.64ZM113.625 21.416V24.776H111.837V23H104.817V14.6H106.749V21.416H110.493V14.6H112.425V21.416H113.625ZM120.957 19.796C120.957 19.82 120.945 19.988 120.921 20.3H116.037C116.125 20.7 116.333 21.016 116.661 21.248C116.989 21.48 117.397 21.596 117.885 21.596C118.221 21.596 118.517 21.548 118.773 21.452C119.037 21.348 119.281 21.188 119.505 20.972L120.501 22.052C119.893 22.748 119.005 23.096 117.837 23.096C117.109 23.096 116.465 22.956 115.905 22.676C115.345 22.388 114.913 21.992 114.609 21.488C114.305 20.984 114.153 20.412 114.153 19.772C114.153 19.14 114.301 18.572 114.597 18.068C114.901 17.556 115.313 17.16 115.833 16.88C116.361 16.592 116.949 16.448 117.597 16.448C118.229 16.448 118.801 16.584 119.313 16.856C119.825 17.128 120.225 17.52 120.513 18.032C120.809 18.536 120.957 19.124 120.957 19.796ZM117.609 17.864C117.185 17.864 116.829 17.984 116.541 18.224C116.253 18.464 116.077 18.792 116.013 19.208H119.193C119.129 18.8 118.953 18.476 118.665 18.236C118.377 17.988 118.025 17.864 117.609 17.864ZM128.526 16.544V23H126.654V18.08H124.614L124.554 19.22C124.522 20.068 124.442 20.772 124.314 21.332C124.186 21.892 123.978 22.332 123.69 22.652C123.402 22.972 123.002 23.132 122.49 23.132C122.218 23.132 121.894 23.084 121.518 22.988L121.614 21.452C121.742 21.468 121.834 21.476 121.89 21.476C122.17 21.476 122.378 21.376 122.514 21.176C122.658 20.968 122.754 20.708 122.802 20.396C122.85 20.076 122.886 19.656 122.91 19.136L123.006 16.544H128.526ZM136.602 19.796C136.602 19.82 136.59 19.988 136.566 20.3H131.682C131.77 20.7 131.978 21.016 132.306 21.248C132.634 21.48 133.042 21.596 133.53 21.596C133.866 21.596 134.162 21.548 134.418 21.452C134.682 21.348 134.926 21.188 135.15 20.972L136.146 22.052C135.538 22.748 134.65 23.096 133.482 23.096C132.754 23.096 132.11 22.956 131.55 22.676C130.99 22.388 130.558 21.992 130.254 21.488C129.95 20.984 129.798 20.412 129.798 19.772C129.798 19.14 129.946 18.572 130.242 18.068C130.546 17.556 130.958 17.16 131.478 16.88C132.006 16.592 132.594 16.448 133.242 16.448C133.874 16.448 134.446 16.584 134.958 16.856C135.47 17.128 135.87 17.52 136.158 18.032C136.454 18.536 136.602 19.124 136.602 19.796ZM133.254 17.864C132.83 17.864 132.474 17.984 132.186 18.224C131.898 18.464 131.722 18.792 131.658 19.208H134.838C134.774 18.8 134.598 18.476 134.31 18.236C134.022 17.988 133.67 17.864 133.254 17.864ZM142.969 19.628C143.729 19.884 144.109 20.396 144.109 21.164C144.109 21.748 143.889 22.2 143.449 22.52C143.009 22.84 142.353 23 141.481 23H138.037V16.544H141.337C142.145 16.544 142.777 16.692 143.233 16.988C143.689 17.276 143.917 17.684 143.917 18.212C143.917 18.532 143.833 18.816 143.665 19.064C143.505 19.304 143.273 19.492 142.969 19.628ZM139.753 19.196H141.169C141.825 19.196 142.153 18.964 142.153 18.5C142.153 18.044 141.825 17.816 141.169 17.816H139.753V19.196ZM141.325 21.728C142.013 21.728 142.357 21.492 142.357 21.02C142.357 20.772 142.277 20.592 142.117 20.48C141.957 20.36 141.705 20.3 141.361 20.3H139.753V21.728H141.325ZM148.526 23.096C147.846 23.096 147.234 22.956 146.69 22.676C146.154 22.388 145.734 21.992 145.43 21.488C145.126 20.984 144.974 20.412 144.974 19.772C144.974 19.132 145.126 18.56 145.43 18.056C145.734 17.552 146.154 17.16 146.69 16.88C147.234 16.592 147.846 16.448 148.526 16.448C149.206 16.448 149.814 16.592 150.35 16.88C150.886 17.16 151.306 17.552 151.61 18.056C151.914 18.56 152.066 19.132 152.066 19.772C152.066 20.412 151.914 20.984 151.61 21.488C151.306 21.992 150.886 22.388 150.35 22.676C149.814 22.956 149.206 23.096 148.526 23.096ZM148.526 21.56C149.006 21.56 149.398 21.4 149.702 21.08C150.014 20.752 150.17 20.316 150.17 19.772C150.17 19.228 150.014 18.796 149.702 18.476C149.398 18.148 149.006 17.984 148.526 17.984C148.046 17.984 147.65 18.148 147.338 18.476C147.026 18.796 146.87 19.228 146.87 19.772C146.87 20.316 147.026 20.752 147.338 21.08C147.65 21.4 148.046 21.56 148.526 21.56ZM153.353 16.544H155.213V20.384L158.357 16.544H160.073V23H158.213V19.16L155.081 23H153.353V16.544ZM156.593 15.848C155.185 15.848 154.477 15.228 154.469 13.988H155.693C155.701 14.268 155.777 14.488 155.921 14.648C156.073 14.8 156.293 14.876 156.581 14.876C156.869 14.876 157.089 14.8 157.241 14.648C157.401 14.488 157.481 14.268 157.481 13.988H158.729C158.721 15.228 158.009 15.848 156.593 15.848ZM171.103 21.2H167.203L166.459 23H164.467L168.211 14.6H170.131L173.887 23H171.847L171.103 21.2ZM170.491 19.724L169.159 16.508L167.827 19.724H170.491ZM180.985 16.544L178.069 23.396C177.773 24.14 177.405 24.664 176.965 24.968C176.533 25.272 176.009 25.424 175.393 25.424C175.057 25.424 174.725 25.372 174.397 25.268C174.069 25.164 173.801 25.02 173.593 24.836L174.277 23.504C174.421 23.632 174.585 23.732 174.769 23.804C174.961 23.876 175.149 23.912 175.333 23.912C175.589 23.912 175.797 23.848 175.957 23.72C176.117 23.6 176.261 23.396 176.389 23.108L176.413 23.048L173.617 16.544H175.549L177.361 20.924L179.185 16.544H180.985ZM188.667 21.464V24.392H186.927V23H182.391V24.392H180.651V21.464H180.915C181.315 21.456 181.591 21.22 181.743 20.756C181.895 20.292 181.991 19.632 182.031 18.776L182.115 16.544H187.743V21.464H188.667ZM183.723 18.908C183.699 19.564 183.647 20.1 183.567 20.516C183.495 20.932 183.355 21.248 183.147 21.464H185.871V18.08H183.759L183.723 18.908ZM189.845 16.544H191.705V20.384L194.849 16.544H196.565V23H194.705V19.16L191.573 23H189.845V16.544ZM203.789 18.08H201.605V23H199.745V18.08H197.561V16.544H203.789V18.08ZM207.541 23.096C206.861 23.096 206.249 22.956 205.705 22.676C205.169 22.388 204.749 21.992 204.445 21.488C204.141 20.984 203.989 20.412 203.989 19.772C203.989 19.132 204.141 18.56 204.445 18.056C204.749 17.552 205.169 17.16 205.705 16.88C206.249 16.592 206.861 16.448 207.541 16.448C208.221 16.448 208.829 16.592 209.365 16.88C209.901 17.16 210.321 17.552 210.625 18.056C210.929 18.56 211.081 19.132 211.081 19.772C211.081 20.412 210.929 20.984 210.625 21.488C210.321 21.992 209.901 22.388 209.365 22.676C208.829 22.956 208.221 23.096 207.541 23.096ZM207.541 21.56C208.021 21.56 208.413 21.4 208.717 21.08C209.029 20.752 209.185 20.316 209.185 19.772C209.185 19.228 209.029 18.796 208.717 18.476C208.413 18.148 208.021 17.984 207.541 17.984C207.061 17.984 206.665 18.148 206.353 18.476C206.041 18.796 205.885 19.228 205.885 19.772C205.885 20.316 206.041 20.752 206.353 21.08C206.665 21.4 207.061 21.56 207.541 21.56ZM216.173 16.448C216.773 16.448 217.317 16.588 217.805 16.868C218.301 17.14 218.689 17.528 218.969 18.032C219.249 18.528 219.389 19.108 219.389 19.772C219.389 20.436 219.249 21.02 218.969 21.524C218.689 22.02 218.301 22.408 217.805 22.688C217.317 22.96 216.773 23.096 216.173 23.096C215.349 23.096 214.701 22.836 214.229 22.316V25.328H212.357V16.544H214.145V17.288C214.609 16.728 215.285 16.448 216.173 16.448ZM215.849 21.56C216.329 21.56 216.721 21.4 217.025 21.08C217.337 20.752 217.493 20.316 217.493 19.772C217.493 19.228 217.337 18.796 217.025 18.476C216.721 18.148 216.329 17.984 215.849 17.984C215.369 17.984 214.973 18.148 214.661 18.476C214.357 18.796 214.205 19.228 214.205 19.772C214.205 20.316 214.357 20.752 214.661 21.08C214.973 21.4 215.369 21.56 215.849 21.56ZM220.701 16.544H222.561V20.384L225.705 16.544H227.421V23H225.561V19.16L222.429 23H220.701V16.544ZM229.22 16.544H231.08V20.384L234.224 16.544H235.94V23H234.08V19.16L230.948 23H229.22V16.544Z" fill="#393939"/>
<path d="M10.848 31.384C8.992 31.384 7.33867 30.9253 5.888 30.008C4.43733 29.0907 3.296 27.768 2.464 26.04C1.65333 24.2907 1.248 22.2107 1.248 19.8C1.248 17.3893 1.65333 15.32 2.464 13.592C3.296 11.8427 4.43733 10.5093 5.888 9.592C7.33867 8.67467 8.992 8.216 10.848 8.216C12.704 8.216 14.3573 8.67467 15.808 9.592C17.2587 10.5093 18.3893 11.8427 19.2 13.592C20.032 15.32 20.448 17.3893 20.448 19.8C20.448 22.2107 20.032 24.2907 19.2 26.04C18.3893 27.768 17.2587 29.0907 15.808 30.008C14.3573 30.9253 12.704 31.384 10.848 31.384ZM10.848 27C12.2133 27 13.28 26.4133 14.048 25.24C14.8373 24.0667 15.232 22.2533 15.232 19.8C15.232 17.3467 14.8373 15.5333 14.048 14.36C13.28 13.1867 12.2133 12.6 10.848 12.6C9.504 12.6 8.43733 13.1867 7.648 14.36C6.88 15.5333 6.496 17.3467 6.496 19.8C6.496 22.2533 6.88 24.0667 7.648 25.24C8.43733 26.4133 9.504 27 10.848 27ZM34.6193 8.6V31H29.4353V12.76H24.9553V8.6H34.6193Z" fill="#EF8B54"/>
<path d="M275.256 19.5C275.256 15.7791 272.233 12.7442 268.5 12.7442C264.767 12.7442 261.744 15.7791 261.744 19.5C261.744 23.2209 264.779 26.2558 268.5 26.2558C272.221 26.2558 275.256 23.2209 275.256 19.5ZM262.698 19.5C262.698 16.3023 265.302 13.6977 268.5 13.6977C271.698 13.6977 274.302 16.3023 274.302 19.5C274.302 22.6977 271.698 25.3023 268.5 25.3023C265.302 25.3023 262.698 22.6977 262.698 19.5Z" fill="black"/>
<path d="M271.872 21.0581C271.965 20.9651 272.011 20.8488 272.011 20.7209C272.011 20.6046 271.965 20.4767 271.872 20.3837L268.802 17.3139C268.709 17.2209 268.593 17.1744 268.465 17.1744C268.337 17.1744 268.221 17.2209 268.128 17.3139L265.058 20.3837C264.872 20.5697 264.872 20.8721 265.058 21.0581C265.244 21.2441 265.546 21.2441 265.732 21.0581L268.465 18.3255L271.198 21.0581C271.384 21.2441 271.686 21.2441 271.872 21.0581Z" fill="black"/>
</svg>
