<svg width="290" height="231" viewBox="0 0 290 231" fill="none" xmlns="http://www.w3.org/2000/svg">
<line x1="0.5" y1="0.5" x2="289.5" y2="0.500025" stroke="black" stroke-opacity="0.1" stroke-linecap="round"/>
<line x1="0.5" y1="70.5" x2="289.5" y2="70.5" stroke="black" stroke-opacity="0.1" stroke-linecap="round"/>
<line x1="0.5" y1="140.5" x2="289.5" y2="140.5" stroke="black" stroke-opacity="0.1" stroke-linecap="round"/>
<line x1="0.5" y1="210.5" x2="289.5" y2="210.5" stroke="black" stroke-opacity="0.1" stroke-linecap="round"/>
<path d="M56.7 30.6V39H54.768V32.184H50.976V39H49.044V30.6H56.7ZM62.7903 39.144C61.9183 39.144 61.1303 38.956 60.4263 38.58C59.7303 38.204 59.1823 37.688 58.7823 37.032C58.3903 36.368 58.1943 35.624 58.1943 34.8C58.1943 33.976 58.3903 33.236 58.7823 32.58C59.1823 31.916 59.7303 31.396 60.4263 31.02C61.1303 30.644 61.9183 30.456 62.7903 30.456C63.6623 30.456 64.4463 30.644 65.1423 31.02C65.8383 31.396 66.3863 31.916 66.7863 32.58C67.1863 33.236 67.3863 33.976 67.3863 34.8C67.3863 35.624 67.1863 36.368 66.7863 37.032C66.3863 37.688 65.8383 38.204 65.1423 38.58C64.4463 38.956 63.6623 39.144 62.7903 39.144ZM62.7903 37.488C63.2863 37.488 63.7343 37.376 64.1343 37.152C64.5343 36.92 64.8463 36.6 65.0703 36.192C65.3023 35.784 65.4183 35.32 65.4183 34.8C65.4183 34.28 65.3023 33.816 65.0703 33.408C64.8463 33 64.5343 32.684 64.1343 32.46C63.7343 32.228 63.2863 32.112 62.7903 32.112C62.2943 32.112 61.8463 32.228 61.4463 32.46C61.0463 32.684 60.7303 33 60.4983 33.408C60.2743 33.816 60.1623 34.28 60.1623 34.8C60.1623 35.32 60.2743 35.784 60.4983 36.192C60.7303 36.6 61.0463 36.92 61.4463 37.152C61.8463 37.376 62.2943 37.488 62.7903 37.488ZM77.3135 37.416V40.74H75.5135V39H69.5855V40.74H67.7855L67.7975 37.416H68.1335C68.6375 37.4 68.9935 37.032 69.2015 36.312C69.4095 35.592 69.5375 34.564 69.5855 33.228L69.6815 30.6H76.1375V37.416H77.3135ZM71.3015 33.408C71.2615 34.408 71.1775 35.248 71.0495 35.928C70.9215 36.6 70.7255 37.096 70.4615 37.416H74.2175V32.184H71.3375L71.3015 33.408ZM84.5381 32.184H80.5421L80.5541 39H78.6221V30.6H84.5501L84.5381 32.184ZM88.8879 39.144C88.0159 39.144 87.2279 38.956 86.5239 38.58C85.8279 38.204 85.2799 37.688 84.8799 37.032C84.4879 36.368 84.2919 35.624 84.2919 34.8C84.2919 33.976 84.4879 33.236 84.8799 32.58C85.2799 31.916 85.8279 31.396 86.5239 31.02C87.2279 30.644 88.0159 30.456 88.8879 30.456C89.7599 30.456 90.5439 30.644 91.2399 31.02C91.9359 31.396 92.4839 31.916 92.8839 32.58C93.2839 33.236 93.4839 33.976 93.4839 34.8C93.4839 35.624 93.2839 36.368 92.8839 37.032C92.4839 37.688 91.9359 38.204 91.2399 38.58C90.5439 38.956 89.7599 39.144 88.8879 39.144ZM88.8879 37.488C89.3839 37.488 89.8319 37.376 90.2319 37.152C90.6319 36.92 90.9439 36.6 91.1679 36.192C91.3999 35.784 91.5159 35.32 91.5159 34.8C91.5159 34.28 91.3999 33.816 91.1679 33.408C90.9439 33 90.6319 32.684 90.2319 32.46C89.8319 32.228 89.3839 32.112 88.8879 32.112C88.3919 32.112 87.9439 32.228 87.5439 32.46C87.1439 32.684 86.8279 33 86.5959 33.408C86.3719 33.816 86.2599 34.28 86.2599 34.8C86.2599 35.32 86.3719 35.784 86.5959 36.192C86.8279 36.6 87.1439 36.92 87.5439 37.152C87.9439 37.376 88.3919 37.488 88.8879 37.488ZM101.284 32.184H98.5963V39H96.6763V32.184H94.0003V30.6H101.284V32.184ZM106.396 39.144C105.524 39.144 104.736 38.956 104.032 38.58C103.336 38.204 102.788 37.688 102.388 37.032C101.996 36.368 101.8 35.624 101.8 34.8C101.8 33.976 101.996 33.236 102.388 32.58C102.788 31.916 103.336 31.396 104.032 31.02C104.736 30.644 105.524 30.456 106.396 30.456C107.268 30.456 108.052 30.644 108.748 31.02C109.444 31.396 109.992 31.916 110.392 32.58C110.792 33.236 110.992 33.976 110.992 34.8C110.992 35.624 110.792 36.368 110.392 37.032C109.992 37.688 109.444 38.204 108.748 38.58C108.052 38.956 107.268 39.144 106.396 39.144ZM106.396 37.488C106.892 37.488 107.34 37.376 107.74 37.152C108.14 36.92 108.452 36.6 108.676 36.192C108.908 35.784 109.024 35.32 109.024 34.8C109.024 34.28 108.908 33.816 108.676 33.408C108.452 33 108.14 32.684 107.74 32.46C107.34 32.228 106.892 32.112 106.396 32.112C105.9 32.112 105.452 32.228 105.052 32.46C104.652 32.684 104.336 33 104.104 33.408C103.88 33.816 103.768 34.28 103.768 34.8C103.768 35.32 103.88 35.784 104.104 36.192C104.336 36.6 104.652 36.92 105.052 37.152C105.452 37.376 105.9 37.488 106.396 37.488ZM118.309 34.62C118.821 34.772 119.213 35.02 119.485 35.364C119.757 35.708 119.893 36.132 119.893 36.636C119.893 37.38 119.609 37.96 119.041 38.376C118.481 38.792 117.677 39 116.629 39H112.489V30.6H116.401C117.377 30.6 118.137 30.788 118.681 31.164C119.225 31.54 119.497 32.076 119.497 32.772C119.497 33.188 119.393 33.556 119.185 33.876C118.977 34.188 118.685 34.436 118.309 34.62ZM114.421 34.08H116.233C116.657 34.08 116.977 33.996 117.193 33.828C117.409 33.652 117.517 33.396 117.517 33.06C117.517 32.732 117.405 32.48 117.181 32.304C116.965 32.128 116.649 32.04 116.233 32.04H114.421V34.08ZM116.557 37.56C117.469 37.56 117.925 37.2 117.925 36.48C117.925 35.784 117.469 35.436 116.557 35.436H114.421V37.56H116.557ZM124.683 35.616H123.339V39H121.407V30.6H123.339V33.996H124.731L126.939 30.6H128.991L126.243 34.656L129.075 39H126.867L124.683 35.616ZM135.509 37.2H131.609L130.865 39H128.873L132.617 30.6H134.537L138.293 39H136.253L135.509 37.2ZM134.897 35.724L133.565 32.508L132.233 35.724H134.897ZM149.226 32.184H146.538V39H144.618V32.184H141.942V30.6H149.226V32.184ZM155.222 34.62C155.71 34.788 156.09 35.052 156.362 35.412C156.642 35.764 156.782 36.176 156.782 36.648C156.782 37.16 156.614 37.604 156.278 37.98C155.942 38.356 155.486 38.644 154.91 38.844C154.342 39.044 153.718 39.144 153.038 39.144C152.462 39.144 151.886 39.072 151.31 38.928C150.742 38.784 150.202 38.564 149.69 38.268L150.29 36.876C150.658 37.1 151.062 37.272 151.502 37.392C151.95 37.504 152.386 37.56 152.81 37.56C153.386 37.56 153.862 37.456 154.238 37.248C154.622 37.04 154.814 36.748 154.814 36.372C154.814 36.06 154.682 35.824 154.418 35.664C154.162 35.504 153.81 35.424 153.362 35.424H151.31V33.96H153.218C153.61 33.96 153.914 33.88 154.13 33.72C154.354 33.56 154.466 33.34 154.466 33.06C154.466 32.732 154.306 32.476 153.986 32.292C153.674 32.108 153.27 32.016 152.774 32.016C152.406 32.016 152.026 32.068 151.634 32.172C151.242 32.268 150.87 32.416 150.518 32.616L149.93 31.104C150.818 30.648 151.778 30.42 152.81 30.42C153.466 30.42 154.07 30.516 154.622 30.708C155.174 30.9 155.614 31.18 155.942 31.548C156.27 31.916 156.434 32.344 156.434 32.832C156.434 33.232 156.326 33.588 156.11 33.9C155.894 34.212 155.598 34.452 155.222 34.62Z" fill="#393939"/>
<path d="M10.848 47.384C8.992 47.384 7.33867 46.9253 5.888 46.008C4.43733 45.0907 3.296 43.768 2.464 42.04C1.65333 40.2907 1.248 38.2107 1.248 35.8C1.248 33.3893 1.65333 31.32 2.464 29.592C3.296 27.8427 4.43733 26.5093 5.888 25.592C7.33867 24.6747 8.992 24.216 10.848 24.216C12.704 24.216 14.3573 24.6747 15.808 25.592C17.2587 26.5093 18.3893 27.8427 19.2 29.592C20.032 31.32 20.448 33.3893 20.448 35.8C20.448 38.2107 20.032 40.2907 19.2 42.04C18.3893 43.768 17.2587 45.0907 15.808 46.008C14.3573 46.9253 12.704 47.384 10.848 47.384ZM10.848 43C12.2133 43 13.28 42.4133 14.048 41.24C14.8373 40.0667 15.232 38.2533 15.232 35.8C15.232 33.3467 14.8373 31.5333 14.048 30.36C13.28 29.1867 12.2133 28.6 10.848 28.6C9.504 28.6 8.43733 29.1867 7.648 30.36C6.88 31.5333 6.496 33.3467 6.496 35.8C6.496 38.2533 6.88 40.0667 7.648 41.24C8.43733 42.4133 9.504 43 10.848 43ZM39.5153 42.776V47H22.5872V43.64L31.2273 35.48C32.1446 34.6053 32.7633 33.8587 33.0833 33.24C33.4033 32.6 33.5633 31.9707 33.5633 31.352C33.5633 30.456 33.2539 29.7733 32.6353 29.304C32.0379 28.8133 31.1526 28.568 29.9792 28.568C28.9979 28.568 28.1126 28.76 27.3233 29.144C26.5339 29.5067 25.8726 30.0613 25.3393 30.808L21.5633 28.376C22.4379 27.0747 23.6433 26.0613 25.1793 25.336C26.7153 24.5893 28.4753 24.216 30.4593 24.216C32.1233 24.216 33.5739 24.4933 34.8113 25.048C36.0699 25.5813 37.0406 26.3493 37.7233 27.352C38.4273 28.3333 38.7793 29.496 38.7793 30.84C38.7793 32.056 38.5233 33.1973 38.0113 34.264C37.4993 35.3307 36.5073 36.5467 35.0353 37.912L29.8833 42.776H39.5153Z" fill="#393939"/>
<g clip-path="url(#clip0)">
<path d="M261.744 34.5C261.744 38.2209 264.767 41.2558 268.5 41.2558C272.233 41.2558 275.256 38.2209 275.256 34.5C275.256 30.7791 272.221 27.7442 268.5 27.7442C264.779 27.7442 261.744 30.7791 261.744 34.5ZM274.302 34.5C274.302 37.6977 271.698 40.3023 268.5 40.3023C265.302 40.3023 262.698 37.6977 262.698 34.5C262.698 31.3023 265.302 28.6977 268.5 28.6977C271.698 28.6977 274.302 31.3023 274.302 34.5Z" fill="black"/>
<path d="M265.128 32.9418C265.035 33.0349 264.989 33.1511 264.989 33.2791C264.989 33.3953 265.035 33.5232 265.128 33.6163L268.198 36.686C268.291 36.7791 268.407 36.8256 268.535 36.8256C268.663 36.8256 268.779 36.7791 268.872 36.686L271.942 33.6163C272.128 33.4302 272.128 33.1279 271.942 32.9418C271.756 32.7558 271.454 32.7558 271.268 32.9418L268.535 35.6744L265.802 32.9418C265.616 32.7558 265.314 32.7558 265.128 32.9418Z" fill="black"/>
</g>
<path d="M56.7 93.6V102H54.768V95.184H50.976V102H49.044V93.6H56.7ZM62.7903 102.144C61.9183 102.144 61.1303 101.956 60.4263 101.58C59.7303 101.204 59.1823 100.688 58.7823 100.032C58.3903 99.368 58.1943 98.624 58.1943 97.8C58.1943 96.976 58.3903 96.236 58.7823 95.58C59.1823 94.916 59.7303 94.396 60.4263 94.02C61.1303 93.644 61.9183 93.456 62.7903 93.456C63.6623 93.456 64.4463 93.644 65.1423 94.02C65.8383 94.396 66.3863 94.916 66.7863 95.58C67.1863 96.236 67.3863 96.976 67.3863 97.8C67.3863 98.624 67.1863 99.368 66.7863 100.032C66.3863 100.688 65.8383 101.204 65.1423 101.58C64.4463 101.956 63.6623 102.144 62.7903 102.144ZM62.7903 100.488C63.2863 100.488 63.7343 100.376 64.1343 100.152C64.5343 99.92 64.8463 99.6 65.0703 99.192C65.3023 98.784 65.4183 98.32 65.4183 97.8C65.4183 97.28 65.3023 96.816 65.0703 96.408C64.8463 96 64.5343 95.684 64.1343 95.46C63.7343 95.228 63.2863 95.112 62.7903 95.112C62.2943 95.112 61.8463 95.228 61.4463 95.46C61.0463 95.684 60.7303 96 60.4983 96.408C60.2743 96.816 60.1623 97.28 60.1623 97.8C60.1623 98.32 60.2743 98.784 60.4983 99.192C60.7303 99.6 61.0463 99.92 61.4463 100.152C61.8463 100.376 62.2943 100.488 62.7903 100.488ZM77.3135 100.416V103.74H75.5135V102H69.5855V103.74H67.7855L67.7975 100.416H68.1335C68.6375 100.4 68.9935 100.032 69.2015 99.312C69.4095 98.592 69.5375 97.564 69.5855 96.228L69.6815 93.6H76.1375V100.416H77.3135ZM71.3015 96.408C71.2615 97.408 71.1775 98.248 71.0495 98.928C70.9215 99.6 70.7255 100.096 70.4615 100.416H74.2175V95.184H71.3375L71.3015 96.408ZM86.2781 93.6V102H84.3461V95.184H80.5541V102H78.6221V93.6H86.2781ZM88.3604 93.6H90.2924V99.072L94.3004 93.6H96.1244V102H94.2044V96.54L90.1964 102H88.3604V93.6ZM102.188 102.144C101.332 102.144 100.556 101.96 99.8599 101.592C99.1719 101.216 98.6279 100.7 98.2279 100.044C97.8359 99.38 97.6399 98.632 97.6399 97.8C97.6399 96.968 97.8359 96.224 98.2279 95.568C98.6279 94.904 99.1719 94.388 99.8599 94.02C100.556 93.644 101.336 93.456 102.2 93.456C102.928 93.456 103.584 93.584 104.168 93.84C104.76 94.096 105.256 94.464 105.656 94.944L104.408 96.096C103.84 95.44 103.136 95.112 102.296 95.112C101.776 95.112 101.312 95.228 100.904 95.46C100.496 95.684 100.176 96 99.9439 96.408C99.7199 96.816 99.6079 97.28 99.6079 97.8C99.6079 98.32 99.7199 98.784 99.9439 99.192C100.176 99.6 100.496 99.92 100.904 100.152C101.312 100.376 101.776 100.488 102.296 100.488C103.136 100.488 103.84 100.156 104.408 99.492L105.656 100.644C105.256 101.132 104.76 101.504 104.168 101.76C103.576 102.016 102.916 102.144 102.188 102.144ZM112.447 100.2H108.547L107.803 102H105.811L109.555 93.6H111.475L115.231 102H113.191L112.447 100.2ZM111.835 98.724L110.503 95.508L109.171 98.724H111.835ZM124.049 93.6V102H122.105V98.556H118.289V102H116.345V93.6H118.289V96.912H122.105V93.6H124.049ZM126.153 93.6H128.085V99.072L132.093 93.6H133.917V102H131.997V96.54L127.989 102H126.153V93.6ZM142.513 100.44V102H136.009V93.6H142.357V95.16H137.941V96.984H141.841V98.496H137.941V100.44H142.513ZM156.146 100.416V103.74H154.346V102H148.418V103.74H146.618L146.63 100.416H146.966C147.47 100.4 147.826 100.032 148.034 99.312C148.242 98.592 148.37 97.564 148.418 96.228L148.514 93.6H154.97V100.416H156.146ZM150.134 96.408C150.094 97.408 150.01 98.248 149.882 98.928C149.754 99.6 149.558 100.096 149.294 100.416H153.049V95.184H150.17L150.134 96.408ZM161.462 102.144C160.59 102.144 159.802 101.956 159.098 101.58C158.402 101.204 157.854 100.688 157.454 100.032C157.062 99.368 156.866 98.624 156.866 97.8C156.866 96.976 157.062 96.236 157.454 95.58C157.854 94.916 158.402 94.396 159.098 94.02C159.802 93.644 160.59 93.456 161.462 93.456C162.334 93.456 163.118 93.644 163.814 94.02C164.51 94.396 165.058 94.916 165.458 95.58C165.858 96.236 166.058 96.976 166.058 97.8C166.058 98.624 165.858 99.368 165.458 100.032C165.058 100.688 164.51 101.204 163.814 101.58C163.118 101.956 162.334 102.144 161.462 102.144ZM161.462 100.488C161.958 100.488 162.406 100.376 162.806 100.152C163.206 99.92 163.518 99.6 163.742 99.192C163.974 98.784 164.09 98.32 164.09 97.8C164.09 97.28 163.974 96.816 163.742 96.408C163.518 96 163.206 95.684 162.806 95.46C162.406 95.228 161.958 95.112 161.462 95.112C160.966 95.112 160.518 95.228 160.118 95.46C159.718 95.684 159.402 96 159.17 96.408C158.946 96.816 158.834 97.28 158.834 97.8C158.834 98.32 158.946 98.784 159.17 99.192C159.402 99.6 159.718 99.92 160.118 100.152C160.518 100.376 160.966 100.488 161.462 100.488ZM173.472 95.184H169.476L169.488 102H167.556V93.6H173.484L173.472 95.184ZM177.822 102.144C176.95 102.144 176.162 101.956 175.458 101.58C174.762 101.204 174.214 100.688 173.814 100.032C173.422 99.368 173.226 98.624 173.226 97.8C173.226 96.976 173.422 96.236 173.814 95.58C174.214 94.916 174.762 94.396 175.458 94.02C176.162 93.644 176.95 93.456 177.822 93.456C178.694 93.456 179.478 93.644 180.174 94.02C180.87 94.396 181.418 94.916 181.818 95.58C182.218 96.236 182.418 96.976 182.418 97.8C182.418 98.624 182.218 99.368 181.818 100.032C181.418 100.688 180.87 101.204 180.174 101.58C179.478 101.956 178.694 102.144 177.822 102.144ZM177.822 100.488C178.318 100.488 178.766 100.376 179.166 100.152C179.566 99.92 179.878 99.6 180.102 99.192C180.334 98.784 180.45 98.32 180.45 97.8C180.45 97.28 180.334 96.816 180.102 96.408C179.878 96 179.566 95.684 179.166 95.46C178.766 95.228 178.318 95.112 177.822 95.112C177.326 95.112 176.878 95.228 176.478 95.46C176.078 95.684 175.762 96 175.53 96.408C175.306 96.816 175.194 97.28 175.194 97.8C175.194 98.32 175.306 98.784 175.53 99.192C175.762 99.6 176.078 99.92 176.478 100.152C176.878 100.376 177.326 100.488 177.822 100.488ZM189.735 97.62C190.247 97.772 190.639 98.02 190.911 98.364C191.183 98.708 191.319 99.132 191.319 99.636C191.319 100.38 191.035 100.96 190.467 101.376C189.907 101.792 189.103 102 188.055 102H183.915V93.6H187.827C188.803 93.6 189.563 93.788 190.107 94.164C190.651 94.54 190.923 95.076 190.923 95.772C190.923 96.188 190.819 96.556 190.611 96.876C190.403 97.188 190.111 97.436 189.735 97.62ZM185.847 97.08H187.659C188.083 97.08 188.403 96.996 188.619 96.828C188.835 96.652 188.943 96.396 188.943 96.06C188.943 95.732 188.831 95.48 188.607 95.304C188.391 95.128 188.075 95.04 187.659 95.04H185.847V97.08ZM187.983 100.56C188.895 100.56 189.351 100.2 189.351 99.48C189.351 98.784 188.895 98.436 187.983 98.436H185.847V100.56H187.983ZM196.865 102.144C195.993 102.144 195.205 101.956 194.501 101.58C193.805 101.204 193.257 100.688 192.857 100.032C192.465 99.368 192.269 98.624 192.269 97.8C192.269 96.976 192.465 96.236 192.857 95.58C193.257 94.916 193.805 94.396 194.501 94.02C195.205 93.644 195.993 93.456 196.865 93.456C197.737 93.456 198.521 93.644 199.217 94.02C199.913 94.396 200.461 94.916 200.861 95.58C201.261 96.236 201.461 96.976 201.461 97.8C201.461 98.624 201.261 99.368 200.861 100.032C200.461 100.688 199.913 101.204 199.217 101.58C198.521 101.956 197.737 102.144 196.865 102.144ZM196.865 100.488C197.361 100.488 197.809 100.376 198.209 100.152C198.609 99.92 198.921 99.6 199.145 99.192C199.377 98.784 199.493 98.32 199.493 97.8C199.493 97.28 199.377 96.816 199.145 96.408C198.921 96 198.609 95.684 198.209 95.46C197.809 95.228 197.361 95.112 196.865 95.112C196.369 95.112 195.921 95.228 195.521 95.46C195.121 95.684 194.805 96 194.573 96.408C194.349 96.816 194.237 97.28 194.237 97.8C194.237 98.32 194.349 98.784 194.573 99.192C194.805 99.6 195.121 99.92 195.521 100.152C195.921 100.376 196.369 100.488 196.865 100.488ZM206.594 93.6C207.338 93.6 207.982 93.724 208.526 93.972C209.078 94.22 209.502 94.572 209.798 95.028C210.094 95.484 210.242 96.024 210.242 96.648C210.242 97.264 210.094 97.804 209.798 98.268C209.502 98.724 209.078 99.076 208.526 99.324C207.982 99.564 207.338 99.684 206.594 99.684H204.902V102H202.958V93.6H206.594ZM206.486 98.1C207.07 98.1 207.514 97.976 207.818 97.728C208.122 97.472 208.274 97.112 208.274 96.648C208.274 96.176 208.122 95.816 207.818 95.568C207.514 95.312 207.07 95.184 206.486 95.184H204.902V98.1H206.486ZM216.791 100.2H212.891L212.147 102H210.155L213.899 93.6H215.819L219.575 102H217.535L216.791 100.2ZM216.179 98.724L214.847 95.508L213.515 98.724H216.179ZM49.044 107.6H50.976V113.072L54.984 107.6H56.808V116H54.888V110.54L50.88 116H49.044V107.6ZM66.3059 116.144C65.4339 116.144 64.6459 115.956 63.9419 115.58C63.2459 115.204 62.6979 114.688 62.2979 114.032C61.9059 113.368 61.7099 112.624 61.7099 111.8C61.7099 110.976 61.9059 110.236 62.2979 109.58C62.6979 108.916 63.2459 108.396 63.9419 108.02C64.6459 107.644 65.4339 107.456 66.3059 107.456C67.1779 107.456 67.9619 107.644 68.6579 108.02C69.3539 108.396 69.9019 108.916 70.3019 109.58C70.7019 110.236 70.9019 110.976 70.9019 111.8C70.9019 112.624 70.7019 113.368 70.3019 114.032C69.9019 114.688 69.3539 115.204 68.6579 115.58C67.9619 115.956 67.1779 116.144 66.3059 116.144ZM66.3059 114.488C66.8019 114.488 67.2499 114.376 67.6499 114.152C68.0499 113.92 68.3619 113.6 68.5859 113.192C68.8179 112.784 68.9339 112.32 68.9339 111.8C68.9339 111.28 68.8179 110.816 68.5859 110.408C68.3619 110 68.0499 109.684 67.6499 109.46C67.2499 109.228 66.8019 109.112 66.3059 109.112C65.8099 109.112 65.3619 109.228 64.9619 109.46C64.5619 109.684 64.2459 110 64.0139 110.408C63.7899 110.816 63.6779 111.28 63.6779 111.8C63.6779 112.32 63.7899 112.784 64.0139 113.192C64.2459 113.6 64.5619 113.92 64.9619 114.152C65.3619 114.376 65.8099 114.488 66.3059 114.488ZM80.0555 107.6V116H78.1235V109.184H74.3315V116H72.3995V107.6H80.0555ZM89.5672 107.6V116H87.6472V109.184H84.7672L84.7072 110.936C84.6672 112.128 84.5712 113.096 84.4192 113.84C84.2672 114.576 84.0112 115.144 83.6512 115.544C83.2992 115.936 82.8032 116.132 82.1632 116.132C81.8992 116.132 81.5792 116.088 81.2032 116L81.3232 114.356C81.4272 114.388 81.5432 114.404 81.6712 114.404C82.1352 114.404 82.4592 114.132 82.6432 113.588C82.8272 113.036 82.9432 112.176 82.9912 111.008L83.1112 107.6H89.5672ZM97.3531 114.2H93.4531L92.7091 116H90.7171L94.4611 107.6H96.3811L100.137 116H98.0971L97.3531 114.2ZM96.7411 112.724L95.4091 109.508L94.0771 112.724H96.7411ZM107.249 109.184H104.561V116H102.641V109.184H99.9652V107.6H107.249V109.184ZM113.736 114.2H109.836L109.092 116H107.1L110.844 107.6H112.764L116.52 116H114.48L113.736 114.2ZM113.124 112.724L111.792 109.508L110.46 112.724H113.124Z" fill="#393939"/>
<path d="M10.848 117.384C8.992 117.384 7.33867 116.925 5.888 116.008C4.43733 115.091 3.296 113.768 2.464 112.04C1.65333 110.291 1.248 108.211 1.248 105.8C1.248 103.389 1.65333 101.32 2.464 99.592C3.296 97.8427 4.43733 96.5093 5.888 95.592C7.33867 94.6747 8.992 94.216 10.848 94.216C12.704 94.216 14.3573 94.6747 15.808 95.592C17.2587 96.5093 18.3893 97.8427 19.2 99.592C20.032 101.32 20.448 103.389 20.448 105.8C20.448 108.211 20.032 110.291 19.2 112.04C18.3893 113.768 17.2587 115.091 15.808 116.008C14.3573 116.925 12.704 117.384 10.848 117.384ZM10.848 113C12.2133 113 13.28 112.413 14.048 111.24C14.8373 110.067 15.232 108.253 15.232 105.8C15.232 103.347 14.8373 101.533 14.048 100.36C13.28 99.1867 12.2133 98.6 10.848 98.6C9.504 98.6 8.43733 99.1867 7.648 100.36C6.88 101.533 6.496 103.347 6.496 105.8C6.496 108.253 6.88 110.067 7.648 111.24C8.43733 112.413 9.504 113 10.848 113ZM33.1183 103.72C35.0809 104.04 36.5849 104.776 37.6303 105.928C38.6756 107.059 39.1983 108.467 39.1983 110.152C39.1983 111.453 38.8569 112.659 38.1743 113.768C37.4916 114.856 36.4463 115.731 35.0383 116.392C33.6516 117.053 31.9449 117.384 29.9183 117.384C28.3396 117.384 26.7823 117.181 25.2463 116.776C23.7316 116.349 22.4409 115.752 21.3742 114.984L23.3903 111.016C24.2436 111.656 25.2249 112.157 26.3343 112.52C27.4649 112.861 28.6169 113.032 29.7903 113.032C31.0916 113.032 32.1156 112.787 32.8623 112.296C33.6089 111.784 33.9823 111.069 33.9823 110.152C33.9823 108.317 32.5849 107.4 29.7903 107.4H27.4223V103.976L32.0303 98.76H22.4943V94.6H38.1743V97.96L33.1183 103.72Z" fill="#393939"/>
<g clip-path="url(#clip1)">
<path d="M261.744 105.5C261.744 109.221 264.767 112.256 268.5 112.256C272.233 112.256 275.256 109.221 275.256 105.5C275.256 101.779 272.221 98.7442 268.5 98.7442C264.779 98.7442 261.744 101.779 261.744 105.5ZM274.302 105.5C274.302 108.698 271.698 111.302 268.5 111.302C265.302 111.302 262.698 108.698 262.698 105.5C262.698 102.302 265.302 99.6977 268.5 99.6977C271.698 99.6977 274.302 102.302 274.302 105.5Z" fill="black"/>
<path d="M265.128 103.942C265.035 104.035 264.989 104.151 264.989 104.279C264.989 104.395 265.035 104.523 265.128 104.616L268.198 107.686C268.291 107.779 268.407 107.826 268.535 107.826C268.663 107.826 268.779 107.779 268.872 107.686L271.942 104.616C272.128 104.43 272.128 104.128 271.942 103.942C271.756 103.756 271.454 103.756 271.268 103.942L268.535 106.674L265.802 103.942C265.616 103.756 265.314 103.756 265.128 103.942Z" fill="black"/>
</g>
<path d="M10.848 187.384C8.992 187.384 7.33867 186.925 5.888 186.008C4.43733 185.091 3.296 183.768 2.464 182.04C1.65333 180.291 1.248 178.211 1.248 175.8C1.248 173.389 1.65333 171.32 2.464 169.592C3.296 167.843 4.43733 166.509 5.888 165.592C7.33867 164.675 8.992 164.216 10.848 164.216C12.704 164.216 14.3573 164.675 15.808 165.592C17.2587 166.509 18.3893 167.843 19.2 169.592C20.032 171.32 20.448 173.389 20.448 175.8C20.448 178.211 20.032 180.291 19.2 182.04C18.3893 183.768 17.2587 185.091 15.808 186.008C14.3573 186.925 12.704 187.384 10.848 187.384ZM10.848 183C12.2133 183 13.28 182.413 14.048 181.24C14.8373 180.067 15.232 178.253 15.232 175.8C15.232 173.347 14.8373 171.533 14.048 170.36C13.28 169.187 12.2133 168.6 10.848 168.6C9.504 168.6 8.43733 169.187 7.648 170.36C6.88 171.533 6.496 173.347 6.496 175.8C6.496 178.253 6.88 180.067 7.648 181.24C8.43733 182.413 9.504 183 10.848 183ZM43.4788 182.296H39.8308V187H34.7748V182.296H22.7108V178.808L33.2708 164.6H38.7108L28.9188 178.072H34.9348V173.88H39.8308V178.072H43.4788V182.296Z" fill="#393939"/>
<path d="M55.68 163.6C56.424 163.6 57.068 163.724 57.612 163.972C58.164 164.22 58.588 164.572 58.884 165.028C59.18 165.484 59.328 166.024 59.328 166.648C59.328 167.264 59.18 167.804 58.884 168.268C58.588 168.724 58.164 169.076 57.612 169.324C57.068 169.564 56.424 169.684 55.68 169.684H53.988V172H52.044V163.6H55.68ZM55.572 168.1C56.156 168.1 56.6 167.976 56.904 167.728C57.208 167.472 57.36 167.112 57.36 166.648C57.36 166.176 57.208 165.816 56.904 165.568C56.6 165.312 56.156 165.184 55.572 165.184H53.988V168.1H55.572ZM65.8765 170.2H61.9765L61.2325 172H59.2405L62.9845 163.6H64.9045L68.6605 172H66.6205L65.8765 170.2ZM65.2645 168.724L63.9325 165.508L62.6005 168.724H65.2645ZM74.5505 167.62C75.0385 167.788 75.4185 168.052 75.6905 168.412C75.9705 168.764 76.1105 169.176 76.1105 169.648C76.1105 170.16 75.9425 170.604 75.6065 170.98C75.2705 171.356 74.8145 171.644 74.2385 171.844C73.6705 172.044 73.0465 172.144 72.3665 172.144C71.7905 172.144 71.2145 172.072 70.6385 171.928C70.0705 171.784 69.5305 171.564 69.0185 171.268L69.6185 169.876C69.9865 170.1 70.3905 170.272 70.8305 170.392C71.2785 170.504 71.7145 170.56 72.1385 170.56C72.7145 170.56 73.1905 170.456 73.5665 170.248C73.9505 170.04 74.1425 169.748 74.1425 169.372C74.1425 169.06 74.0105 168.824 73.7465 168.664C73.4905 168.504 73.1385 168.424 72.6905 168.424H70.6385V166.96H72.5465C72.9385 166.96 73.2425 166.88 73.4585 166.72C73.6825 166.56 73.7945 166.34 73.7945 166.06C73.7945 165.732 73.6345 165.476 73.3145 165.292C73.0025 165.108 72.5985 165.016 72.1025 165.016C71.7345 165.016 71.3545 165.068 70.9625 165.172C70.5705 165.268 70.1985 165.416 69.8465 165.616L69.2585 164.104C70.1465 163.648 71.1065 163.42 72.1385 163.42C72.7945 163.42 73.3985 163.516 73.9505 163.708C74.5025 163.9 74.9425 164.18 75.2705 164.548C75.5985 164.916 75.7625 165.344 75.7625 165.832C75.7625 166.232 75.6545 166.588 75.4385 166.9C75.2225 167.212 74.9265 167.452 74.5505 167.62ZM81.2855 163.6C82.0295 163.6 82.6735 163.724 83.2175 163.972C83.7695 164.22 84.1935 164.572 84.4895 165.028C84.7855 165.484 84.9335 166.024 84.9335 166.648C84.9335 167.264 84.7855 167.804 84.4895 168.268C84.1935 168.724 83.7695 169.076 83.2175 169.324C82.6735 169.564 82.0295 169.684 81.2855 169.684H79.5935V172H77.6495V163.6H81.2855ZM81.1775 168.1C81.7615 168.1 82.2055 167.976 82.5095 167.728C82.8135 167.472 82.9655 167.112 82.9655 166.648C82.9655 166.176 82.8135 165.816 82.5095 165.568C82.2055 165.312 81.7615 165.184 81.1775 165.184H79.5935V168.1H81.1775ZM91.482 170.2H87.582L86.838 172H84.846L88.59 163.6H90.51L94.266 172H92.226L91.482 170.2ZM90.87 168.724L89.538 165.508L88.206 168.724H90.87ZM95.3799 163.6H102.16V165.148H97.3119V166.876H99.6399C100.656 166.876 101.428 167.088 101.956 167.512C102.492 167.936 102.76 168.548 102.76 169.348C102.76 170.188 102.464 170.84 101.872 171.304C101.28 171.768 100.444 172 99.3639 172H95.3799V163.6ZM99.2559 170.56C99.7519 170.56 100.132 170.464 100.396 170.272C100.66 170.072 100.792 169.784 100.792 169.408C100.792 168.672 100.28 168.304 99.2559 168.304H97.3119V170.56H99.2559ZM108.247 172.144C107.375 172.144 106.587 171.956 105.883 171.58C105.187 171.204 104.639 170.688 104.239 170.032C103.847 169.368 103.651 168.624 103.651 167.8C103.651 166.976 103.847 166.236 104.239 165.58C104.639 164.916 105.187 164.396 105.883 164.02C106.587 163.644 107.375 163.456 108.247 163.456C109.119 163.456 109.903 163.644 110.599 164.02C111.295 164.396 111.843 164.916 112.243 165.58C112.643 166.236 112.843 166.976 112.843 167.8C112.843 168.624 112.643 169.368 112.243 170.032C111.843 170.688 111.295 171.204 110.599 171.58C109.903 171.956 109.119 172.144 108.247 172.144ZM108.247 170.488C108.743 170.488 109.191 170.376 109.591 170.152C109.991 169.92 110.303 169.6 110.527 169.192C110.759 168.784 110.875 168.32 110.875 167.8C110.875 167.28 110.759 166.816 110.527 166.408C110.303 166 109.991 165.684 109.591 165.46C109.191 165.228 108.743 165.112 108.247 165.112C107.751 165.112 107.303 165.228 106.903 165.46C106.503 165.684 106.187 166 105.955 166.408C105.731 166.816 105.619 167.28 105.619 167.8C105.619 168.32 105.731 168.784 105.955 169.192C106.187 169.6 106.503 169.92 106.903 170.152C107.303 170.376 107.751 170.488 108.247 170.488ZM120.644 165.184H117.956V172H116.036V165.184H113.36V163.6H120.644V165.184ZM125.116 168.616H123.772V172H121.84V163.6H123.772V166.996H125.164L127.372 163.6H129.424L126.676 167.656L129.508 172H127.3L125.116 168.616ZM135.943 170.2H132.043L131.299 172H129.307L133.051 163.6H134.971L138.727 172H136.687L135.943 170.2ZM135.331 168.724L133.999 165.508L132.667 168.724H135.331ZM147.211 172.144C146.355 172.144 145.579 171.96 144.883 171.592C144.195 171.216 143.651 170.7 143.251 170.044C142.859 169.38 142.663 168.632 142.663 167.8C142.663 166.968 142.859 166.224 143.251 165.568C143.651 164.904 144.195 164.388 144.883 164.02C145.579 163.644 146.359 163.456 147.223 163.456C147.951 163.456 148.607 163.584 149.191 163.84C149.783 164.096 150.279 164.464 150.679 164.944L149.431 166.096C148.863 165.44 148.159 165.112 147.319 165.112C146.799 165.112 146.335 165.228 145.927 165.46C145.519 165.684 145.199 166 144.967 166.408C144.743 166.816 144.631 167.28 144.631 167.8C144.631 168.32 144.743 168.784 144.967 169.192C145.199 169.6 145.519 169.92 145.927 170.152C146.335 170.376 146.799 170.488 147.319 170.488C148.159 170.488 148.863 170.156 149.431 169.492L150.679 170.644C150.279 171.132 149.783 171.504 149.191 171.76C148.599 172.016 147.939 172.144 147.211 172.144ZM157.47 170.2H153.57L152.826 172H150.834L154.578 163.6H156.498L160.254 172H158.214L157.47 170.2ZM156.858 168.724L155.526 165.508L154.194 168.724H156.858ZM161.368 163.6H163.3V169.072L167.308 163.6H169.132V172H167.212V166.54L163.204 172H161.368V163.6ZM165.244 163.06C163.708 163.06 162.932 162.448 162.916 161.224H164.248C164.264 161.808 164.596 162.1 165.244 162.1C165.564 162.1 165.808 162.028 165.976 161.884C166.144 161.732 166.232 161.512 166.24 161.224H167.572C167.564 161.824 167.368 162.28 166.984 162.592C166.6 162.904 166.02 163.06 165.244 163.06ZM177.644 165.184H174.956V172H173.036V165.184H170.36V163.6H177.644V165.184ZM184.13 170.2H180.23L179.486 172H177.494L181.238 163.6H183.158L186.914 172H184.874L184.13 170.2ZM183.518 168.724L182.186 165.508L180.854 168.724H183.518ZM52.044 177.6H53.976V183.072L57.984 177.6H59.808V186H57.888V180.54L53.88 186H52.044V177.6ZM69.6035 177.6V186H67.6595V182.556H63.8435V186H61.8995V177.6H63.8435V180.912H67.6595V177.6H69.6035ZM78.1281 179.184H75.4401V186H73.5201V179.184H70.8441V177.6H78.1281V179.184ZM85.8527 184.44V186H79.3487V177.6H85.6967V179.16H81.2807V180.984H85.1807V182.496H81.2807V184.44H85.8527ZM91.0589 177.6C91.8029 177.6 92.4469 177.724 92.9909 177.972C93.5429 178.22 93.9669 178.572 94.2629 179.028C94.5589 179.484 94.7069 180.024 94.7069 180.648C94.7069 181.264 94.5589 181.804 94.2629 182.268C93.9669 182.724 93.5429 183.076 92.9909 183.324C92.4469 183.564 91.8029 183.684 91.0589 183.684H89.3669V186H87.4229V177.6H91.0589ZM90.9509 182.1C91.5349 182.1 91.9789 181.976 92.2829 181.728C92.5869 181.472 92.7389 181.112 92.7389 180.648C92.7389 180.176 92.5869 179.816 92.2829 179.568C91.9789 179.312 91.5349 179.184 90.9509 179.184H89.3669V182.1H90.9509ZM103.693 177.6V186H101.749V182.556H97.9333V186H95.9893V177.6H97.9333V180.912H101.749V177.6H103.693ZM112.302 184.44V186H105.798V177.6H112.146V179.16H107.73V180.984H111.63V182.496H107.73V184.44H112.302ZM120.292 179.184H117.604V186H115.684V179.184H113.008V177.6H120.292V179.184ZM120.659 181.872H124.055V183.372H120.659V181.872ZM133.352 186L133.34 180.972L130.868 185.112H130.004L127.532 181.068V186H125.708V177.6H127.316L130.46 182.82L133.556 177.6H135.164L135.176 186H133.352ZM142.951 184.2H139.051L138.307 186H136.315L140.059 177.6H141.979L145.735 186H143.695L142.951 184.2ZM142.339 182.724L141.007 179.508L139.675 182.724H142.339ZM152.765 179.184H148.769L148.781 186H146.849V177.6H152.777L152.765 179.184ZM158.021 184.2H154.121L153.377 186H151.385L155.129 177.6H157.049L160.805 186H158.765L158.021 184.2ZM157.409 182.724L156.077 179.508L154.745 182.724H157.409ZM166.695 181.62C167.183 181.788 167.563 182.052 167.835 182.412C168.115 182.764 168.255 183.176 168.255 183.648C168.255 184.16 168.087 184.604 167.751 184.98C167.415 185.356 166.959 185.644 166.383 185.844C165.815 186.044 165.191 186.144 164.511 186.144C163.935 186.144 163.359 186.072 162.783 185.928C162.215 185.784 161.675 185.564 161.163 185.268L161.763 183.876C162.131 184.1 162.535 184.272 162.975 184.392C163.423 184.504 163.859 184.56 164.283 184.56C164.859 184.56 165.335 184.456 165.711 184.248C166.095 184.04 166.287 183.748 166.287 183.372C166.287 183.06 166.155 182.824 165.891 182.664C165.635 182.504 165.283 182.424 164.835 182.424H162.783V180.96H164.691C165.083 180.96 165.387 180.88 165.603 180.72C165.827 180.56 165.939 180.34 165.939 180.06C165.939 179.732 165.779 179.476 165.459 179.292C165.147 179.108 164.743 179.016 164.247 179.016C163.879 179.016 163.499 179.068 163.107 179.172C162.715 179.268 162.343 179.416 161.991 179.616L161.403 178.104C162.291 177.648 163.251 177.42 164.283 177.42C164.939 177.42 165.543 177.516 166.095 177.708C166.647 177.9 167.087 178.18 167.415 178.548C167.743 178.916 167.907 179.344 167.907 179.832C167.907 180.232 167.799 180.588 167.583 180.9C167.367 181.212 167.071 181.452 166.695 181.62ZM169.794 177.6H171.726V183.072L175.734 177.6H177.558V186H175.638V180.54L171.63 186H169.794V177.6ZM187.353 177.6V186H185.409V182.556H181.593V186H179.649V177.6H181.593V180.912H185.409V177.6H187.353ZM195.146 184.2H191.246L190.502 186H188.51L192.254 177.6H194.174L197.93 186H195.89L195.146 184.2ZM194.534 182.724L193.202 179.508L191.87 182.724H194.534Z" fill="#393939"/>
<g clip-path="url(#clip2)">
<path d="M261.744 175.5C261.744 179.221 264.767 182.256 268.5 182.256C272.233 182.256 275.256 179.221 275.256 175.5C275.256 171.779 272.221 168.744 268.5 168.744C264.779 168.744 261.744 171.779 261.744 175.5ZM274.302 175.5C274.302 178.698 271.698 181.302 268.5 181.302C265.302 181.302 262.698 178.698 262.698 175.5C262.698 172.302 265.302 169.698 268.5 169.698C271.698 169.698 274.302 172.302 274.302 175.5Z" fill="black"/>
<path d="M265.128 173.942C265.035 174.035 264.989 174.151 264.989 174.279C264.989 174.395 265.035 174.523 265.128 174.616L268.198 177.686C268.291 177.779 268.407 177.826 268.535 177.826C268.663 177.826 268.779 177.779 268.872 177.686L271.942 174.616C272.128 174.43 272.128 174.128 271.942 173.942C271.756 173.756 271.454 173.756 271.268 173.942L268.535 176.674L265.802 173.942C265.616 173.756 265.314 173.756 265.128 173.942Z" fill="black"/>
</g>
<path d="M56.748 232.6V241H54.804V237.556H50.988V241H49.044V232.6H50.988V235.912H54.804V232.6H56.748ZM64.5406 239.2H60.6406L59.8966 241H57.9046L61.6486 232.6H63.5686L67.3246 241H65.2846L64.5406 239.2ZM63.9286 237.724L62.5966 234.508L61.2646 237.724H63.9286ZM72.2933 241.144C71.4373 241.144 70.6613 240.96 69.9653 240.592C69.2773 240.216 68.7333 239.7 68.3333 239.044C67.9413 238.38 67.7453 237.632 67.7453 236.8C67.7453 235.968 67.9413 235.224 68.3333 234.568C68.7333 233.904 69.2773 233.388 69.9653 233.02C70.6613 232.644 71.4413 232.456 72.3053 232.456C73.0333 232.456 73.6893 232.584 74.2733 232.84C74.8653 233.096 75.3613 233.464 75.7613 233.944L74.5133 235.096C73.9453 234.44 73.2413 234.112 72.4013 234.112C71.8813 234.112 71.4173 234.228 71.0093 234.46C70.6013 234.684 70.2813 235 70.0493 235.408C69.8253 235.816 69.7133 236.28 69.7133 236.8C69.7133 237.32 69.8253 237.784 70.0493 238.192C70.2813 238.6 70.6013 238.92 71.0093 239.152C71.4173 239.376 71.8813 239.488 72.4013 239.488C73.2413 239.488 73.9453 239.156 74.5133 238.492L75.7613 239.644C75.3613 240.132 74.8653 240.504 74.2733 240.76C73.6813 241.016 73.0213 241.144 72.2933 241.144ZM83.3663 234.184H80.6783V241H78.7583V234.184H76.0823V232.6H83.3663V234.184ZM88.223 232.6C88.967 232.6 89.611 232.724 90.155 232.972C90.707 233.22 91.131 233.572 91.427 234.028C91.723 234.484 91.871 235.024 91.871 235.648C91.871 236.264 91.723 236.804 91.427 237.268C91.131 237.724 90.707 238.076 90.155 238.324C89.611 238.564 88.967 238.684 88.223 238.684H86.531V241H84.587V232.6H88.223ZM88.115 237.1C88.699 237.1 89.143 236.976 89.447 236.728C89.751 236.472 89.903 236.112 89.903 235.648C89.903 235.176 89.751 234.816 89.447 234.568C89.143 234.312 88.699 234.184 88.115 234.184H86.531V237.1H88.115ZM97.2786 241.144C96.4066 241.144 95.6186 240.956 94.9146 240.58C94.2186 240.204 93.6706 239.688 93.2706 239.032C92.8786 238.368 92.6826 237.624 92.6826 236.8C92.6826 235.976 92.8786 235.236 93.2706 234.58C93.6706 233.916 94.2186 233.396 94.9146 233.02C95.6186 232.644 96.4066 232.456 97.2786 232.456C98.1506 232.456 98.9346 232.644 99.6306 233.02C100.327 233.396 100.875 233.916 101.275 234.58C101.675 235.236 101.875 235.976 101.875 236.8C101.875 237.624 101.675 238.368 101.275 239.032C100.875 239.688 100.327 240.204 99.6306 240.58C98.9346 240.956 98.1506 241.144 97.2786 241.144ZM97.2786 239.488C97.7746 239.488 98.2226 239.376 98.6226 239.152C99.0226 238.92 99.3346 238.6 99.5586 238.192C99.7906 237.784 99.9066 237.32 99.9066 236.8C99.9066 236.28 99.7906 235.816 99.5586 235.408C99.3346 235 99.0226 234.684 98.6226 234.46C98.2226 234.228 97.7746 234.112 97.2786 234.112C96.7826 234.112 96.3346 234.228 95.9346 234.46C95.5346 234.684 95.2186 235 94.9866 235.408C94.7626 235.816 94.6506 236.28 94.6506 236.8C94.6506 237.32 94.7626 237.784 94.9866 238.192C95.2186 238.6 95.5346 238.92 95.9346 239.152C96.3346 239.376 96.7826 239.488 97.2786 239.488ZM103.372 232.6H105.304V238.072L109.312 232.6H111.136V241H109.216V235.54L105.208 241H103.372V232.6ZM107.248 232.06C105.712 232.06 104.936 231.448 104.92 230.224H106.252C106.268 230.808 106.6 231.1 107.248 231.1C107.568 231.1 107.812 231.028 107.98 230.884C108.148 230.732 108.236 230.512 108.244 230.224H109.576C109.568 230.824 109.372 231.28 108.988 231.592C108.604 231.904 108.024 232.06 107.248 232.06ZM116.48 237.616H115.136V241H113.204V232.6H115.136V235.996H116.528L118.736 232.6H120.788L118.04 236.656L120.872 241H118.664L116.48 237.616ZM127.306 239.2H123.406L122.662 241H120.67L124.414 232.6H126.334L130.09 241H128.05L127.306 239.2ZM126.694 237.724L125.362 234.508L124.03 237.724H126.694ZM134.603 232.6H136.535V238.072L140.543 232.6H142.367V241H140.447V235.54L136.439 241H134.603V232.6ZM155.561 232.6V241H153.617V237.556H149.801V241H147.857V232.6H149.801V235.912H153.617V232.6H155.561ZM163.353 239.2H159.453L158.709 241H156.717L160.461 232.6H162.381L166.137 241H164.097L163.353 239.2ZM162.741 237.724L161.409 234.508L160.077 237.724H162.741ZM174.907 232.6V241H172.975V234.184H169.183V241H167.251V232.6H174.907ZM180.997 241.144C180.125 241.144 179.337 240.956 178.633 240.58C177.937 240.204 177.389 239.688 176.989 239.032C176.597 238.368 176.401 237.624 176.401 236.8C176.401 235.976 176.597 235.236 176.989 234.58C177.389 233.916 177.937 233.396 178.633 233.02C179.337 232.644 180.125 232.456 180.997 232.456C181.869 232.456 182.653 232.644 183.349 233.02C184.045 233.396 184.593 233.916 184.993 234.58C185.393 235.236 185.593 235.976 185.593 236.8C185.593 237.624 185.393 238.368 184.993 239.032C184.593 239.688 184.045 240.204 183.349 240.58C182.653 240.956 181.869 241.144 180.997 241.144ZM180.997 239.488C181.493 239.488 181.941 239.376 182.341 239.152C182.741 238.92 183.053 238.6 183.277 238.192C183.509 237.784 183.625 237.32 183.625 236.8C183.625 236.28 183.509 235.816 183.277 235.408C183.053 235 182.741 234.684 182.341 234.46C181.941 234.228 181.493 234.112 180.997 234.112C180.501 234.112 180.053 234.228 179.653 234.46C179.253 234.684 178.937 235 178.705 235.408C178.481 235.816 178.369 236.28 178.369 236.8C178.369 237.32 178.481 237.784 178.705 238.192C178.937 238.6 179.253 238.92 179.653 239.152C180.053 239.376 180.501 239.488 180.997 239.488ZM194.345 232.6V241H192.424V234.184H189.545L189.485 235.936C189.445 237.128 189.349 238.096 189.197 238.84C189.045 239.576 188.789 240.144 188.429 240.544C188.077 240.936 187.581 241.132 186.941 241.132C186.677 241.132 186.357 241.088 185.981 241L186.101 239.356C186.205 239.388 186.321 239.404 186.449 239.404C186.913 239.404 187.237 239.132 187.421 238.588C187.605 238.036 187.721 237.176 187.769 236.008L187.889 232.6H194.345ZM204.146 232.6V241H202.202V237.556H198.386V241H196.442V232.6H198.386V235.912H202.202V232.6H204.146ZM212.755 239.44V241H206.251V232.6H212.599V234.16H208.183V235.984H212.083V237.496H208.183V239.44H212.755ZM222.029 232.6V241H220.085V237.556H216.269V241H214.325V232.6H216.269V235.912H220.085V232.6H222.029ZM224.134 232.6H226.066V238.072L230.074 232.6H231.898V241H229.978V235.54L225.97 241H224.134V232.6ZM240.493 239.44V241H233.989V232.6H240.337V234.16H235.921V235.984H239.821V237.496H235.921V239.44H240.493ZM49.044 246.6H50.976V252.072L54.984 246.6H56.808V255H54.888V249.54L50.88 255H49.044V246.6ZM66.6035 246.6V255H64.6595V251.556H60.8435V255H58.8995V246.6H60.8435V249.912H64.6595V246.6H66.6035ZM75.1281 248.184H72.4401V255H70.5201V248.184H67.8441V246.6H75.1281V248.184ZM82.8527 253.44V255H76.3487V246.6H82.6967V248.16H78.2807V249.984H82.1807V251.496H78.2807V253.44H82.8527ZM88.0589 246.6C88.8029 246.6 89.4469 246.724 89.9909 246.972C90.5429 247.22 90.9669 247.572 91.2629 248.028C91.5589 248.484 91.7069 249.024 91.7069 249.648C91.7069 250.264 91.5589 250.804 91.2629 251.268C90.9669 251.724 90.5429 252.076 89.9909 252.324C89.4469 252.564 88.8029 252.684 88.0589 252.684H86.3669V255H84.4229V246.6H88.0589ZM87.9509 251.1C88.5349 251.1 88.9789 250.976 89.2829 250.728C89.5869 250.472 89.7389 250.112 89.7389 249.648C89.7389 249.176 89.5869 248.816 89.2829 248.568C88.9789 248.312 88.5349 248.184 87.9509 248.184H86.3669V251.1H87.9509ZM100.693 246.6V255H98.7493V251.556H94.9333V255H92.9893V246.6H94.9333V249.912H98.7493V246.6H100.693ZM109.302 253.44V255H102.798V246.6H109.146V248.16H104.73V249.984H108.63V251.496H104.73V253.44H109.302ZM117.292 248.184H114.604V255H112.684V248.184H110.008V246.6H117.292V248.184ZM117.659 250.872H121.055V252.372H117.659V250.872ZM130.352 255L130.34 249.972L127.868 254.112H127.004L124.532 250.068V255H122.708V246.6H124.316L127.46 251.82L130.556 246.6H132.164L132.176 255H130.352ZM139.951 253.2H136.051L135.307 255H133.315L137.059 246.6H138.979L142.735 255H140.695L139.951 253.2ZM139.339 251.724L138.007 248.508L136.675 251.724H139.339ZM149.765 248.184H145.769L145.781 255H143.849V246.6H149.777L149.765 248.184ZM155.021 253.2H151.121L150.377 255H148.385L152.129 246.6H154.049L157.805 255H155.765L155.021 253.2ZM154.409 251.724L153.077 248.508L151.745 251.724H154.409ZM163.695 250.62C164.183 250.788 164.563 251.052 164.835 251.412C165.115 251.764 165.255 252.176 165.255 252.648C165.255 253.16 165.087 253.604 164.751 253.98C164.415 254.356 163.959 254.644 163.383 254.844C162.815 255.044 162.191 255.144 161.511 255.144C160.935 255.144 160.359 255.072 159.783 254.928C159.215 254.784 158.675 254.564 158.163 254.268L158.763 252.876C159.131 253.1 159.535 253.272 159.975 253.392C160.423 253.504 160.859 253.56 161.283 253.56C161.859 253.56 162.335 253.456 162.711 253.248C163.095 253.04 163.287 252.748 163.287 252.372C163.287 252.06 163.155 251.824 162.891 251.664C162.635 251.504 162.283 251.424 161.835 251.424H159.783V249.96H161.691C162.083 249.96 162.387 249.88 162.603 249.72C162.827 249.56 162.939 249.34 162.939 249.06C162.939 248.732 162.779 248.476 162.459 248.292C162.147 248.108 161.743 248.016 161.247 248.016C160.879 248.016 160.499 248.068 160.107 248.172C159.715 248.268 159.343 248.416 158.991 248.616L158.403 247.104C159.291 246.648 160.251 246.42 161.283 246.42C161.939 246.42 162.543 246.516 163.095 246.708C163.647 246.9 164.087 247.18 164.415 247.548C164.743 247.916 164.907 248.344 164.907 248.832C164.907 249.232 164.799 249.588 164.583 249.9C164.367 250.212 164.071 250.452 163.695 250.62ZM166.794 246.6H168.726V252.072L172.734 246.6H174.558V255H172.638V249.54L168.63 255H166.794V246.6ZM184.353 246.6V255H182.409V251.556H178.593V255H176.649V246.6H178.593V249.912H182.409V246.6H184.353ZM192.146 253.2H188.246L187.502 255H185.51L189.254 246.6H191.174L194.93 255H192.89L192.146 253.2ZM191.534 251.724L190.202 248.508L188.87 251.724H191.534Z" fill="#393939"/>
<defs>
<clipPath id="clip0">
<rect width="15" height="15" fill="white" transform="translate(276 27) rotate(90)"/>
</clipPath>
<clipPath id="clip1">
<rect width="15" height="15" fill="white" transform="translate(276 98) rotate(90)"/>
</clipPath>
<clipPath id="clip2">
<rect width="15" height="15" fill="white" transform="translate(276 168) rotate(90)"/>
</clipPath>
</defs>
</svg>
